<?xml version="1.0" encoding="utf-8"?>
<!-- Generator: Adobe Illustrator 22.0.1, SVG Export Plug-In . SVG Version: 6.00 Build 0)  -->
<svg version="1.1" id="Layer_1" xmlns="http://www.w3.org/2000/svg" xmlns:xlink="http://www.w3.org/1999/xlink" x="0px" y="0px"
	 viewBox="0 0 712.2 486.6" enable-background="new 0 0 712.2 486.6" xml:space="preserve">
<g>
	<path fill="#1F4D9B" d="M508.5,172.6l3.3-1.2c-2.9-5.3-4.8-11.4-4.8-17.1c0-20,12.4-24.7,30.8-24.7c18.5,0,30.8,5.7,30.8,25.6
		c0,4.7-1.1,8.6-3.2,13.4h20.1v12.1h-76.9V172.6z M537.7,141.9c-10.5,0-19.7,1.8-19.7,13.3c0,5.8,1.2,9.9,2.8,13.4h33.8
		c0.7-1.3,2.7-6.7,2.7-13.4C557.4,143.6,548.4,141.9,537.7,141.9"/>
</g>
<polygon fill="#1F4D9B" points="567,450.1 567,462.5 499.7,462.5 499.7,484.4 488.4,484.4 488.4,428.1 499.7,428.1 499.7,450.1 "/>
<g>
	<path fill="#1F4D9B" d="M525.4,380.8c-5.5,0-7.3,4.4-7.3,9.9c0,6,1.3,10.8,2.8,14.1H567v12h-78.6v-12h22.3
		c-2.1-4.3-3.8-10.8-3.8-15.5c0-14.6,7-20.5,18.8-20.5H567l-0.2,12.1H525.4z"/>
	<path fill="#1F4D9B" d="M527.6,257.7c-21.3,0-40.9-6.3-40.9-32c0-26.5,19.6-31.9,40.9-31.9c21.3,0,40.9,6.2,40.9,31.9
		C568.5,252.3,548.9,257.7,527.6,257.7 M527.6,244.7c16.4,0,29.5-2.7,29.5-19.1c0-16.4-13.2-18.9-29.5-18.9
		c-16.4,0-29.6,2.6-29.6,19C498.1,242.2,511.3,244.7,527.6,244.7"/>
	<path fill="#1F4D9B" d="M518.1,29.2c0-1.4-0.2-9.6,7.5-9.6H567V7.4h-41.2C514,7.4,507,13.4,507,28c0,5.7,1.7,12.5,4.8,17.7
		l-3.3,1.2V55H567V42.8h-46.1C519.4,39.7,518.1,35,518.1,29.2"/>
	<path fill="#1F4D9B" d="M542.9,106.3c10.2-0.9,14.3-5.4,14.3-17.1c0-5.5-1-11-3.3-17.9h10.7c2.9,7.2,3.9,14.2,3.9,20.8
		c0,20.2-12.3,26.6-30.8,26.6c-18,0-30.8-7.1-30.8-26.6c0-20.6,15.1-23.7,31.3-23.7h4.7V106.3z M533,106.2V80.8c-7.8,0-16,2-16,11.8
		C517,102.8,523.7,105.7,533,106.2"/>
	<path fill="#1F4D9B" d="M542.9,345c10.2-0.9,14.3-5.4,14.3-17.1c0-5.4-1-11-3.3-17.9h10.7c2.9,7.2,3.9,14.2,3.9,20.8
		c0,20.2-12.3,26.6-30.8,26.6c-18,0-30.7-7.1-30.7-26.6c0-20.6,15.1-23.7,31.3-23.7h4.7V345z M533.5,344.8v-25.4
		c-7.8,0-16,2-16,11.8C517.5,341.4,524.2,344.3,533.5,344.8"/>
	<path fill="#1F4D9B" d="M614.9,436.4h49.8c17.6,0,19,10.5,19,17.1c0,6.5-1.4,17-19,17h-49.8v12l51.3,0c25.3,0,29.2-18.1,29.2-29
		c0-11-3.9-29.1-29.2-29.1l-51.3,0V436.4z"/>
	<path fill="#1F4D9B" d="M618.2,340.8c4.4,0,7.9,3.5,7.9,7.9c0,4.4-3.5,7.9-7.9,7.9c-4.5,0-8-3.5-8-7.9
		C610.2,344.3,613.7,340.8,618.2,340.8"/>
	<path fill="#1F4D9B" d="M682.5,354.7h-47.2v-12l46.1,0c2.1,0,3-0.1,3-3.3v-2H695c0.2,1.3,0.2,2.8,0.2,5.6
		C695.2,349.9,691.8,354.7,682.5,354.7"/>
	<path fill="#1F4D9B" d="M682.5,121.8h-47.2v-12l46.1,0c2.1,0,3-0.1,3-3.3l0-2H695c0.2,1.3,0.2,2.8,0.2,5.6
		C695.2,117,691.8,121.8,682.5,121.8"/>
</g>
<polygon fill="#1F4D9B" points="635.3,289.4 635.3,276.3 695.2,299.1 695.2,308.9 635.3,331.7 635.3,318.6 680.8,304 "/>
<g>
	<path fill="#1F4D9B" d="M669.7,260.2c10.2-0.9,14.3-5.3,14.3-16.7c0-5.3-1-10.7-3.3-17.4h10.7c2.9,7,3.9,13.8,3.9,20.3
		c0,19.7-12.3,25.9-30.7,25.9c-18.1,0-30.8-6.9-30.8-25.9c0-20.1,15.1-23.2,31.3-23.1l4.7,0V260.2z M659.7,235.2
		c-7.8,0-16,2-16,11.6c0,10.2,6.7,13,16,13.5V235.2z"/>
	<path fill="#1F4D9B" d="M645.8,181.2c-0.4,2.4-0.6,5-0.6,8.1c0,4.5,1,8.3,2.4,11.4h46.2v12h-58.6l0-8l3.3-1.2
		c-2.8-3.6-4.6-10.2-4.6-14.5c0-2.6,0-5.6,0.5-7.8L645.8,181.2z"/>
	<path fill="#1F4D9B" d="M676.1,131.5c9.3,0,19.1,5.8,19.1,23.7c0,5.6-1.5,14-3.3,18.3l-11.3,0c1.7-4.6,3.5-11.1,3.5-18.4
		c0-9.3-4-12-7.9-12c-3.9,0-6.5,1.4-7.3,10.4c-1.5,17.1-8,20.6-16.6,20.6c-8.8,0-18.6-5.4-18.6-22.2c0-5.3,0.7-11.7,3.4-17.7l11.1,0
		c-1.9,5.7-3.4,11-3.4,17.8c0,8.9,3.3,10.8,7.5,10.8c3.4,0,5.1-1.7,5.9-10.5C659.9,135.4,665.8,131.5,676.1,131.5"/>
	<path fill="#1F4D9B" d="M694.5,61.4c0.5,2.7,0.8,6.6,0.8,11.1c0,9.4-4.9,16.8-16.4,16.8l-33.3,0v10.1h-9.7l-0.6-10.1h-14.7
		l-1.7-11.8h16.4l0-16h10.3v16h31.9c4.9,0,6.7-2.6,6.7-8.7c0-2.3-0.2-6.3-0.4-7.4H694.5z"/>
</g>
<polygon fill="#1F4D9B" points="677.5,27 635.3,12.4 635.3,0 712.2,29.7 712.2,40.9 690.9,32.7 635.3,53 635.3,39.6 "/>
<g>
	<path fill="#1F4D9B" d="M644.9,387c0-1.3-0.2-9.3,7.5-9.3h41.4v-11.9h-41.2c-11.8,0-18.8,5.9-18.8,20.1c0,5.6,1.6,12.3,4.8,17.3
		l-3.3,1.1v7.9h58.5v-11.8h-46.1C646.2,397.3,644.9,392.8,644.9,387"/>
	<path fill="#1F4D9B" d="M618.2,106.9c4.4,0,7.9,3.5,7.9,7.9c0,4.4-3.5,7.9-7.9,7.9c-4.5,0-8-3.5-8-7.9
		C610.2,110.4,613.7,106.9,618.2,106.9"/>
	<path fill="#1F4D9B" d="M179.3,241.1c-50.3,13-101.4-16.4-114.2-65.7C52.3,126,82.7,75.5,132.9,62.4c50.2-13,101.3,16.4,114.1,65.7
		C259.9,177.5,229.5,228.1,179.3,241.1 M388.3,3.3H24.7C13.4,3.3,0,14.4,0,25.9v263.4c0,115.7,92.1,197.3,205.7,197.3
		c113.6,0,205.7-81.7,205.7-197.3V27.1C411.4,15.6,399.6,3.3,388.3,3.3"/>
</g>
</svg>
