<?xml version="1.0" encoding="utf-8"?>
<!-- Generator: Adobe Illustrator 18.1.0, SVG Export Plug-In . SVG Version: 6.00 Build 0)  -->
<svg version="1.1" id="Layer_1" xmlns="http://www.w3.org/2000/svg" xmlns:xlink="http://www.w3.org/1999/xlink" x="0px" y="0px"
	 viewBox="0 0 1008.1 299.4" enable-background="new 0 0 1008.1 299.4" xml:space="preserve">
<g>
	<path fill="#010202" d="M307.6,176v58.8c0,24.2-9.9,35.4-31.2,35.4c-24.7,0-29.9-19.3-29.9-35.4V176h-7.2v58.8
		c0,27.8,12.5,41.8,37.1,41.8c25.5,0,38.4-14.1,38.4-41.8V176h-0.6H307.6z"/>
	<path fill="#010202" d="M361.4,201.6c-11,0-20.6,5.9-24.7,14.9v-13.3h-6.4v71.2h6.4v-38.4c0-17.4,9.6-28.6,24.6-28.6
		c19.3,0,19.3,16.8,19.3,22.3v44.8h6.4v-43.9C386.9,222.6,386.9,201.6,361.4,201.6"/>
	<polygon fill="#010202" points="408.5,203.2 402.7,203.2 402.7,274.4 409.1,274.4 409.1,203.2 	"/>
	<polygon fill="#010202" points="408.5,181.4 402.7,181.4 402.7,191 409.1,191 409.1,181.4 	"/>
	<path fill="#010202" d="M472.4,203.2c0,0-22.6,61-23.4,63.2c-0.9-2.2-25-63.2-25-63.2h-7.3l28.7,71.2h7.2l26.9-71.2h-0.9H472.4z"/>
	<path fill="#010202" d="M514.2,207.3c15.8,0,24.4,13.5,24.9,27.1h-49.9C490.5,220.8,499.4,207.3,514.2,207.3 M514.2,201.6
		c-8.3,0-15.5,2.9-20.9,8.4c-6.9,7-10.7,17.9-10.6,30c-0.2,11.2,3.3,20.9,9.7,27.4c5.5,5.6,13,8.5,21.8,8.5c17.1,0,28-9.2,30.8-25.8
		l0.1-0.7h-6.4l-0.1,0.5c-2.4,12.7-11.6,20.3-24.5,20.3c-6.7,0-12.4-2.3-16.7-6.7c-5.3-5.4-8.4-13.9-8.4-23.4c0,0,0-0.1,0-0.1h56.4
		l0-0.6c0-0.9,0.1-1.8,0.1-2.7c0-10.9-3.2-20.2-9.2-26.5C530.9,204.5,523.4,201.6,514.2,201.6"/>
	<path fill="#010202" d="M563.4,217.3v-14.1H557v71.2h6.4v-38.9c0.6-10.6,2.8-14.7,7.7-19.7c7.5-7.4,16.3-6.9,18.8-6.6l0.7,0.1v-6.4
		l-0.6,0C578.4,202.3,567.2,208.6,563.4,217.3"/>
	<path fill="#010202" d="M624.3,234.9c0,0-2.2-0.5-2.2-0.5c-10.6-2.2-20.6-4.4-20.6-14.3c0-9.5,10.1-12.9,19.5-12.9
		c7.4,0,19.9,2.2,20.1,17.2l0,0.6h6.4v-0.6c0-14.8-9.4-22.9-26.5-22.9c-6.1,0-25.9,1.3-25.9,18.6c0,15.5,14.2,18.4,24.6,20.5
		l1.8,0.4c11.1,2.2,21.6,4.4,21.6,15.1c0,12.8-15.1,14.2-21.6,14.2c-12.9,0-21.8-7.8-22.5-19.8l0-0.6h-6.4l0,0.6
		c0.4,15.7,11.5,25.5,28.9,25.5c6.6,0,28-1.4,28-19.9C649.5,240.8,638.1,237.5,624.3,234.9"/>
	<polygon fill="#010202" points="668.4,203.2 662.6,203.2 662.6,274.4 669,274.4 669,203.2 	"/>
	<path fill="#010202" d="M696.5,203.2v-21.8h-0.6h-5.8v21.8h-12.9v5.7h12.9v48.2c0,0.4,0,0.8,0,1.2c0,5.5,1.3,9.5,4.1,12.1
		c4.2,4.1,11.2,4.2,16.8,3.9l0.6,0v-5.7l-0.6,0c-5.8,0.2-9.6-0.2-11.9-2.4c-1.8-1.7-2.6-4.6-2.6-9.1v-48.2h17.8
		c7,16.6,27,64.1,27.1,64.5c-3.1,8.9-5,14.1-7,16c-3.3,3.3-6.6,4.3-14.1,4.3h-0.6v5.7h0.6c7.8,0,12.8-0.2,16.7-3.2
		c3-2.3,5.3-7.3,8.4-14.7c0,0,30.3-78.3,30.3-78.3h-0.9h-6.3c0,0-22.5,60-23.6,62.8c-1.1-2.7-25.6-62.8-25.6-62.8H696.5z"/>
	<polygon fill="#010202" points="668.4,181.4 662.6,181.4 662.6,191 669,191 669,181.4 	"/>
	<path fill="#206CA9" d="M24.1,70.4c0,3.7-0.4,31.9,17.3,61c15.9,26.3,39.5,37.9,49.6,41.6c10.2-3.7,33.8-15.3,49.7-41.6
		c17.7-29.2,17.3-57.4,17.3-61V1.8l-133.9,0V70.4z"/>
	<path fill="#206CA9" d="M166,102.7l-0.6,2.2c-0.8,2.6-1.7,5.2-2.6,7.7l-5.8-5.2l-0.7,2.1c-3.1,9.1-7.1,17.7-11.9,25.4
		c-12.6,20.1-30.3,34.8-51.2,42.5c0,0-1.5,0.5-2.2,0.8c-0.6-0.2-2.1-0.8-2.1-0.8c-20.9-7.7-38.6-22.3-51.2-42.5
		c-4.8-7.7-8.9-16.3-11.9-25.4l-0.7-2.1l-1.7,1.5l-4.1,3.7c-0.9-2.5-1.8-5-2.6-7.6l-0.6-2.2l-1.7,1.5L0,117.2l0.3,0.9
		c3.4,11,9.1,22.3,13.2,29.8l0.8,1.6l6-5.4c0.2,0.4,0.4,0.8,0.7,1.2c14.9,23.9,36.1,41.3,61.2,50.5l8.8,3.2l9-3.2
		c25.1-9.2,46.2-26.6,61.1-50.5c0.2-0.4,0.5-0.8,0.7-1.2l5.9,5.4l0.9-1.6c4.2-7.4,9.8-18.7,13.2-29.9l0.3-0.9L166,102.7z"/>
	<path fill="#FFFFFF" d="M146.8,31.9c0,0.9-0.2,1.9-0.6,2.7c-0.2,0.5-0.6,0.9-1,1.3c-0.6,0.3-1.1,0.6-1.6,1c0-0.2-0.1-0.5-0.1-0.7
		c0-1,0.2-1.9,0.7-2.7c0.5-1.1,1.5-1.9,2.5-2.5C146.7,31.4,146.8,31.7,146.8,31.9"/>
	<path fill="#FFFFFF" d="M135.9,50.1L135.9,50.1c1.2-0.2,2.4,0.1,3.4,0.6c-0.8,0.9-1.9,1.5-3.1,1.6c-1.2,0.2-2.4-0.1-3.5-0.6
		C133.6,50.9,134.7,50.3,135.9,50.1"/>
	<path fill="#FFFFFF" d="M130.1,51.9c0-0.1,0-0.2,0-0.3c0-1.1,0.3-2.2,0.9-3.1h0c0.6-1,1.5-1.7,2.6-2.1c0,0.1,0,0.2,0,0.3
		c0,1.1-0.3,2.1-0.9,3C132.2,50.7,131.3,51.4,130.1,51.9"/>
	<path fill="#FFFFFF" d="M134.6,45.7c0.4-0.7,1-1.3,1.7-1.8c0.1,0.5,0.3,1.1,0.3,1.6c0,0.6-0.1,1.2-0.3,1.8
		c-0.3,0.8-0.8,1.5-1.4,2.1c-0.2,0.1-0.5,0.2-0.7,0.3c0-0.1,0-0.1,0-0.2C134.6,48.3,134.7,47,134.6,45.7"/>
	<path fill="#FFFFFF" d="M137.1,42.8c0.2-0.8,0.7-1.5,1.2-2.2c0.5,0.9,0.8,1.9,0.8,2.8c0,0.1,0,0.3,0,0.4c-0.1,0.8-0.4,1.6-0.9,2.4
		c-0.2,0.1-0.5,0.3-0.7,0.4c0,0,0-0.1-0.1-0.1C137.7,45.3,137.6,44.1,137.1,42.8"/>
	<path fill="#FFFFFF" d="M138.8,39.4c0-0.8,0.3-1.6,0.6-2.4c0.8,0.9,1.4,1.9,1.6,3c0,0.3,0.1,0.5,0.1,0.8c0,0.6-0.1,1.1-0.3,1.7
		c-0.2,0.2-0.4,0.4-0.6,0.6c0-0.1-0.1-0.1-0.1-0.1C140,41.7,139.5,40.5,138.8,39.4"/>
	<path fill="#FFFFFF" d="M139.7,35.7c-0.1-0.4-0.1-0.8-0.1-1.1c0-0.4,0.1-0.8,0.2-1.3c1,0.7,1.8,1.5,2.2,2.5
		c0.3,0.7,0.4,1.4,0.4,2.1c0,0.1,0,0.2,0,0.3c-0.2,0.2-0.3,0.5-0.5,0.8c0,0-0.1-0.1-0.1-0.1C141.4,37.8,140.7,36.7,139.7,35.7"/>
	<path fill="#FFFFFF" d="M139.8,32c-0.4-0.8-0.5-1.6-0.5-2.5c1.1,0.4,2.1,1.1,2.8,2c0.5,0.7,0.8,1.4,0.9,2.3
		c-0.1,0.3-0.2,0.6-0.2,0.8c-0.1,0-0.1,0-0.2-0.1C141.9,33.5,140.9,32.6,139.8,32"/>
	<path fill="#FFFFFF" d="M142.4,30.2c-0.1,0-0.1,0-0.2,0c-0.8-0.9-1.9-1.5-3.2-1.9c-0.5-0.6-0.8-1.4-1.1-2.2
		c1.2,0.1,2.2,0.5,3.1,1.3c0.6,0.5,1.1,1.2,1.4,2.1C142.4,29.7,142.4,29.9,142.4,30.2"/>
	<path fill="#FFFFFF" d="M140.9,26c-1.1-0.7-2.2-1-3.6-1.1c-0.7-0.5-1.2-1.2-1.6-2c1.2-0.1,2.4,0,3.4,0.6c0.7,0.4,1.3,0.9,1.8,1.7
		c0,0.3,0.1,0.5,0.1,0.8C141,26,141,26,140.9,26"/>
	<path fill="#FFFFFF" d="M138.6,49.3c-0.6-0.2-1.2-0.3-1.8-0.3c0.7-0.9,1.5-1.7,2.5-2.2c1.1-0.5,2.3-0.5,3.5-0.2
		c-0.7,1-1.5,1.9-2.7,2.3C139.6,49.1,139.2,49.2,138.6,49.3"/>
	<path fill="#FFFFFF" d="M141.8,45.4c-0.6,0-1.3,0-1.9,0.2c0.4-1.1,1.1-2.1,2-2.7v0c0.9-0.7,2.1-1,3.4-1.1c-0.4,1.2-1.1,2.3-2.1,3
		C142.9,45,142.4,45.2,141.8,45.4"/>
	<path fill="#FFFFFF" d="M145.3,39.8c-0.4,0.4-0.8,0.8-1.3,1.1c-0.6,0.1-1.2,0.3-1.7,0.5c0.2-1.2,0.5-2.3,1.3-3.2
		c0.8-0.8,1.9-1.4,3-1.7C146.4,37.8,146.1,38.9,145.3,39.8"/>
	<path fill="#FFFFFF" d="M146,28c0,0.4-0.1,0.9-0.2,1.3c-0.1,0.5-0.4,1.1-0.7,1.5c-0.5,0.4-0.9,0.8-1.3,1.3c-0.3-0.7-0.4-1.3-0.4-2
		c0-0.5,0.1-0.9,0.2-1.4c0.3-1.2,1-2.1,1.9-3C145.8,26.6,146,27.3,146,28"/>
	<path fill="#FFFFFF" d="M141.9,24.3c0-1.1,0.5-2.3,1.2-3.3c0.7,1,1.1,2.2,1.1,3.3v0c0,0.6-0.1,1.1-0.3,1.6c-0.4,0.5-0.7,1-1,1.5
		C142.3,26.6,141.9,25.5,141.9,24.3L141.9,24.3z"/>
	<path fill="#FFFFFF" d="M139.5,16.9c0.9,0.8,1.6,1.8,1.9,3c0.1,0.4,0.1,0.8,0.1,1.2c0,0.1,0,0.3,0,0.4c-0.3,0.6-0.5,1.2-0.6,1.8
		c-0.8-0.8-1.5-1.8-1.7-2.8c-0.1-0.4-0.1-0.9-0.1-1.3C139.1,18.4,139.2,17.6,139.5,16.9"/>
	<path fill="#FFFFFF" d="M138.8,22.1c0,0-0.1,0-0.2,0c-1.2-0.4-2.5-0.5-3.8-0.2c-0.7-0.4-1.4-0.9-2-1.5c1.2-0.4,2.4-0.5,3.5-0.3
		c0.8,0.2,1.5,0.6,2.2,1.2C138.6,21.6,138.7,21.9,138.8,22.1"/>
	<path fill="#FFFFFF" d="M135.2,13.7c1.1,0.6,2,1.4,2.6,2.5c0.2,0.5,0.4,1,0.5,1.5c-0.1,0.6-0.2,1.3-0.2,1.9c-1-0.6-1.9-1.4-2.5-2.4
		c-0.4-0.8-0.6-1.7-0.6-2.6C135.1,14.3,135.1,13.9,135.2,13.7"/>
	<path fill="#FFFFFF" d="M133.9,16c0.1,0.1,0.2,0.2,0.4,0.3c0.1,0.5,0.3,0.9,0.5,1.3v0c0.2,0.4,0.5,0.8,0.8,1.2
		c-1.1-0.1-2.1-0.4-3-1c-0.9-0.7-1.6-1.7-2-2.9C131.8,14.9,132.9,15.3,133.9,16"/>
	<path fill="#FFFFFF" d="M118,41.5c0.7,0,1.3,0.6,1.3,1.3c0,0.2-0.1,0.4-0.1,0.5c-0.1,0.2-0.2,0.5,0.3,0.5h1.8V21.2
		c0-3.1,0.2-6.8,2-10.4l0.5-1l0.5,1c1.7,3.7,2,7.3,2,10.4v22.7h1.8c0.5,0,0.4-0.3,0.3-0.5c-0.1-0.1-0.1-0.3-0.1-0.5
		c0-0.7,0.6-1.3,1.3-1.3c0.8,0,1.4,0.7,1.4,1.4c0,0.9-0.7,1.9-2.4,1.9h-3c0.4,1.1,0.7,2.7,0.7,4.3c0,2.1-0.4,4-1,5.1
		c2.2-0.4,3.9-0.9,5.5-1.8l0.1-0.1l0.4,1l-0.1,0.1c-1.4,0.8-2.8,1.1-4.5,1.5c0,0-1.2,0.2-2,0.4c0.2,0.2,0.3,0.5,0.3,0.9
		c0,0.7-0.5,1.2-1.2,1.2c-0.7,0-1.3-0.5-1.3-1.2c0-0.4,0.2-0.7,0.4-0.9c-0.9-0.2-2.2-0.4-2.2-0.4c-1.6-0.4-2.9-0.7-4.3-1.5l-0.1-0.1
		l0.4-1l0.1,0.1c1.6,0.9,3.3,1.4,5.6,1.8c-0.7-1.2-1.1-3-1.1-5.2c0-1.7,0.3-3.2,0.7-4.3h-3c-1.6,0-2.3-1-2.3-1.9
		C116.6,42.2,117.2,41.5,118,41.5"/>
	<path fill="#FFFFFF" d="M113.3,49.4c0,0.1,0,0.1,0,0.2c-0.2-0.1-0.5-0.2-0.7-0.3c-0.6-0.6-1.1-1.3-1.3-2.1
		c-0.2-0.6-0.3-1.2-0.3-1.8c0-0.5,0.2-1,0.3-1.6c0.6,0.5,1.2,1.1,1.6,1.8C112.7,47,112.8,48.3,113.3,49.4"/>
	<path fill="#FFFFFF" d="M110.2,24.9c-1.4,0-2.6,0.4-3.7,1.1c0,0-0.1,0-0.1,0c0.1-0.3,0.1-0.6,0.2-0.8c0.5-0.7,1.1-1.3,1.9-1.7
		c1-0.5,2.2-0.7,3.3-0.6C111.3,23.7,110.8,24.4,110.2,24.9"/>
	<path fill="#FFFFFF" d="M110,46.5c0,0-0.1,0.1-0.1,0.1c-0.2-0.2-0.5-0.3-0.7-0.5c-0.5-0.7-0.8-1.5-0.9-2.4c0-0.2,0-0.3,0-0.4
		c0-1,0.3-1.9,0.8-2.8c0.6,0.7,1,1.4,1.2,2.2C109.9,44.1,109.8,45.3,110,46.5"/>
	<path fill="#FFFFFF" d="M106.4,40c0.2-1.1,0.8-2.1,1.6-3c0.4,0.8,0.6,1.6,0.7,2.4c-0.8,1.1-1.2,2.3-1.3,3.5c0,0.1-0.1,0.1-0.1,0.1
		c-0.2-0.2-0.4-0.4-0.6-0.6c-0.2-0.6-0.3-1.1-0.3-1.7C106.3,40.5,106.4,40.3,106.4,40"/>
	<path fill="#FFFFFF" d="M105.6,38.9c0,0-0.1,0.1-0.1,0.1c-0.1-0.3-0.3-0.5-0.4-0.8c0-0.1-0.1-0.2-0.1-0.3c0-0.7,0.1-1.4,0.4-2.1
		c0.4-1,1.2-1.8,2.2-2.5c0.1,0.4,0.2,0.9,0.2,1.3c0,0.4,0,0.8-0.1,1.1C106.7,36.7,106,37.8,105.6,38.9"/>
	<path fill="#FFFFFF" d="M106.4,27.3c0.8-0.7,1.9-1.1,3.1-1.3c-0.2,0.8-0.6,1.6-1.1,2.2c-1.3,0.4-2.4,1-3.2,1.9c-0.1,0-0.1,0-0.2,0
		c0-0.3,0-0.5,0-0.8C105.3,28.6,105.8,27.8,106.4,27.3"/>
	<path fill="#FFFFFF" d="M105.4,31.5c0.6-0.9,1.6-1.5,2.8-2c0,0.9-0.2,1.7-0.6,2.5c-1.2,0.6-2.1,1.5-2.8,2.6c-0.1,0-0.1,0-0.1,0.1
		c-0.1-0.3-0.1-0.5-0.2-0.8C104.6,32.9,104.9,32.2,105.4,31.5"/>
	<path fill="#FFFFFF" d="M105.1,41.4c-0.5-0.2-1-0.4-1.6-0.5c-0.5-0.3-1-0.6-1.3-1.1c-0.8-0.9-1.2-2-1.3-3.3
		c1.2,0.3,2.3,0.9,3.1,1.7C104.6,39.2,105,40.3,105.1,41.4"/>
	<path fill="#FFFFFF" d="M105.4,42.8L105.4,42.8c0.9,0.7,1.6,1.6,2,2.7c-0.6-0.1-1.2-0.2-1.9-0.2c-0.5-0.2-1-0.4-1.4-0.7
		c-1-0.7-1.6-1.7-2-3C103.4,41.8,104.5,42.1,105.4,42.8"/>
	<path fill="#FFFFFF" d="M108.1,46.8L108.1,46.8c1,0.4,1.9,1.2,2.6,2.2c-0.6,0-1.2,0.1-1.8,0.3c-0.6,0-1.1-0.2-1.7-0.4
		c-1.1-0.4-2-1.2-2.6-2.3C105.8,46.3,107,46.4,108.1,46.8"/>
	<path fill="#FFFFFF" d="M111.6,50.1L111.6,50.1c1.2,0.2,2.2,0.8,3.1,1.7c-1.1,0.5-2.3,0.8-3.4,0.6c-1.1-0.2-2.2-0.8-3.1-1.6
		C109.3,50.2,110.5,49.9,111.6,50.1"/>
	<path fill="#FFFFFF" d="M114.7,49.7c-0.5-0.9-0.8-1.9-0.8-3c0-0.1,0-0.2,0-0.3c1.1,0.5,2.1,1.2,2.7,2.1c0.6,0.9,0.9,1.9,0.9,3.1
		c0,0.1,0,0.2,0,0.3C116.2,51.4,115.3,50.7,114.7,49.7"/>
	<path fill="#FFFFFF" d="M112.7,17.6c0.2-0.4,0.4-0.9,0.5-1.3c0.1-0.1,0.2-0.2,0.4-0.3c1-0.7,2.2-1,3.4-1.1
		c-0.4,1.2-1.1,2.2-2.1,2.9c-0.9,0.6-1.9,0.9-3,1C112.2,18.5,112.5,18,112.7,17.6L112.7,17.6z"/>
	<path fill="#FFFFFF" d="M109.8,16.2c0.5-1.1,1.4-1.9,2.5-2.5c0,0.3,0.1,0.6,0.1,0.9c0,0.9-0.2,1.8-0.6,2.6c-0.5,1-1.3,1.8-2.3,2.4
		c0-0.6,0-1.3-0.2-1.9C109.4,17.1,109.5,16.6,109.8,16.2"/>
	<path fill="#FFFFFF" d="M109,21.4c0.6-0.6,1.4-1,2.2-1.2c1-0.3,2.2-0.2,3.4,0.3c-0.6,0.6-1.3,1.2-2,1.5c-1.3-0.3-2.5-0.2-3.7,0.2
		c-0.1,0-0.1,0-0.2,0C108.8,21.9,108.9,21.6,109,21.4"/>
	<path fill="#FFFFFF" d="M106,19.9c0.3-1.2,1-2.2,1.9-3c0.3,0.7,0.5,1.5,0.5,2.3c0,0.4,0,0.9-0.1,1.3c-0.3,1.1-0.9,2-1.8,2.8
		c-0.1-0.6-0.3-1.2-0.6-1.8c0-0.1,0-0.3,0-0.4C105.9,20.7,105.9,20.3,106,19.9"/>
	<path fill="#FFFFFF" d="M103.4,24.3c0-1.2,0.4-2.3,1.1-3.3c0.7,1.1,1.1,2.2,1.1,3.3v0.1c0,1.1-0.4,2.2-1,3.2
		c-0.2-0.5-0.5-1.1-0.9-1.5C103.5,25.5,103.4,24.9,103.4,24.3L103.4,24.3z"/>
	<path fill="#FFFFFF" d="M102,25.8c1,0.9,1.7,1.8,2,3c0.1,0.4,0.2,0.9,0.2,1.4c0,0.7-0.2,1.3-0.4,2c-0.4-0.5-0.8-1-1.3-1.3
		c-0.3-0.5-0.6-1-0.7-1.5c-0.1-0.4-0.2-0.9-0.2-1.3C101.5,27.4,101.7,26.6,102,25.8"/>
	<path fill="#FFFFFF" d="M100.8,31.1c1.1,0.6,2.1,1.4,2.6,2.5c0.4,0.8,0.6,1.7,0.6,2.7c0,0.2,0,0.4-0.1,0.7c-0.5-0.4-1-0.7-1.6-1
		c-0.4-0.4-0.8-0.8-1-1.3c-0.5-0.8-0.7-1.7-0.7-2.7C100.7,31.7,100.7,31.4,100.8,31.1"/>
	<path fill="#206CA9" d="M125.2,21.2c0-2.6-0.2-5.6-1.4-8.6v29.9h1.4V21.2z"/>
	<path fill="#FFFFFF" d="M68.8,45.7c2.4,0.6,4.9,1.2,7.4,1.1V16v-0.6c-2.7,0.2-5.3-0.5-7.8-1.1c-2.2-0.5-4.3-1.1-6.2-1
		c-2.6,0.1-4,0.8-4.9,1.6V16v30c1.3-0.9,2.9-1.3,4.9-1.3C64.3,44.6,66.5,45.1,68.8,45.7"/>
	<path fill="#FFFFFF" d="M51,44.7c2,0.1,3.5,0.5,4.8,1.3V16v-1.1C55,14,53.6,13.3,51,13.2c-1.9-0.1-3.9,0.4-6.1,1
		c-2.5,0.7-5.1,1.3-7.8,1.1V16v30.8c2.5,0.2,5-0.4,7.4-1.1C46.8,45.1,48.9,44.6,51,44.7"/>
	<path fill="#FFFFFF" d="M80.2,16h-2l0.2,0.7c0,0.1,0,0.1,0,0.2v32.3c-1.6,0-19.1,0-20,0c-0.4,0.6-0.8,0.7-1.7,0.7
		c-0.8,0-1.2-0.1-1.6-0.7c-0.9,0-17,0-20.2,0V16.9c0-0.1,0-0.2,0-0.2L35,16h-2.7v35.8h21.6c0.5,0.9,1.4,1.6,2.6,1.6
		c1.3,0,2.3-0.7,2.7-1.6h21.6V16H80.2z"/>
	<path fill="#206CA9" d="M62.2,20.8c-1.2,0-2.1,0.2-3,0.5v1.6c0.8-0.3,1.8-0.5,3.1-0.6c1.8-0.1,3.9,0.5,6.1,1c1.9,0.5,3.8,1,5.8,1.1
		v-1.5c-1.9-0.1-3.7-0.6-5.5-1.1C66.5,21.3,64.3,20.7,62.2,20.8"/>
	<path fill="#206CA9" d="M62.2,39c-1.2,0-2.1,0.2-3,0.5v1.6c0.8-0.3,1.8-0.5,3.1-0.6c1.8-0.1,3.9,0.4,6.1,1c1.9,0.5,3.8,1,5.8,1.1
		v-1.5c-1.9-0.1-3.7-0.6-5.5-1.1C66.5,39.5,64.3,38.9,62.2,39"/>
	<path fill="#206CA9" d="M62.2,35.3c-1.2,0-2.1,0.2-3,0.5v1.6c0.8-0.3,1.8-0.5,3.1-0.6c1.8-0.1,3.9,0.5,6.1,1c1.9,0.5,3.8,1,5.8,1.1
		v-1.5c-1.9-0.1-3.7-0.6-5.5-1.1C66.5,35.8,64.3,35.3,62.2,35.3"/>
	<path fill="#206CA9" d="M62.2,24.4c-1.2,0-2.1,0.2-3,0.5v1.6c0.8-0.3,1.8-0.5,3.1-0.6c1.8-0.1,3.9,0.5,6.1,1c1.9,0.5,3.8,1,5.9,1.1
		v-1.5c-1.9-0.1-3.8-0.6-5.5-1.1C66.4,24.9,64.3,24.3,62.2,24.4"/>
	<path fill="#206CA9" d="M62.2,31.7c-1.2,0-2.1,0.2-3,0.4v1.6c0.8-0.3,1.7-0.5,3.1-0.5c1.9-0.1,3.9,0.5,6.1,1c1.9,0.4,3.8,1,5.9,1.1
		v-1.5c-1.9-0.1-3.8-0.6-5.5-1.1C66.4,32.2,64.3,31.7,62.2,31.7"/>
	<path fill="#206CA9" d="M68.8,18.2c-2.3-0.6-4.5-1.1-6.6-1c-1.1,0-2.1,0.2-3,0.5v1.6c0.8-0.3,1.8-0.5,3.1-0.6
		c1.8-0.1,3.9,0.5,6.1,1c1.9,0.5,3.8,1,5.9,1.1v-1.5C72.4,19.1,70.5,18.7,68.8,18.2"/>
	<path fill="#206CA9" d="M44.5,36.4c-1.8,0.5-3.6,0.9-5.5,1.1V39c2.1-0.1,3.9-0.6,5.9-1.1c2.2-0.5,4.2-1.1,6.1-1
		c1.3,0,2.3,0.3,3.1,0.6v-1.6c-0.9-0.3-1.9-0.4-3-0.5C48.9,35.3,46.8,35.8,44.5,36.4"/>
	<path fill="#206CA9" d="M44.5,32.8c-1.8,0.5-3.6,0.9-5.5,1.1v1.5c2.1-0.1,4-0.6,5.9-1.1c2.2-0.6,4.2-1.1,6.1-1
		c1.3,0,2.3,0.2,3.1,0.5v-1.6c-0.9-0.3-1.9-0.4-3-0.4C49,31.7,46.8,32.2,44.5,32.8"/>
	<path fill="#206CA9" d="M62.2,28.1c-1.2,0-2.1,0.2-3,0.5v1.6c0.8-0.3,1.8-0.5,3.1-0.6c1.8-0.1,3.9,0.4,6.1,1
		c1.9,0.5,3.8,0.9,5.8,1.1v-1.5c-1.9-0.1-3.7-0.6-5.5-1.1C66.5,28.5,64.3,28,62.2,28.1"/>
	<path fill="#206CA9" d="M44.5,40.1c-1.8,0.5-3.6,0.9-5.5,1.1v1.5c2-0.1,3.9-0.6,5.9-1.1c2.2-0.5,4.2-1.1,6.1-1
		c1.3,0,2.3,0.2,3.1,0.6v-1.6c-0.9-0.3-1.9-0.4-3-0.5C48.9,38.9,46.8,39.5,44.5,40.1"/>
	<path fill="#206CA9" d="M44.5,18.2c-1.8,0.5-3.6,0.9-5.5,1.1v1.5c2-0.1,3.9-0.6,5.9-1.1c2.2-0.6,4.2-1.1,6.1-1
		c1.3,0.1,2.3,0.3,3.1,0.6v-1.6c-0.9-0.3-1.9-0.4-3-0.5C48.9,17.1,46.8,17.6,44.5,18.2"/>
	<path fill="#206CA9" d="M44.5,21.8c-1.8,0.5-3.6,1-5.5,1.1v1.5c2-0.1,3.9-0.6,5.9-1.1c2.2-0.6,4.2-1.1,6.1-1
		c1.3,0.1,2.3,0.3,3.1,0.6v-1.6c-0.9-0.3-1.9-0.4-3-0.5C48.9,20.7,46.8,21.3,44.5,21.8"/>
	<path fill="#206CA9" d="M44.5,29.1c-1.8,0.5-3.6,0.9-5.5,1.1v1.5c2.1-0.1,3.9-0.6,5.9-1.1c2.2-0.6,4.2-1.1,6.1-1
		c1.3,0,2.3,0.3,3.1,0.6v-1.6c-0.9-0.3-1.9-0.5-3-0.5C48.9,28,46.8,28.5,44.5,29.1"/>
	<path fill="#206CA9" d="M44.5,25.5c-1.8,0.5-3.7,0.9-5.5,1.1V28c2.1-0.1,4-0.6,5.9-1.1c2.2-0.6,4.2-1.1,6.1-1
		c1.3,0,2.3,0.3,3.1,0.6v-1.6c-0.9-0.3-1.9-0.4-3-0.5C49,24.3,46.8,24.9,44.5,25.5"/>
	<polygon fill="#FFFFFF" points="72.5,127.2 72.5,131.8 68.8,128.9 65.1,131.8 65,127.2 60.5,126 64.1,123.1 62.2,118.8 66.7,119.8 
		68.8,115.7 70.8,119.8 75.5,118.8 73.5,123.1 77,126 	"/>
	<polygon fill="#FFFFFF" points="97.8,159.7 93.2,158 91.2,162.5 89.2,158 84.5,159.7 86.3,155.1 81.8,153 86.3,151 84.5,146.3 
		89.2,148 91.2,143.5 93.2,148 97.8,146.3 96.1,151 100.6,153 96.1,155.1 	"/>
	<polygon fill="#FFFFFF" points="84.4,97.7 89,98.7 91,94.5 93.1,98.7 97.7,97.7 95.8,101.9 99.3,104.9 94.8,106 94.7,110.7 
		91,107.8 87.4,110.7 87.3,106 82.8,104.9 86.4,101.9 	"/>
	<polygon fill="#FFFFFF" points="102.8,135.2 99.1,133.4 95.6,135.2 96.3,131.2 93.4,128.4 97.4,127.8 99.1,124.3 101,127.8 
		104.9,128.4 102.1,131.2 	"/>
	<polygon fill="#FFFFFF" points="117.4,120.6 113.2,120.6 111.3,124.1 109.3,120.6 105.2,120.6 107.3,117.1 105.2,113.6 
		109.3,113.7 111.3,110.1 113.2,113.7 117.4,113.6 115.2,117.1 	"/>
	<path fill="#FFFFFF" d="M91,77.5l51.1,45.8c3.3-6.4,5.8-12.6,7.7-18.6L91,52l-58.6,52.7c1.9,5.9,4.3,12.2,7.7,18.6L91,77.5z"/>
	<path fill="#FFFFFF" d="M170.2,138.7l2.8-17l-7.9-7.1c0.8-2.2,1.6-4.4,2.3-6.8c2.4,2.1,10.3,9.3,11.5,10.3
		C176.5,125.4,173.3,132.6,170.2,138.7"/>
	<path fill="#FFFFFF" d="M166.4,144.4c-0.8-0.7-1.9-1.7-3.1-2.8c0,0,0,0,0-0.1c1.8-3.1,3.5-6.2,5-9.4L166.4,144.4z"/>
	<path fill="#FFFFFF" d="M3.3,118.1c1.1-1,9.1-8.2,11.4-10.3c0.7,2.3,1.5,4.5,2.3,6.7l-7.9,7.1l2.7,17
		C8.8,132.5,5.7,125.3,3.3,118.1"/>
	<path fill="#FFFFFF" d="M15.7,144.4l-1.9-12.3c1.5,3.3,3.2,6.4,5.1,9.5C17.7,142.7,16.5,143.7,15.7,144.4"/>
	<path fill="#FFFFFF" d="M158.7,143.9c-14.6,23.3-35.3,40.4-59.7,49.3c0,0-7.1,2.5-7.9,2.9c-0.8-0.3-7.8-2.9-7.8-2.9
		c-24.5-8.9-45.1-26-59.7-49.3c-4.2-6.7-7.8-13.9-10.7-21.5c1.3-1.1,8.9-8,11.1-10c3.1,8.6,6.8,16.7,11.4,24.1
		c13,20.7,31.1,35.8,52.7,43.6c0,0,3.1,1.1,3.1,1.1l3.2-1.1c21.5-7.9,39.7-23,52.6-43.6c4.7-7.4,8.4-15.5,11.5-24.1
		c2.2,2,9.8,8.9,11.1,10C166.4,130,162.8,137.3,158.7,143.9"/>
	<path fill="#206CA9" d="M25.3,133.3l3.2-0.7l0,0l-2.2,2.4L25.3,133.3z M28.1,136.2l2.3-2.6l-0.2-0.8c-0.4-0.4-0.9-0.8-1.3-1.3
		c-2.4,0.4-6.2,1-7.9,1.1l-0.5-0.5l-0.4,0.3c0.2,0.4,0.4,0.8,0.7,1.2c0.3,0.5,0.5,1,0.7,1.4l0.4-0.3l-0.2-0.7l2.5-0.6l1.3,2.4
		c-0.5,0.6-1.3,1.4-1.8,1.9l-0.5-0.6l-0.5,0.3c0.3,0.6,0.7,1.1,1,1.7c0.3,0.5,0.6,1.1,0.9,1.7l0.5-0.3l-0.2-0.7
		C25.5,139.2,27,137.5,28.1,136.2"/>
	<path fill="#206CA9" d="M39.5,148.2l0.4-0.3c-0.3-0.4-0.6-0.8-0.9-1.2c-0.3-0.4-0.6-0.8-0.8-1.2l-0.5,0.3l0.3,0.7
		c-1.2,1-4.2,3.2-4.2,3.2l0,0c0.8-2.1,1.7-4.6,2.4-6.8c-0.3-0.4-0.6-0.7-0.8-1.1c-0.3-0.4-0.5-0.8-0.7-1.1l-0.4,0.3l0.3,0.7
		c-0.5,0.5-1.1,0.9-1.8,1.4l-2,1.4c-0.7,0.5-1.3,0.9-2,1.3l-0.6-0.5l-0.4,0.3c0.3,0.4,0.6,0.8,0.9,1.2c0.3,0.4,0.5,0.8,0.8,1.2
		l0.4-0.3l-0.3-0.7c1.2-1,2.9-2.2,4.3-3.2l0,0c-0.9,2.2-1.7,4.5-2.6,6.9c0.2,0.2,0.4,0.5,0.6,0.8c0.2,0.2,0.4,0.5,0.5,0.7
		c0.6-0.5,1.5-1.2,2.5-1.9l1.9-1.4c0.7-0.5,1.4-0.9,2-1.3L39.5,148.2z"/>
	<path fill="#206CA9" d="M40.1,154.9c-2,1.8-1.7,4.4-0.2,6.1c1.1,1.1,2.2,1.8,4.2,2l0.1-1c-1.1-0.2-1.9-0.6-2.4-1.2
		c-1.2-1.3-1.3-3.1,0.2-4.5c1.5-1.4,3-0.9,4,0.1c0.4,0.5,0.8,1.3,1,1.9l-0.4,0.5l0.4,0.5c0.5-0.4,1.2-0.8,1.8-1.1
		c-0.4-1-0.9-1.8-1.7-2.6C44.9,153.5,42,153,40.1,154.9"/>
	<path fill="#206CA9" d="M55.7,169.7c-1.2,1.4-2.8,1.8-4.1,0.8c-1.2-1-1.1-2.7,0.1-4.1c1.2-1.4,2.8-1.8,4.1-0.8
		C56.9,166.6,56.8,168.3,55.7,169.7 M56.5,164.7c-2.3-2-5-1.6-6.6,0.2c-1.7,2.2-1.3,4.6,1,6.5c2.4,2,5,1.6,6.6-0.2
		C59.3,169.1,58.8,166.6,56.5,164.7"/>
	<path fill="#206CA9" d="M68,175.9c-0.5,0.8-1.4,0.8-2.4,0.2c-0.2-0.1-0.5-0.3-0.6-0.5l0.4-0.6c0.4-0.6,0.7-1.1,1-1.4
		c0.3,0.1,0.6,0.3,1,0.5C68.2,174.6,68.4,175.2,68,175.9 M68.6,173.6c-0.5-0.3-1-0.6-1.5-0.9c-0.5-0.3-1-0.6-1.5-0.9
		c-0.4-0.3-0.8-0.6-1.3-0.8l-0.3,0.5l0.6,0.5c-0.3,0.7-0.7,1.3-1.2,2l-1.2,2.1c-0.5,0.7-0.9,1.3-1.4,1.9l-0.7-0.3l-0.3,0.5
		c0.6,0.3,1.1,0.7,1.7,1c0.5,0.3,1.1,0.7,1.6,1.1l0.3-0.5l-0.5-0.5c0.3-0.7,0.6-1.3,1.1-2.1l0.4-0.7l0.5,0.3
		c0.1,1.3,0.3,3.4,0.4,4.9c0.8,0.4,1.6,0.8,2.3,1.2l0.3-0.5l-0.2-0.3c-0.1-0.6-0.5-3.6-0.7-4.4c1.2,0.5,2.4,0.3,3-0.7
		C70.6,176.1,70.6,174.8,68.6,173.6"/>
	<path fill="#206CA9" d="M78.6,183.8l-1.9-0.9l2.2-2.4l0,0L78.6,183.8z M81.1,180.2l-0.6-0.5c-0.6-0.1-1.2-0.2-1.8-0.3
		c-1.7,1.8-4.3,4.5-5.7,5.6l-0.7-0.2l-0.2,0.5c0.4,0.2,0.9,0.3,1.3,0.5c0.5,0.2,1,0.5,1.5,0.7l0.2-0.5l-0.6-0.4l1.7-1.9l2.4,1.1
		c0,0.7-0.2,1.9-0.3,2.6l-0.7-0.2l-0.2,0.5c0.6,0.3,1.2,0.5,1.9,0.8c0.6,0.3,1.2,0.6,1.7,0.8l0.2-0.5l-0.6-0.4
		c0-0.8,0.1-3.1,0.3-4.7L81.1,180.2z"/>
	<path fill="#206CA9" d="M105.3,186.8c-0.4-0.6-0.7-1.3-1-2.1l-1-2.2c-0.4-0.8-0.6-1.5-0.9-2.2l0.7-0.4l-0.2-0.5
		c-0.6,0.3-1.2,0.6-1.8,0.8c-0.6,0.3-1.2,0.5-1.8,0.8l0.2,0.5l0.8-0.2c0.4,0.6,0.7,1.3,1,2.1l1,2.2c0.4,0.8,0.6,1.5,0.9,2.2
		l-0.6,0.4l0.2,0.5c0.6-0.3,1.2-0.6,1.8-0.8c0.5-0.3,1.2-0.5,1.8-0.8l-0.2-0.5L105.3,186.8z"/>
	<path fill="#206CA9" d="M120.6,178.5c-0.4-0.6-0.8-1.2-1.3-2l-1.2-2.1c-0.5-0.8-0.8-1.4-1.1-2l0.6-0.5l-0.3-0.5
		c-0.5,0.3-1,0.6-1.5,0.9c-0.5,0.3-1,0.6-1.5,0.9c0.3,1.1,1.1,5.3,1.3,6.2c-1-0.7-4-3.3-4.8-4c-0.5,0.3-1,0.6-1.5,0.9
		c-0.5,0.3-1,0.6-1.5,0.9l0.3,0.5l0.7-0.2l0.6,1c0.6,1,2.4,4.2,2.9,5.2l-0.6,0.5l0.3,0.5c0.4-0.3,0.8-0.5,1.3-0.8
		c0.4-0.3,0.9-0.5,1.3-0.7l-0.3-0.5l-0.8,0.3c-0.4-0.6-0.8-1.2-1.3-2l-0.7-1.2c-0.6-1-1-1.8-1.2-2.1l0,0c3.1,2.6,4.7,3.9,5.6,4.7
		l1.1-0.7l-1.5-7.2l0,0c0.2,0.3,0.7,1.1,1.3,2.1l0.7,1.2c0.5,0.8,0.8,1.4,1,2.1l-0.5,0.5l0.2,0.5c0.5-0.3,1.1-0.7,1.6-1
		c0.6-0.3,1.2-0.7,1.7-1l-0.3-0.5L120.6,178.5z"/>
	<path fill="#206CA9" d="M128.8,172.4c-0.5-0.5-1-1.1-1.6-1.8l-1.1-1.4c-0.5-0.6-1-1.3-1.4-2c0.1-0.2,0.4-0.5,0.6-0.7
		c0.8-0.7,1.7-0.6,2.2,0.1c0.6,0.7,0.7,1.5-0.1,2.2c-0.2,0.1-0.4,0.3-0.5,0.3l0.4,1c0.4-0.2,0.7-0.5,1.1-0.7
		c1.8-1.5,1.9-3.3,0.9-4.5c-1-1.2-2.3-1.3-3.8,0c-0.3,0.3-0.7,0.7-1.2,1.1c-0.5,0.5-1,0.9-1.4,1.2c-0.4,0.3-0.9,0.7-1.4,1.1l0.3,0.4
		l0.7-0.4c0.5,0.5,1,1.1,1.6,1.7l1.4,1.9c0.6,0.7,1,1.3,1.4,1.9l-0.5,0.6l0.3,0.4c0.5-0.4,1-0.9,1.5-1.3c0.5-0.4,1-0.8,1.8-1.4
		l-0.4-0.4L128.8,172.4z"/>
	<path fill="#206CA9" d="M135.9,161.4l-1.6-2.9l0,0l3,1.4L135.9,161.4z M142.3,159.8c-0.7-0.2-2.9-1.1-4.4-1.9l-3.2-1.5l-0.7,0.4
		c-0.3,0.5-0.6,1-0.9,1.6c1.1,2.2,2.8,5.6,3.4,7.3l-0.4,0.6l0.4,0.4c0.3-0.3,0.6-0.7,0.9-1c0.4-0.4,0.8-0.8,1.2-1.2l-0.4-0.4
		l-0.6,0.4l-1.3-2.2l1.9-2c0.7,0.3,1.6,0.8,2.2,1.2l-0.4,0.6l0.4,0.4c0.5-0.5,0.9-1,1.4-1.5c0.5-0.5,0.9-0.9,1.4-1.3l-0.4-0.4
		L142.3,159.8z"/>
	<path fill="#206CA9" d="M145.4,149.5c-0.2,0.2-0.4,0.4-0.5,0.5l-0.6-0.4c-0.6-0.4-1-0.8-1.3-1.1c0.2-0.3,0.3-0.5,0.6-1
		c0.6-0.8,1.2-0.9,1.8-0.5C146.2,147.8,146.1,148.6,145.4,149.5 M151.7,148.1c-0.6,0.1-3.7,0.2-4.5,0.2c0.6-1.1,0.5-2.3-0.4-3.1
		c-0.8-0.7-2.1-0.8-3.5,1.1c-0.4,0.5-0.7,1-1.1,1.5c-0.4,0.5-0.7,0.9-1,1.4c-0.3,0.4-0.6,0.8-1,1.2l0.4,0.3l0.6-0.5
		c0.6,0.4,1.2,0.8,1.9,1.4l1.9,1.5c0.7,0.5,1.2,1,1.7,1.5l-0.4,0.7l0.4,0.3c0.4-0.5,0.8-1.1,1.2-1.6c0.4-0.5,0.8-1,1.2-1.5l-0.5-0.3
		l-0.6,0.5c-0.6-0.4-1.2-0.8-2-1.3l-0.5-0.5l0.3-0.5c1.2,0,3.4,0.1,4.9,0.1c0.4-0.7,0.9-1.5,1.5-2.1l-0.4-0.3L151.7,148.1z"/>
	<path fill="#206CA9" d="M157.1,139c-0.8,1.4-2.5,1.5-4,0.6c-1.6-0.9-2.3-2.5-1.5-3.9c0.8-1.4,2.5-1.5,4-0.6
		C157.3,136,158,137.6,157.1,139 M156.9,133.1c-2.5-1.4-4.7-0.6-6.3,2c-1.6,2.7-0.8,5.2,1.3,6.5c2.3,1.4,4.7,0.6,6.3-2
		C159.8,136.9,159,134.4,156.9,133.1"/>
	<path fill="#206CA9" d="M91,185.7c-1,0-1.8,0.9-1.8,1.9c0,1.1,0.8,1.9,1.8,1.9c1.1,0,1.9-0.9,1.9-1.9C93,186.6,92.1,185.7,91,185.7
		"/>
	<path fill="#206CA9" d="M21.5,126.2c1,0,1.9-0.9,1.9-1.9c0-1.1-0.9-1.9-1.9-1.9c-1,0-1.9,0.9-1.9,1.9
		C19.6,125.4,20.5,126.2,21.5,126.2"/>
	<path fill="#206CA9" d="M160.9,126.2c1,0,1.9-0.9,1.9-1.9c0-1.1-0.9-1.9-1.9-1.9c-1,0-1.9,0.9-1.9,1.9
		C159.1,125.4,160,126.2,160.9,126.2"/>
	<path fill="#010202" d="M454,8.2c-28.8,0-48.9,21.2-48.9,56.9c0,42.7,25.4,61.9,49.3,61.9c28.8,0,48-22.2,48-57.3
		C502.8,32.2,483.2,8.2,454,8.2 M452.7,136c-37.8-0.8-69.6-29.8-68.6-69.9c1-31.6,26.3-67.4,72.5-66c32.1,0.6,68.2,24.7,67.2,69.1
		C522.8,113.6,485.2,137,452.7,136"/>
	<path fill="#010202" d="M1008.1,3.6V1.8h-37.8v1.9c7.5,0.5,9.5,2,9.5,12.6v46.1h-67.8V16.2c0-10.6,2.1-12.1,9.5-12.6V1.8h-37.8v1.9
		c7.5,0.5,9.5,2,9.5,12.6v103.5c0,10.6-2.1,12.1-9.5,12.6v1.9h37.8v-1.9c-7.5-0.5-9.5-2-9.5-12.6V70.3h67.8v49.4
		c0,10.6-2.1,12.1-9.5,12.6v1.9h37.8v-1.9c-7.5-0.5-9.5-2-9.5-12.6V16.2C998.6,5.6,1000.7,4.1,1008.1,3.6"/>
	<path fill="#010202" d="M533.8,1.8v1.9c7.3,0.4,9.3,1.2,9.3,8.8v107.3c0,10.6-2.1,12.1-9.5,12.6v1.9h28.5v-1.9
		c-7.5-0.5-9.6-2-9.6-12.6V23.4c0,1.7,73.8,91.5,89.7,110.8h3V12.5c0-7.7,2.1-8.4,9.3-8.8V1.8h-28v1.9c7.3,0.4,9.4,1.2,9.4,8.8v84.2
		L559,1.8H533.8z"/>
	<path fill="#010202" d="M691.2,86.5c8.6-21,21.8-54.5,21.8-54.5s11.9,30,22,54.5H691.2z M719.6,1.8H717
		c-6.7,15.9-37.7,89.3-48.5,114.6c-1.9,4.3-4.9,11.4-7.1,13.8c-1.8,1.9-3.4,2.1-5,2.2v1.9h25.2v-1.9c-2,0-6.3,0-6.6-3.8
		c0-1.2,0.2-2.5,0.7-3.9c0.8-2.4,5.8-15.2,12.3-29.8h50.4c5,12.3,9.5,22.9,11.6,27.5c0.6,1.4,1.9,4.6,1.9,6.2c0,3.7-3.2,3.8-6.9,3.8
		v1.9h35.2v-1.9c-4.3-0.3-5.7-1.4-8.9-8.5L719.6,1.8z"/>
	<path fill="#010202" d="M229.9,1.8v1.9c4.1,0.2,6.5,0.6,7.8,2.2c0.4,0.6,0.8,1.3,1,2v0c0.2,0.7,0.3,1.4,0.4,2.1
		c0.1,0.8,0.1,1.6,0.1,2.5v107.3c0,10.6-2.1,12.1-9.5,12.6v1.9H258v-1.9c-7.5-0.5-9.5-2-9.5-12.6V27.9c0-1.8-0.4-5.1-0.4-5.1
		l1.8,5.1l45.7,105.8h2.8l46.7-109l1.4-4.5c0,0-0.4,2.1-0.4,4.1v95.4c0,10.6-2.1,12.1-9.5,12.6v1.9h37.8v-1.9
		c-7.5-0.5-9.5-2-9.5-12.6V12.5c0-7.7,2.1-8.4,9.3-8.8V1.8h-29.4l-42.3,99.9L259.5,1.8H229.9z"/>
	<path fill="#010202" d="M786.8,125.3c8.9,5.3,22.1,10.9,36,10.9c0.3,0,0.5,0,0.8,0c20.7-0.3,42.5-15.6,42.5-39.7
		c0-26.1-18.3-32.1-36.8-41.7c-18.7-9.2-26.5-13.8-26.5-26.1c0-8.4,5.1-20.6,21.6-20.6c5.3,0,9.9,1.3,13.9,3.4
		c13.4,7.4,14.1,18,15.8,24.6h2l-1.1-29.5c-8.5-3.6-15.3-5.2-20-5.9c-2.9-0.4-5.5-0.5-7.8-0.5c-18.5,0-40.3,11.1-40.3,34.5
		c0,16,9.5,25.9,28.4,35.3c18.7,9.5,32.9,13.3,32.9,31.9c0,9.6-5.4,26.1-26.5,26.1c-8.4,0-15.1-2.9-20.4-7.3
		c-12.5-11.8-12.2-21.1-13.1-24.6h-1.9L786.8,125.3z"/>
</g>
</svg>
