<?xml version="1.0" encoding="utf-8"?>
<!-- Generator: Adobe Illustrator 24.1.2, SVG Export Plug-In . SVG Version: 6.00 Build 0)  -->
<svg version="1.1" id="Layer_1" xmlns="http://www.w3.org/2000/svg" xmlns:xlink="http://www.w3.org/1999/xlink" x="0px" y="0px"
	 viewBox="0 0 1056 209" style="enable-background:new 0 0 1056 209;" xml:space="preserve">
<style type="text/css">
	.st0{display:none;}
	.st1{display:inline;fill:#878787;}
	.st2{fill:#002D74;}
	.st3{clip-path:url(#SVGID_2_);fill-rule:evenodd;clip-rule:evenodd;fill:#002D74;}
	.st4{clip-path:url(#SVGID_4_);fill:#002D74;}
	.st5{clip-path:url(#SVGID_6_);fill:#002D74;}
	.st6{clip-path:url(#SVGID_8_);fill:#002D74;}
	.st7{clip-path:url(#SVGID_10_);fill:#002D74;}
	.st8{clip-path:url(#SVGID_12_);fill:#002D74;}
	.st9{clip-path:url(#SVGID_14_);fill:#002D74;}
	.st10{clip-path:url(#SVGID_16_);fill:#002D74;}
	.st11{clip-path:url(#SVGID_18_);fill:#002D74;}
	.st12{clip-path:url(#SVGID_20_);fill:#002D74;}
	.st13{clip-path:url(#SVGID_22_);fill:#002D74;}
	.st14{clip-path:url(#SVGID_24_);fill:#002D74;}
	.st15{clip-path:url(#SVGID_26_);fill:#002D74;}
	.st16{clip-path:url(#SVGID_28_);fill:#002D74;}
	.st17{clip-path:url(#SVGID_30_);fill:#002D74;}
	.st18{clip-path:url(#SVGID_32_);fill:#002D74;}
	.st19{clip-path:url(#SVGID_34_);fill:#002D74;}
	.st20{clip-path:url(#SVGID_36_);fill:#002D74;}
	.st21{clip-path:url(#SVGID_38_);fill:#002D74;}
	.st22{clip-path:url(#SVGID_40_);fill:#002D74;}
	.st23{clip-path:url(#SVGID_42_);fill:#002D74;}
	.st24{clip-path:url(#SVGID_44_);fill:#002D74;}
	.st25{clip-path:url(#SVGID_46_);fill:#002D74;}
	.st26{clip-path:url(#SVGID_48_);fill:#002D74;}
	.st27{clip-path:url(#SVGID_50_);fill:#002D74;}
</style>
<g id="Layer_1_1_">
	<g class="st0">
		<path class="st1" d="M100.2,105.4l2.3,1.2c2.1,1,3.7,1.6,4.7,3.6c0.1,0.5,1.1,5.8,1.8,8c-1.8,0.5-4,0.2-6.1-1
			c-2.5-1.3-4-3.7-4.4-6.1c0-0.1,0-0.3,0-0.3l-0.1-0.8l-1.2-5.6l-0.4-2C97.7,103.6,98.8,104.6,100.2,105.4 M107.8,68.6
			c-1.9-0.4-3.6-1.7-4.9-3.6c-1.4-2.3-2-5.1-1.2-7.4c0-0.1,0.1-0.3,0.1-0.3l0.2-0.7c0.6-1.8,1-3.7,1.4-5.5l0.6-2
			c0.4,1.5,1,2.9,1.8,4.2l1.6,2.1c1.5,1.8,2.5,3.1,2.5,5.2C109.7,61.2,108.4,66.4,107.8,68.6 M105.5,93.4c-1.9,0-4-0.8-5.7-2.4
			c-1.9-1.9-3-4.5-2.9-6.9c0-0.1,0-0.3,0-0.3l0-0.8c0.2-1.9,0.2-3.8,0.1-5.7l0.1-2c0.8,1.3,1.7,2.6,2.8,3.7l2,1.7
			c1.8,1.4,3.1,2.4,3.7,4.5C105.7,85.8,105.2,91.2,105.5,93.4 M113.2,61.6c1.2-1.7,2.8-2.1,5.1-2.5l2.4-0.5c1.4-0.4,2.8-0.9,4-1.5
			l-0.8,1.5c-0.7,1.3-1.4,2.7-1.9,4.2l-0.2,0.6l-0.1,0.2c-0.7,1.9-2.2,3.6-4.6,4.8c-2,1-4.2,1.3-6,0.9
			C111.7,67.2,113,62.1,113.2,61.6 M112.1,40.4c-1-2.6-0.7-5.4,0.6-7.5c0-0.1,0.1-0.2,0.1-0.2l0.4-0.6l2.7-5l1-1.8
			c0.1,1.5,0.3,3.1,0.8,4.5l1,2.4c1,2.1,1.8,3.6,1.2,5.7c-0.3,0.4-2.9,5.1-3.9,7.2C114.3,44.2,112.9,42.6,112.1,40.4 M122.9,39.5
			c1.6-1.4,3.2-1.4,5.5-1.3l2.6,0.1c1.5,0,2.9-0.2,4.2-0.5l-1.1,1.3c-1.1,1.1-2.2,2.3-2.9,3.7l-0.3,0.5l-0.1,0.2
			c-1,1.7-3.1,3-5.6,3.6c-2.1,0.5-4.3,0.3-6-0.5C120,44.5,122.6,39.9,122.9,39.5 M126.8,18.5c-0.3-2.7,0.6-5.4,2.3-7.2l0.2-0.2
			l0.6-0.5c1.4-1.3,2.6-2.8,3.8-4.3l1.4-1.5c-0.3,1.5-0.4,3.1-0.2,4.6l0.4,2.6c0.5,2.3,0.8,3.9-0.2,5.8c-0.3,0.4-4.1,4.4-5.4,6.2
			C128.1,22.8,126.9,20.8,126.8,18.5 M137.4,20.2c1.8-1,3.5-0.6,5.7,0l2.4,0.6c1.5,0.3,2.8,0.4,4.2,0.5l-1.4,1
			c-1.2,0.9-2.5,1.8-3.7,2.9l-0.4,0.4l-0.1,0.2c-1.4,1.5-3.6,2.3-6.2,2.2c-2.2-0.1-4.2-0.6-5.7-1.9
			C133.5,24.4,137.1,20.6,137.4,20.2 M146.1,0.7c0.3-2.7,1.8-5.2,3.9-6.5l0.2-0.1l0.6-0.4l4.6-3.3l1.7-1.1c-0.6,1.4-1.1,2.9-1.3,4.4
			l-0.2,2.6c-0.1,2.4-0.1,4.1-1.5,5.7c-0.5,0.2-4.9,3.3-6.7,4.7C146.4,5.1,145.8,3,146.1,0.7 M161.6,6l2.2,1.2
			c1.4,0.7,2.7,1.1,4,1.5l-1.6,0.6c-1.5,0.5-2.9,1.1-4.2,2l-0.5,0.3l-0.2,0.1c-1.7,1-4.1,1.3-6.6,0.7c-2.1-0.5-4-1.7-5.2-3.1
			c1.7-1.3,6-4.4,6.5-4.6C158.1,4.2,159.6,4.9,161.6,6 M165.4-4.7c0.1-2.4,4.2-6,6.8-7.1c1.6-0.7,3.4-1,5.4-1.3l2.1-0.4
			c0,0,1.7-0.5,2.5-0.7c-0.6,1.1-1.1,2.2-1.7,3.3c-1.4,2.9-2.7,5.6-5.1,7.6c-1.7,1.4-6.1,2-8.5,0.8C165.8-2.9,165.4-3.6,165.4-4.7
			L165.4-4.7L165.4-4.7z M109,85.4c0.6-1.9,2.2-2.7,4.3-3.6l2.3-1.1c1.3-0.7,2.5-1.5,3.5-2.4l-0.3,1.6c-0.4,1.5-0.8,3-1,4.5l0,0.6
			v0.2c-0.1,2-1.3,4.1-3.4,5.7c-1.7,1.4-3.7,2.2-5.6,2.3C108.7,91.2,109.1,85.9,109,85.4 M113.8,105l2-1.6c1.1-1,2.1-2,2.9-3.1
			l0,1.7c0,1.5-0.2,3.1,0.2,4.6l0.1,0.6l0,0.2c0.4,1.9-0.5,4.3-1.9,6.3c-1.3,1.7-3.1,3-4.9,3.5c-0.7-2.1-1.6-7.2-1.7-7.7
			C110.8,107.5,111.9,106.4,113.8,105 M117.9,141.4c-1.7,0.9-3.8,1.1-6.1,0.4c-2.6-0.8-4.9-2.6-5.8-4.9c0-0.1-0.1-0.3-0.1-0.3
			l-0.3-0.7c-0.7-1.8-1.8-3.4-2.5-5.1l-0.8-1.9c1.3,0.8,2.6,1.6,4.1,2l2.6,0.6c2.3,0.4,4,0.7,5.3,2.4
			C114.5,134.5,116.9,139.4,117.9,141.4 M119.7,127.5l1.5-2c0.9-1.2,1.6-2.5,2.2-3.7l0.4,1.6c0.2,1.5,0.7,3,1.3,4.5l0.2,0.6l0.1,0.2
			c0.7,1.9,0.6,4.2-0.4,6.6c-0.9,2-2.3,3.6-4,4.6c-1-2-3.4-6.6-3.5-7.1C117.3,130.6,118.3,129.2,119.7,127.5 M132.2,161.9
			c-1.4,1.2-3.6,2-5.8,1.8c-2.7-0.2-5.3-1.5-6.8-3.4l-0.2-0.2l-0.4-0.6c-1.1-1.6-2.4-3-3.6-4.4l-1.3-1.6c1.4,0.6,3,0.9,4.5,1h2.6
			c2.3-0.1,4-0.1,5.7,1.1C127.4,155.9,130.7,160.2,132.2,161.9 M130.7,147.9l1-2.3c0.6-1.4,0.8-2.7,1.2-4l0.8,1.5
			c0.7,1.4,1.4,2.8,2.3,4.1l0.4,0.5l0.1,0.2c1.2,1.6,1.7,3.9,1.2,6.5c-0.4,2.2-1.4,4-2.8,5.3c-1.5-1.6-4.7-5.8-5.1-6.1
			C129.1,151.5,129.7,150,130.7,147.9 M144.4,173.5c0.4,0.4,4.6,3.8,6.5,5c-1.1,1.5-3,2.7-5.3,3.1c-2.8,0.6-5.4-0.2-7.4-1.8
			l-0.2-0.2l-0.6-0.5l-4.6-3.4l-1.6-1.3c1.5,0.2,3.1,0.2,4.6-0.1l2.5-0.6C140.7,173.2,142.4,172.7,144.4,173.5 M146.1,165.4l0.5-2.5
			c0.2-1.5,0.3-2.9,0.2-4.2l1.1,1.3c0.9,1.2,1.9,2.5,3.1,3.4l0.5,0.4l0.2,0.1c1.6,1.2,2.4,3.6,2.6,6c0.1,2.1-0.4,4.2-1.5,5.8
			c-1.9-1.2-6-4.4-6.3-4.8C145.4,169.2,145.6,167.6,146.1,165.4 M165.4,187.1c0.4,0.4,5.4,2.4,7.5,3.3c-0.7,1.7-2.2,3.3-4.4,4.2
			c-2.5,1.1-5.4,1.2-7.6,0c-0.1-0.1-0.2-0.1-0.2-0.1l-0.7-0.4c-1.7-0.9-3.5-1.5-5.2-2.2L153,191c1.5-0.2,3-0.5,4.5-1.1l2.4-1.2
			C161.9,187.6,163.3,186.7,165.4,187.1 M164.4,172l1.3,1c1.2,1,2.5,1.8,3.9,2.6l0.6,0.3l0.2,0.1c1.8,1,3.2,2.7,4,5.2
			c0.6,2.1,0.6,4.3-0.1,6c-2-0.9-6.9-2.9-7.3-3.2c-1.5-1.5-1.6-3.1-1.7-5.4l-0.1-2.5C165,174.8,164.8,173.3,164.4,172 M251.4,181.2
			c0.7-2.5,2.2-4.2,4-5.2l0.2-0.1l0.6-0.3c1.4-0.7,2.7-1.6,3.9-2.6l1.3-1c-0.4,1.3-0.6,2.7-0.8,4.2l-0.1,2.5
			c-0.1,2.2-0.2,3.9-1.7,5.4c-0.4,0.4-5.3,2.3-7.3,3.2C250.9,185.5,250.8,183.3,251.4,181.2 M266,188.7l2.4,1.2
			c1.4,0.6,2.9,0.9,4.5,1.1l-1.8,0.9c-1.7,0.8-3.6,1.4-5.3,2.2l-0.7,0.4c0,0-0.2,0.1-0.2,0.1c-2.1,1.2-5.1,1.1-7.6,0
			c-2.1-0.9-3.6-2.5-4.4-4.2c2.1-0.9,7.1-2.9,7.5-3.3C262.4,186.7,263.9,187.6,266,188.7 M271.4,169.9c0.2-2.5,1-4.8,2.6-6l0.2-0.1
			l0.5-0.4c1.2-0.9,2.2-2.3,3.1-3.4l1.1-1.3c-0.1,1.3,0,2.8,0.2,4.2l0.5,2.5c0.5,2.3,0.7,3.8-0.4,5.6c-0.4,0.4-4.5,3.6-6.3,4.8
			C271.8,174.2,271.3,172.1,271.4,169.9 M281.4,173.5c2-0.9,3.7-0.3,5.9,0.3l2.5,0.6c1.5,0.2,3.1,0.2,4.6,0.1l-1.6,1.3l-4.5,3.4
			l-0.6,0.5l-0.2,0.2c-1.9,1.5-4.6,2.3-7.4,1.8c-2.3-0.4-4.2-1.6-5.3-3.1C276.8,177.3,281,173.9,281.4,173.5 M288.2,154.3
			c-0.5-2.6-0.1-4.9,1.2-6.5l0.1-0.2l0.4-0.5c0.9-1.3,1.6-2.7,2.3-4.1l0.8-1.5c0.3,1.4,0.6,2.7,1.2,4.1l1,2.3c1,2,1.6,3.6,0.9,5.6
			c-0.3,0.4-3.5,4.5-5,6.1C289.5,158.3,288.6,156.5,288.2,154.3 M298.8,155.6c1.7-1.3,3.4-1.2,5.7-1.1h2.6c1.5-0.1,3.1-0.4,4.5-1
			l-1.3,1.6c-1.2,1.4-2.5,2.8-3.6,4.4l-0.4,0.6l-0.1,0.2c-1.5,1.9-4.1,3.2-6.8,3.4c-2.3,0.2-4.4-0.6-5.9-1.8
			C295.1,160.2,298.4,155.9,298.8,155.6 M300.8,135.2c-1-2.3-1.1-4.7-0.4-6.6l0.1-0.2l0.3-0.6c0.6-1.4,1.1-2.9,1.3-4.5l0.4-1.6
			c0.6,1.2,1.3,2.5,2.1,3.7l1.5,2c1.4,1.8,2.4,3.1,2.2,5.2c-0.1,0.5-2.5,5.2-3.5,7.1C303.1,138.9,301.7,137.2,300.8,135.2
			 M311.4,134c1.4-1.6,3-1.9,5.4-2.4l2.6-0.6c1.5-0.5,2.8-1.2,4.1-2.1l-0.8,1.9c-0.8,1.7-1.8,3.3-2.5,5.1l-0.3,0.7
			c0,0-0.1,0.2-0.1,0.3c-0.9,2.3-3.1,4.1-5.8,4.9c-2.2,0.7-4.4,0.5-6.1-0.4C308.9,139.4,311.3,134.5,311.4,134 M313.6,117.3
			c-1.9-0.5-3.6-1.8-4.9-3.5c-1.5-2-2.4-4.3-2-6.3l0-0.2l0.1-0.6c0.4-1.5,0.2-3.1,0.1-4.6l0-1.7c0.8,1.1,1.8,2.1,2.9,3.1l2,1.6
			c1.9,1.4,3,2.4,3.3,4.5C315.2,110,314.3,115.2,313.6,117.3 M318.7,110.1c1-1.9,2.6-2.6,4.7-3.6l2.3-1.2c1.3-0.8,2.5-1.8,3.6-2.9
			l-0.4,2l-1.2,5.6l-0.1,0.8c0,0,0,0.2,0,0.3c-0.5,2.4-2,4.8-4.4,6.1c-2,1.2-4.2,1.5-6.1,1C317.6,116,318.6,110.7,318.7,110.1
			 M315.9,60.7c-0.1-2.1,1-3.4,2.5-5.2l1.6-2.1c0.9-1.3,1.4-2.7,1.8-4.2l0.6,2c0.4,1.8,0.8,3.7,1.4,5.5l0.3,0.7c0,0,0.1,0.2,0.1,0.3
			c0.8,2.3,0.2,5.2-1.2,7.4c-1.3,1.9-3,3.2-4.9,3.6C317.4,66.4,316.1,61.2,315.9,60.7 M316.9,93.3c-1.9-0.1-3.9-0.9-5.6-2.3
			c-2-1.6-3.3-3.7-3.4-5.7l0-0.2l0-0.6c-0.1-1.6-0.6-3.1-1-4.5l-0.4-1.6c1,0.9,2.2,1.7,3.5,2.4l2.3,1.1c2.1,0.9,3.7,1.7,4.3,3.6
			C316.7,85.9,317.1,91.2,316.9,93.3 M308.6,68.4c-2.4-1.1-3.9-2.9-4.5-4.8l-0.1-0.2l-0.2-0.6c-0.5-1.5-1.2-2.9-1.9-4.2l-0.8-1.5
			c1.3,0.6,2.6,1.1,4,1.5l2.4,0.5c2.2,0.4,3.9,0.8,5.1,2.5c0.2,0.5,1.5,5.5,2,7.7C312.7,69.7,310.5,69.3,308.6,68.4 M305.9,37.8
			c-0.5-2.1,0.3-3.6,1.2-5.7l1-2.4c0.5-1.5,0.7-3,0.8-4.5l1,1.8l2.7,5l0.4,0.7c0,0,0.1,0.2,0.1,0.2c1.2,2.1,1.5,4.9,0.5,7.5
			c-0.8,2.2-2.2,3.8-3.9,4.7C308.8,43,306.2,38.2,305.9,37.8 M300.6,47c-2.5-0.6-4.5-1.9-5.6-3.6l-0.1-0.2l-0.3-0.5
			c-0.8-1.4-1.9-2.5-2.9-3.6l-1.1-1.3c1.3,0.3,2.8,0.5,4.2,0.5l2.6-0.1c2.3-0.1,3.9-0.1,5.5,1.3c0.3,0.4,2.9,5,3.7,7
			C304.9,47.3,302.7,47.5,300.6,47 M290.8,17.8c-1-1.9-0.7-3.5-0.2-5.8l0.4-2.6c0.1-1.5,0.1-3.1-0.2-4.6l1.4,1.5
			c1.2,1.5,2.4,2.9,3.8,4.3l0.5,0.5l0.2,0.2c1.6,1.8,2.5,4.5,2.3,7.2c-0.2,2.3-1.3,4.2-2.8,5.4C294.9,22.2,291.1,18.2,290.8,17.8
			 M287.9,28c-2.6,0.1-4.9-0.7-6.2-2.2l-0.1-0.2l-0.5-0.4c-1.1-1.1-2.4-2-3.7-2.9l-1.3-1c1.4-0.1,2.8-0.1,4.2-0.5l2.4-0.6
			c2.2-0.6,3.8-1,5.7,0c0.3,0.4,3.9,4.2,5.2,6C292.1,27.3,290.1,27.9,287.9,28 M271.5,1.9c-1.4-1.6-1.4-3.3-1.5-5.7l-0.2-2.6
			c-0.2-1.5-0.7-3-1.3-4.4l1.7,1.1l4.6,3.3l0.6,0.4l0.2,0.1c2.1,1.3,3.6,3.7,3.9,6.5c0.3,2.3-0.3,4.4-1.4,5.9
			C276.5,5.2,272,2.1,271.5,1.9 M271,12.4c-2.5,0.6-4.9,0.3-6.6-0.7l-0.2-0.1l-0.5-0.3c-1.3-0.9-2.8-1.5-4.2-2l-1.5-0.6
			c1.3-0.3,2.7-0.8,4-1.5l2.2-1.2c2-1.1,3.4-1.8,5.5-1.2c0.5,0.2,4.8,3.2,6.5,4.6C275,10.8,273.1,11.9,271,12.4 M260.4-4.6
			c0,1-0.4,1.7-1.4,2.2c-2.4,1.2-6.9,0.5-8.5-0.8c-2.5-2-3.8-4.7-5.1-7.6c-0.5-1.1-1.1-2.2-1.7-3.3c0.8,0.2,2.5,0.7,2.5,0.7l2.1,0.4
			c1.9,0.3,3.8,0.6,5.4,1.3C256.1-10.7,260.3-7.1,260.4-4.6L260.4-4.6L260.4-4.6z M320.2,85.2c0.6-2.1,1.8-3.1,3.6-4.5l2-1.7
			c1.1-1.1,2-2.3,2.8-3.7l0,2c0,1.9,0,3.8,0.1,5.7l0,0.8c0,0,0,0.2,0,0.3c0.1,2.4-1,5.1-2.9,6.9c-1.7,1.6-3.8,2.4-5.7,2.4
			C320.5,91.2,320.1,85.8,320.2,85.2 M110,119.7c1.1,3.9,2.4,7.8,3.9,11.5c-2.1-1.3-4.6-1.3-7-2.1c-2.9-1-6.6-3.2-8.1-6.5
			c0,5.2,3.7,9.9,5.6,14.6c2.3,6.1,10.3,8.6,15,5.5c2,3.5,4.1,7,6.5,10.2c-2.3-0.7-4.7-0.2-7.3-0.4c-3.2-0.2-7-1.7-9.4-4.4
			c1.3,5,6,8.7,8.8,12.9c3.8,5.3,12,5.9,15.9,1.8c2.7,3,5.7,5.8,8.7,8.5c-2.4-0.2-4.6,0.8-7.2,1.2c-3.2,0.6-7.3,0-10.2-2.2
			c2.3,4.6,7.8,7.1,11.6,10.5c4.8,4.4,13.1,3,15.9-1.9c3.4,2.2,6.8,4.3,10.4,6.2c-2.4,0.4-4.3,2-6.7,2.9c-2.9,1.1-7.1,1.7-10.4,0.2
			c3.4,3.9,9.2,5.1,13.7,7.6c5.8,3.1,13.5-0.1,15-5.5c3.9,1.4,7.9,2.7,11.9,3.7l6.2,1.5c3.8,0.9,8.8,2.3,14.3,4
			c-14.3,3.6-29.4,7.8-35.9,11.2l5.9,4c6.9-3.6,22-9.1,35.6-13.4c13.6,4.4,28.7,9.9,35.6,13.4l5.9-4c-6.6-3.4-21.6-7.6-35.9-11.2
			c5.5-1.7,10.5-3.1,14.3-4l6.2-1.5c4.1-1,8.1-2.3,11.9-3.7c1.5,5.4,9.2,8.6,15,5.5c4.5-2.4,10.4-3.6,13.7-7.6
			c-3.3,1.5-7.5,0.9-10.4-0.2c-2.4-1-4.3-2.5-6.7-2.9c3.6-1.9,7.1-4,10.5-6.2c2.8,4.8,11.1,6.3,15.9,1.9c3.8-3.4,9.2-5.9,11.6-10.5
			c-2.9,2.2-7,2.7-10.2,2.2c-2.6-0.4-4.7-1.4-7.2-1.2c3.1-2.6,6-5.5,8.7-8.5c3.9,4.1,12.2,3.5,15.9-1.8c2.9-4.2,7.5-7.9,8.8-12.9
			c-2.5,2.7-6.2,4.2-9.4,4.4c-2.6,0.2-5-0.3-7.3,0.4c2.4-3.3,4.5-6.7,6.5-10.2c4.7,3.1,12.7,0.7,15-5.5c1.9-4.7,5.6-9.4,5.6-14.6
			c-1.5,3.3-5.2,5.5-8.1,6.5c-2.4,0.8-4.9,0.9-7,2.1c1.5-3.8,2.8-7.6,3.9-11.5c5.3,1.9,12.6-2.3,13.4-8.8c0.7-5,3.2-10.4,2-15.5
			c-0.8,3.5-3.6,6.6-6.4,8.2c-2.3,1.4-4.6,2-6.4,3.8c0.6-4,1-8.1,1.2-12.2c5.6,0.7,11.6-5.1,11-11.6c-0.5-5.1,0.7-10.9-1.7-15.5
			c-0.1,3.6-1.9,7.2-4.3,9.4c-1.9,1.8-4,3-5.3,5.1c-0.3-4.1-0.9-8.1-1.7-12.1c5.6-0.6,10.1-7.7,8-13.8c-1.7-4.8-1.9-10.7-5.2-14.7
			c0.9,3.5-0.3,7.5-2,10.2c-1.4,2.2-3.3,3.8-4,6.1c-1.3-3.8-2.8-7.6-4.4-11.3c5.2-1.9,8.1-9.8,4.4-15.3c-2.7-4.3-4.3-10-8.5-13.1
			c1.7,3.2,1.5,7.3,0.5,10.3c-0.8,2.4-2.2,4.4-2.4,6.8c-2.1-3.4-4.5-6.7-7-9.9c4.7-3.1,5.5-11.4,0.8-15.9
			c-3.7-3.5-6.6-8.7-11.4-10.8c2.3,2.8,3.2,6.8,2.9,10c-0.3,2.6-1.2,4.8-0.8,7.2c-2.9-2.8-5.9-5.5-9.1-8c3.8-4.1,2.8-12.4-2.9-15.6
			c-4-2.6-9.1-7.2-12.8-7.7c2.4,2,3.7,5.6,4.4,8.9c0.4,2.6,0,5,1,7.3c-2.3-1.4-4.7-2.7-7.1-4c0.2-0.5,0.3-1.1,0.3-1.7
			c-0.1-3.4-5-7.4-7.8-8.6c-2.5-1-5.3-1.3-7.9-1.8c-2.3-0.4-4.6-1.6-6.8-1.8c4.1,4.5,4.7,11,9.7,15c2.4,1.9,8.4,2.7,11.3,0.5
			c2.5,1.3,5,2.7,7.4,4.2c-2.5,0.1-4.4,1.7-6.7,2.9c-2.5,1.5-6.4,2.2-9.6,1.3c4.1,3.8,8,3.4,11.6,6.1c4.1,2.8,11.5,1.4,14.8-3.3
			c3.2,2.6,6.3,5.3,9.2,8.1c-2.5-0.4-4.8,0.7-7.3,1.2c-3,0.7-6.7,0.9-9.2-0.3c2.2,3.5,6.7,4.9,9.5,8c3.2,3.7,10.9,4,15.1,0.2
			c2.6,3.2,4.9,6.6,7.1,10.1c-2.3-1.1-4.8-0.5-7.4-0.5c-3,0-6.6-0.7-8.9-2.4c1.4,3.8,5.4,6.3,7.4,9.9c2.5,4.2,9.7,6.4,14.7,3.7
			c1.7,3.7,3.2,7.5,4.5,11.4c-2-1.5-4.5-1.6-7-2.2c-3-0.7-6.3-2.2-8.1-4.4c0.4,4.1,3.8,7.4,4.8,11.4c1.2,4.7,7.9,8.4,13.4,7
			c0.8,3.9,1.3,8,1.7,12c-1.6-1.9-4.1-2.5-6.3-3.7c-2.6-1.4-5.7-3.6-6.8-6.2c-0.5,4,1.9,8,2,12.2c0.1,4.9,5.7,10.1,11.3,9.9
			c-0.1,4.1-0.5,8.1-1.1,12c-1.1-2.2-3.4-3.3-5.3-5c-2.3-2-4.5-4.8-5.2-7.6c-1.4,3.8,0,8.3-0.8,12.3c-1,4.8,3.2,11.1,8.8,12.2
			c-1.1,3.9-2.4,7.8-4,11.5c-0.5-2.4-2.4-4-4-6.2c-1.9-2.5-3.2-5.7-3.3-8.6c-2.3,3.3-1.9,8.1-3.7,11.8c-2.1,4.4,0.6,11.5,5.7,13.9
			c-2,3.6-4.2,7.1-6.6,10.4c0-2.5-1.4-4.6-2.4-7c-1.1-2.8-2-6.4-1.2-9.1c-3.1,2.7-3.8,7.4-6.4,10.6c-3.1,3.8-2.2,11.4,2.3,14.9
			c-2.8,3-5.7,5.9-8.8,8.5c0.6-2.4-0.4-4.8-0.8-7.3c-0.4-3-0.4-6.6,1-9.1c-3.6,2-5.4,6.3-8.6,8.9c-3.9,3.1-4.8,10.5-1.2,15
			c-3.4,2.3-6.9,4.4-10.6,6.2c1.2-2.2,0.8-4.6,1-7.2c0.2-3.1,1.2-6.5,3-8.7c-4,1.1-6.7,4.9-10.5,6.6c-4.5,2-7.1,9.1-4.7,14.3
			c-3.8,1.4-7.7,2.7-11.8,3.7l-6.1,1.4c-4.9,1.1-11.9,2.8-19.4,4.6c-7.5-1.8-14.4-3.4-19.4-4.6l-6.1-1.4c-4-1-7.9-2.2-11.8-3.7
			c2.3-5.1-0.2-12.3-4.7-14.3c-3.8-1.7-6.5-5.6-10.5-6.6c1.9,2.2,2.9,5.6,3,8.7c0.2,2.6-0.2,5,1,7.2c-3.7-1.9-7.2-4-10.6-6.2
			c3.6-4.5,2.6-11.9-1.2-15c-3.3-2.5-5.1-6.9-8.7-8.9c1.3,2.5,1.4,6.2,0.9,9.1c-0.4,2.5-1.4,4.9-0.8,7.3c-3.1-2.7-6-5.5-8.8-8.5
			c4.4-3.5,5.4-11.1,2.3-14.9c-2.6-3.2-3.3-7.9-6.4-10.6c0.8,2.7,0,6.3-1.2,9.1c-1,2.4-2.4,4.4-2.4,7c-2.4-3.3-4.6-6.8-6.6-10.4
			c5.1-2.4,7.8-9.5,5.7-13.9c-1.8-3.7-1.4-8.4-3.7-11.8c-0.1,2.9-1.4,6.1-3.3,8.6c-1.6,2.1-3.4,3.7-4,6.2c-1.5-3.7-2.8-7.6-3.9-11.5
			c5.6-1.2,9.7-7.4,8.8-12.2c-0.8-4,0.6-8.5-0.8-12.3c-0.7,2.8-2.9,5.6-5.2,7.6c-1.9,1.6-4.2,2.8-5.3,5c-0.6-3.9-1-8-1.2-12
			c5.7,0.2,11.3-5,11.3-9.9c0.1-4.1,2.6-8.1,2.1-12.2c-1.2,2.6-4.2,4.8-6.8,6.2c-2.2,1.2-4.7,1.8-6.3,3.7c0.3-4.1,0.9-8.1,1.7-12
			c5.4,1.4,12.1-2.3,13.4-7c1-4,4.4-7.3,4.8-11.4c-1.8,2.2-5,3.7-8.1,4.4c-2.5,0.6-5,0.7-7,2.2c1.3-3.9,2.8-7.7,4.5-11.4
			c5,2.7,12.3,0.6,14.7-3.7l7.4-9.9c-2.3,1.7-5.9,2.4-8.9,2.4c-2.6,0-5.1-0.6-7.4,0.5c2.2-3.5,4.5-6.9,7.1-10.1
			c4.2,3.8,11.9,3.5,15.1-0.2c2.8-3.1,7.3-4.5,9.5-8c-2.5,1.3-6.2,1-9.2,0.3c-2.5-0.5-4.8-1.6-7.3-1.2c2.9-2.9,6-5.6,9.2-8.1
			c3.2,4.7,10.7,6,14.8,3.3c3.6-2.6,7.5-2.3,11.6-6.1c-3.2,0.9-7.1,0.2-9.6-1.3c-2.3-1.2-4.3-2.7-6.7-2.9c2.4-1.5,4.9-2.9,7.4-4.1
			c2.9,2.1,8.9,1.4,11.2-0.5c4.9-4,5.6-10.5,9.7-15c-2.2,0.2-4.5,1.3-6.8,1.8c-2.6,0.5-5.4,0.7-7.9,1.8c-2.9,1.2-7.8,5.3-7.8,8.6
			c0,0.7,0.1,1.3,0.3,1.8c-2.4,1.2-4.8,2.6-7.1,4c0.9-2.3,0.6-4.7,1-7.3c0.7-3.2,2-6.8,4.4-8.9c-3.7,0.5-8.8,5.1-12.8,7.7
			c-5.7,3.3-6.8,11.6-2.9,15.6c-3.2,2.5-6.2,5.2-9.1,8c0.3-2.4-0.6-4.6-0.8-7.2c-0.3-3.1,0.6-7.1,2.9-10c-4.8,2.1-7.7,7.3-11.3,10.8
			c-4.7,4.5-3.9,12.7,0.8,15.9c-2.5,3.2-4.8,6.5-7,9.9c-0.2-2.4-1.6-4.3-2.4-6.8c-1-3-1.2-7.1,0.5-10.3c-4.2,3.1-5.8,8.8-8.5,13.1
			c-3.6,5.4-0.8,13.4,4.4,15.3c-1.7,3.7-3.2,7.4-4.4,11.3c-0.8-2.3-2.6-3.9-4-6.1c-1.6-2.6-2.8-6.7-1.9-10.2
			c-3.3,4-3.6,9.9-5.2,14.7c-2.2,6.2,2.3,13.2,8,13.8c-0.8,4-1.3,8-1.7,12.1c-1.3-2.1-3.4-3.2-5.3-5.1c-2.4-2.2-4.2-5.8-4.3-9.4
			c-2.3,4.7-1.1,10.5-1.7,15.5c-0.6,6.5,5.4,12.3,11,11.6c0.2,4.1,0.6,8.2,1.2,12.2c-1.7-1.8-4-2.4-6.3-3.8
			c-2.8-1.6-5.6-4.7-6.4-8.2c-1.3,5.1,1.3,10.4,2,15.5C97.4,117.5,104.7,121.7,110,119.7"/>
		<path class="st1" d="M214.1,100.3c8.5,10.7,11.6,17.3,11.4,22c-0.2,5-2.9,9-5.6,14.4c-2.8,5.6-5.5,13.7-4.5,20.4
			c1.1-2.2,1.6-4.2,2.2-6.1c0.8-3,1.6-5.8,3.9-8.7c2.6-3.3,6.4-4.8,10.5-4.7c5.7,0,9.8,3.4,9.6,9.4c-0.3,7.7-7.1,8.9-10.3,9.6
			c-0.9,0.2-1.5,1.2-1.5,2.9c-1-0.2-1.3-0.8-1.4-1.5c-0.1-1.1,0.8-2.3,1.6-3.2c0.6-0.8,1-1.6,1.1-2.4c0.2-2.1-1.4-3.9-4-3.8
			c-3.7,0.2-7.3,3.3-10.1,9.1c-0.3,0.5-0.4,1.5-0.5,2.5h0.4c1.1,0,1.9,0.8,1.9,1.8v0c0,1-0.9,1.8-1.9,1.8H216v0.5
			c0,0.4-0.1,0.8-0.3,1.1c1.8,0.4,3.9,0.2,5.9,1.3c1.5,0.8,1.9,1.9,2.5,2.8c0.4,0.7,1.2,1.3,2.4,1.4c1.5,0.1,3.2-0.7,3.9-1.2
			c-0.3,3-2.8,5.2-6,5.3c-4.8,0.2-4.3-3.6-7-6.5c-0.6-0.6-1.8-1.2-2.6-1.9c-0.1-0.1-0.7-0.7-0.7-0.7c0,0-0.5,0.6-0.6,0.7
			c-0.8,0.7-2.1,1.3-2.7,1.9c-2.7,2.9-2.2,6.7-7,6.5c-3.2-0.1-5.7-2.4-6-5.3c0.7,0.4,2.4,1.3,3.9,1.2c1.2-0.1,2-0.7,2.5-1.4
			c0.6-0.9,1-2,2.5-2.8c2-1,4.1-0.8,5.9-1.3c-0.2-0.3-0.3-0.7-0.3-1.1v-0.5h-0.7c-1.1,0-1.9-0.8-1.9-1.8c0-1,0.9-1.8,1.9-1.8h0.4
			c0-1-0.2-1.9-0.5-2.5c-2.8-5.8-6.4-8.9-10.1-9.1c-2.6-0.1-4.2,1.7-4,3.8c0.1,0.8,0.4,1.7,1.1,2.4c0.8,0.9,1.7,2.1,1.6,3.2
			c-0.1,0.7-0.4,1.3-1.4,1.5c0.1-1.7-0.6-2.7-1.5-2.9c-3.2-0.7-10-1.9-10.3-9.6c-0.2-5.9,3.9-9.3,9.6-9.4c4.1,0,7.9,1.4,10.5,4.7
			c2.3,2.9,3,5.7,3.9,8.7c0.5,1.9,1.1,3.9,2.1,6.1c0.9-6.7-1.7-14.8-4.5-20.4c-2.7-5.4-5.4-9.4-5.6-14.4
			C202.5,117.6,205.6,111.1,214.1,100.3 M200.5,122.4c0.2,4.6,2.2,8.3,4.4,12.6l1.4,2.7c0.3,0.5,0.5,1.1,0.8,1.7
			c-2.8-2.6-6.4-4.1-10.7-4c-3.6,0-6.8,1.2-8.9,3.4c-1.9,2-2.9,4.7-2.9,7.7c0,0.2,0,0.3,0,0.5c0.3,9.1,8.2,10.8,11.6,11.6l0,0
			c0,0.1,0.1,0.2,0.1,0.6c0,0-0.1,2.9-0.1,2.9l2.8-0.5c1.9-0.3,3-1.6,3.2-3.5c0.2-2.1-1.3-3.9-2.1-4.9c-0.3-0.4-0.5-0.8-0.5-1.2
			c0-0.4,0.1-0.7,0.3-0.9c0.3-0.3,0.8-0.4,1.4-0.4c2.9,0.1,5.8,3,8.1,7.8c-1.2,0.7-2,1.9-2,3.4c0,0.7,0.2,1.3,0.6,1.9
			c-0.7,0.2-1.5,0.4-2.2,0.8c-1.8,0.9-2.6,2.2-3.1,3.1l-0.3,0.5c-0.2,0.3-0.5,0.4-0.7,0.4c-0.8,0-2-0.4-2.6-0.8l-4-2.6l0.5,4.7
			c0.4,4.1,3.9,7.1,8.2,7.3c4.6,0.2,6.1-2.7,7.2-4.7c0.5-0.9,0.9-1.8,1.6-2.5l0.9-0.6c0,0,0.4-0.3,0.7-0.5c0.4,0.3,0.7,0.5,0.7,0.5
			l0.9,0.6c0.7,0.7,1.1,1.6,1.6,2.5c1.1,2.1,2.5,4.9,7.2,4.7c4.3-0.2,7.8-3.3,8.2-7.3l0.5-4.7l-4,2.6c-0.6,0.4-1.8,0.9-2.6,0.8
			c-0.2,0-0.5-0.1-0.7-0.4c0,0-0.3-0.5-0.3-0.5c-0.5-0.9-1.3-2.2-3.1-3.1c-0.8-0.4-1.5-0.6-2.2-0.8c0.3-0.6,0.6-1.2,0.6-1.9
			c0-1.4-0.8-2.7-2-3.4c2.3-4.8,5.3-7.6,8.1-7.8c0.6,0,1.1,0.1,1.4,0.4c0.2,0.2,0.3,0.6,0.3,0.9c0,0.4-0.2,0.8-0.6,1.2
			c-0.8,0.9-2.3,2.7-2.1,4.8c0.2,1.9,1.4,3.2,3.2,3.5l2.7,0.5c0,0-0.1-2.9-0.1-2.9c0-0.4,0.1-0.5,0.1-0.6l0,0
			c3.4-0.8,11.3-2.5,11.6-11.6c0-0.2,0-0.3,0-0.5c0-3.1-1-5.8-2.9-7.7c-2.1-2.2-5.3-3.4-8.9-3.4c-4.3,0-7.9,1.4-10.7,4
			c0.2-0.6,0.5-1.2,0.8-1.7l1.4-2.7c2.3-4.3,4.2-8,4.4-12.6c0-0.2,0-0.4,0-0.6c0-5.5-3.7-12.6-11.9-22.9l-1.8-2.2l-1.8,2.2
			c-8.2,10.3-11.9,17.4-11.9,22.9C200.5,122,200.5,122.2,200.5,122.4"/>
		<path class="st1" d="M236.3,58.4c4.1,0,7.9,1.5,10.5,4.7c2.3,2.9,3,5.7,3.9,8.7c0.5,1.9,1.1,3.9,2.1,6.1
			c0.9-6.7-1.7-14.8-4.5-20.4c-2.7-5.4-5.4-9.4-5.6-14.4c-0.2-4.7,2.8-11.3,11.4-22c8.5,10.7,11.6,17.3,11.4,22
			c-0.2,5-2.9,9-5.6,14.4c-2.8,5.6-5.5,13.7-4.5,20.4c1.1-2.2,1.6-4.2,2.1-6.1c0.9-3,1.6-5.8,3.9-8.7c2.6-3.3,6.3-4.8,10.5-4.7
			c5.7,0,9.8,3.5,9.6,9.4c-0.3,7.7-7.1,8.9-10.3,9.6c-0.9,0.2-1.5,1.2-1.5,2.9c-1-0.2-1.3-0.8-1.4-1.5c-0.1-1.1,0.8-2.2,1.6-3.2
			c0.7-0.8,1-1.6,1.1-2.4c0.2-2.1-1.4-3.9-4-3.8c-3.7,0.2-7.3,3.3-10.1,9.1c-0.3,0.6-0.5,1.5-0.5,2.5h0.4c1.1,0,1.9,0.8,1.9,1.8
			c0,1-0.9,1.8-1.9,1.8h-0.7v0.5c0,0.4-0.1,0.8-0.3,1.1c1.8,0.4,3.9,0.2,5.9,1.3c1.5,0.8,1.9,1.9,2.5,2.8c0.4,0.7,1.2,1.3,2.4,1.4
			c1.5,0.1,3.2-0.7,3.9-1.2c-0.3,3-2.8,5.2-6,5.3c-4.8,0.2-4.3-3.6-7-6.5c-0.6-0.6-1.8-1.2-2.6-1.9c-0.1-0.1-0.6-0.7-0.6-0.7
			c0,0-0.6,0.6-0.6,0.7c-0.9,0.7-2.1,1.3-2.6,1.9c-2.7,2.9-2.2,6.7-7,6.5c-3.2-0.1-5.7-2.3-6-5.3c0.7,0.4,2.4,1.3,3.9,1.2
			c1.2-0.1,2-0.7,2.4-1.4c0.6-0.9,1-2,2.5-2.8c2-1,4.1-0.8,5.9-1.3c-0.2-0.3-0.3-0.7-0.3-1.1v-0.5h-0.7c-1.1,0-1.9-0.8-1.9-1.8
			c0-1,0.9-1.8,1.9-1.8h0.4c0-1-0.2-1.9-0.5-2.5c-2.8-5.8-6.4-8.9-10.1-9.1c-2.6-0.1-4.2,1.7-4,3.8c0.1,0.8,0.4,1.7,1.1,2.4
			c0.8,0.9,1.7,2,1.6,3.2c-0.1,0.7-0.3,1.3-1.4,1.5c0.1-1.7-0.6-2.7-1.5-2.9c-3.2-0.7-10-1.9-10.3-9.6
			C226.4,61.9,230.6,58.5,236.3,58.4 M236,79.5L236,79.5c0.1,0.1,0.1,0.2,0.1,0.6c0,0-0.1,2.9-0.1,2.9l2.8-0.5
			c1.8-0.3,3-1.6,3.2-3.5c0.2-2.1-1.2-3.8-2.1-4.8c-0.3-0.4-0.5-0.8-0.6-1.2c0-0.4,0.1-0.7,0.3-0.9c0.3-0.3,0.8-0.5,1.4-0.4
			c2.9,0.1,5.8,3,8.1,7.8c-1.2,0.7-2,1.9-2,3.4c0,0.7,0.2,1.3,0.6,1.9c-0.7,0.2-1.5,0.4-2.2,0.8c-1.8,0.9-2.6,2.2-3.1,3.1l-0.3,0.5
			c-0.2,0.3-0.5,0.4-0.7,0.4c-0.8,0-2-0.4-2.6-0.8l-4-2.6l0.5,4.7c0.4,4.1,3.9,7.1,8.2,7.3c4.6,0.2,6.1-2.7,7.2-4.7
			c0.5-0.9,0.9-1.8,1.6-2.5l0.9-0.6c0,0,0.4-0.3,0.7-0.5c0.4,0.3,0.8,0.5,0.8,0.5l0.9,0.6c0.7,0.7,1.1,1.6,1.6,2.5
			c1.1,2.1,2.5,4.9,7.2,4.7c4.3-0.2,7.8-3.3,8.2-7.3L273,86l-4,2.6c-0.6,0.4-1.8,0.9-2.6,0.8c-0.2,0-0.5-0.1-0.7-0.4l-0.3-0.5
			c-0.5-0.9-1.3-2.2-3.1-3.1c-0.8-0.4-1.5-0.6-2.2-0.8c0.3-0.6,0.5-1.2,0.5-1.9c0-1.5-0.8-2.7-2-3.4c2.3-4.8,5.3-7.6,8.1-7.8
			c0.6,0,1.1,0.1,1.4,0.4c0.2,0.2,0.3,0.6,0.3,0.9c0,0.4-0.2,0.8-0.5,1.2c-0.8,0.9-2.3,2.7-2.1,4.8c0.2,1.9,1.4,3.2,3.2,3.5l2.8,0.5
			c0,0-0.1-2.9-0.1-2.9c0-0.3,0.1-0.5,0.1-0.6c0,0,0,0,0,0c3.4-0.7,11.3-2.5,11.6-11.6c0-0.2,0-0.3,0-0.5c0-3.1-1-5.7-2.9-7.7
			c-2.1-2.2-5.3-3.4-8.9-3.5c-4.3,0-7.9,1.4-10.7,4c0.2-0.6,0.5-1.2,0.8-1.7l1.4-2.7c2.3-4.3,4.2-8,4.4-12.6c0-0.2,0-0.4,0-0.6
			c0-5.5-3.7-12.6-11.9-22.9l-1.8-2.2l-1.8,2.2C244,30,240.3,37.1,240.3,42.7c0,0.2,0,0.4,0,0.6c0.2,4.6,2.2,8.3,4.4,12.6l1.4,2.7
			c0.3,0.5,0.5,1.1,0.8,1.7c-2.8-2.6-6.4-4.1-10.7-4c-3.6,0-6.8,1.2-8.9,3.5c-1.9,2-2.9,4.7-2.9,7.7c0,0.2,0,0.4,0,0.5
			C224.7,77,232.6,78.7,236,79.5"/>
		<path class="st1" d="M175.5,77.9c1-2.2,1.6-4.2,2.1-6.1c0.8-3,1.6-5.8,3.9-8.7c2.6-3.3,6.4-4.8,10.5-4.7c5.7,0,9.8,3.5,9.6,9.4
			c-0.3,7.7-7.1,8.9-10.3,9.6c-0.9,0.2-1.5,1.2-1.5,2.9c-1-0.2-1.3-0.8-1.4-1.5c-0.1-1.1,0.8-2.3,1.6-3.2c0.6-0.8,1-1.6,1.1-2.4
			c0.2-2.1-1.4-3.9-4-3.8c-3.7,0.2-7.3,3.3-10.1,9.1c-0.3,0.6-0.4,1.5-0.5,2.5h0.4c1.1,0,1.9,0.8,1.9,1.8c0,1-0.9,1.8-1.9,1.8h-0.7
			V85c0,0.4-0.1,0.8-0.3,1.1c1.8,0.4,3.9,0.2,5.9,1.3c1.5,0.8,1.9,1.9,2.5,2.8c0.4,0.7,1.2,1.3,2.4,1.4c1.5,0.1,3.2-0.7,3.9-1.2
			c-0.3,3-2.8,5.2-6,5.3c-4.8,0.2-4.3-3.6-7-6.5c-0.6-0.6-1.8-1.2-2.6-1.9c-0.1-0.1-0.7-0.7-0.7-0.7s-0.6,0.6-0.6,0.7
			c-0.8,0.7-2.1,1.3-2.6,1.9c-2.7,2.9-2.2,6.7-7,6.5c-3.2-0.1-5.7-2.3-6-5.3c0.7,0.4,2.4,1.3,3.9,1.2c1.2-0.1,2-0.7,2.5-1.4
			c0.6-0.9,1-2,2.5-2.8c2-1,4.1-0.8,5.9-1.3c-0.2-0.3-0.3-0.7-0.3-1.1v-0.5h-0.7c-1.1,0-1.9-0.8-1.9-1.8c0-1,0.9-1.8,1.9-1.8h0.4
			c0-1-0.2-1.9-0.5-2.5c-2.8-5.8-6.4-8.9-10.1-9.1c-2.6-0.1-4.2,1.7-4,3.8c0.1,0.8,0.4,1.7,1.1,2.4c0.8,0.9,1.7,2.1,1.6,3.2
			c-0.1,0.6-0.4,1.3-1.4,1.5c0.1-1.7-0.6-2.7-1.5-2.9c-3.2-0.7-10-1.9-10.3-9.6c-0.2-5.9,3.9-9.4,9.6-9.4c4.1,0,7.9,1.5,10.5,4.7
			c2.3,2.9,3,5.7,3.9,8.7c0.5,1.9,1.1,3.9,2.1,6.1c0.9-6.7-1.7-14.8-4.5-20.4c-2.7-5.4-5.4-9.4-5.6-14.4c-0.2-4.7,2.8-11.3,11.4-22
			c8.5,10.7,11.6,17.3,11.4,22c-0.2,5-2.9,9-5.6,14.4C177.2,63.1,174.5,71.2,175.5,77.9 M183.4,55.9c2.3-4.3,4.2-8,4.4-12.6
			c0-0.2,0-0.4,0-0.6c0-5.5-3.7-12.6-11.9-22.9l-1.8-2.2l-1.8,2.2c-8.2,10.2-11.8,17.4-11.8,22.9c0,0.2,0,0.4,0,0.6
			c0.2,4.6,2.2,8.3,4.4,12.6l1.4,2.7c0.3,0.5,0.5,1.1,0.8,1.7c-2.8-2.6-6.4-4.1-10.7-4c-3.6,0-6.8,1.2-8.9,3.5
			c-1.9,2-2.9,4.7-2.9,7.7c0,0.2,0,0.3,0,0.5c0.3,9.1,8.2,10.9,11.6,11.6c0,0,0,0,0.1,0c0,0.1,0.1,0.2,0.1,0.6c0,0-0.1,2.9-0.1,2.9
			l2.8-0.5c1.8-0.3,3-1.6,3.2-3.5c0.2-2.1-1.3-3.9-2.1-4.9c-0.3-0.4-0.5-0.8-0.5-1.2c0-0.4,0.1-0.7,0.3-0.9c0.3-0.3,0.8-0.4,1.4-0.4
			c2.9,0.1,5.8,3,8.1,7.8c-1.2,0.7-2,1.9-2,3.4c0,0.7,0.2,1.3,0.6,1.9c-0.7,0.2-1.5,0.4-2.2,0.8c-1.8,0.9-2.6,2.2-3.1,3.1l-0.3,0.4
			c-0.2,0.3-0.5,0.4-0.7,0.4c-0.8,0-2-0.4-2.6-0.8l-4-2.6l0.5,4.7c0.4,4.1,3.9,7.1,8.2,7.3c4.6,0.2,6.1-2.7,7.2-4.7
			c0.5-0.9,0.9-1.8,1.6-2.5c0,0,0.9-0.6,0.9-0.6s0.4-0.3,0.7-0.5c0.4,0.3,0.7,0.5,0.7,0.5l0.9,0.6c0.7,0.7,1.1,1.6,1.6,2.5
			c1.1,2.1,2.5,4.9,7.2,4.7c4.3-0.2,7.8-3.3,8.2-7.3l0.5-4.7l-4,2.6c-0.6,0.4-1.7,0.9-2.6,0.8c-0.2,0-0.5-0.1-0.7-0.4
			c0,0-0.3-0.5-0.3-0.5c-0.5-0.9-1.3-2.2-3.1-3.1c-0.8-0.4-1.5-0.6-2.2-0.8c0.3-0.6,0.6-1.2,0.6-1.9c0-1.4-0.8-2.7-2-3.4
			c2.3-4.8,5.3-7.6,8.2-7.8c0.6,0,1.1,0.1,1.4,0.4c0.2,0.2,0.4,0.6,0.3,0.9c0,0.4-0.2,0.8-0.5,1.2c-0.9,1-2.3,2.7-2.1,4.9
			c0.2,1.9,1.4,3.2,3.2,3.5l2.8,0.5c0,0-0.1-2.9-0.1-2.9c0-0.3,0.1-0.5,0.1-0.6l0,0c3.4-0.7,11.3-2.5,11.6-11.6c0-0.2,0-0.3,0-0.5
			c0-3.1-1-5.7-2.9-7.7c-2.1-2.2-5.3-3.4-8.9-3.5c-4.3,0-7.9,1.4-10.7,4c0.3-0.6,0.5-1.2,0.8-1.7L183.4,55.9z"/>
		<path class="st1" d="M950.4,143.9l9.9-5.1v-1h-23.8v1l9.2,4.9l-15.7,43.9h-0.3l-17.3-45l10.6-3.8v-1h-31.8v1l9.3,3.8l24,58.2
			l-3.3,7.5c-2.1,4.6-5.8,11.9-8.8,14.2c-2.9-4-5.2-6.1-9.5-6.1c-3.8,0-6.4,2.9-6.4,6.4s3.2,6.7,9.3,6.7c7.4,0,13.5-6.4,18.7-19.6
			L950.4,143.9z M891.7,194.9l-0.3-1c-2.7,0.4-6,0.8-8.2,0.8c-4.5,0-8.2-0.6-10-1.8c-2.9-1.9-3.9-4.9-3.9-10.3v-39.4h22V138h-22
			v-16.6h-1l-8.9,13.7l-10.7,7.2v0.8h10.6v43.5c0,9.9,2.8,14.6,12.8,14.6C878.6,201.3,885.6,198.6,891.7,194.9 M823.9,145v50.9
			l-10.6,3.4v1h30.8v-1l-10.2-3.4v-60.1l-0.6-0.4l-19.2,4.6v0.8L823.9,145z M822.2,114.7c0,4.2,3.1,7,6.5,7c4.5,0,7-3.1,7-7.2
			c0-4-3.2-6.8-6.7-6.8C824.7,107.6,822.2,110.7,822.2,114.7 M804.8,180.4c0-21.5-35-15.2-35-31.8c0-5.8,5.6-10.6,12.1-10.6
			c7.4,0,13.7,5.8,18.3,16.3l1.2-0.3l-0.4-15.5c-3.9-1.5-11.2-3.2-16.6-3.2c-13.4,0-21.9,8.6-21.9,19.6c0,20.9,34.3,15.5,34.3,31.2
			c0,7.8-5.3,13.4-13.7,13.4c-8.2,0-15.9-6.7-20.3-18.8l-1.3,0.1v17c6.4,2.8,12.7,4.3,19.7,4.3C794.9,202.3,804.8,193.3,804.8,180.4
			 M754.9,142.9c0-4-2.9-7.4-8.5-7.4c-6.4,0-13.8,6.1-18.2,14.8h-0.3v-14.5l-0.6-0.4l-19.1,4.6v0.8l9.6,4.2v50.9l-10,3.4v1h30.5v-1
			l-10.5-3.4v-41.7c2-5.1,8.1-10.3,13.2-10.7c1,4.2,3.3,6.6,7.1,6.6C752.2,150,754.9,147.1,754.9,142.9 M653.6,159.6
			c1-12.4,10.3-21.9,19.2-21.9c9.1,0,14.2,9.2,14.8,21.5L653.6,159.6z M699.3,161.7c0-15.5-8.6-26.2-25.9-26.2
			c-17.3,0-30.8,14.8-30.8,34.4c0,19.4,12.7,32.5,30.5,32.5c9.1,0,16.9-4.3,25.5-12.5l-0.6-1.1c-7.7,4.3-13.9,5.9-20.8,5.9
			c-16,0-24.5-13.1-23.8-32.9L699.3,161.7L699.3,161.7z M592.5,142.5l10.6-3.8v-1h-31.9v1l9.5,3.8l24.8,59.2h1.7l24.5-57.8l10.2-5.2
			v-1h-24.5v1l9.6,4.9l-8.9,23.8l-7.9,19.5h-0.3L592.5,142.5z M548.6,145v50.9l-10.6,3.4v1h30.8v-1l-10.2-3.4v-60.1l-0.6-0.4
			l-19.2,4.6v0.8L548.6,145z M547,114.7c0,4.2,3.1,7,6.5,7c4.5,0,7-3.1,7-7.2c0-4-3.2-6.8-6.7-6.8C549.5,107.6,547,110.7,547,114.7
			 M522.2,154.9c0-9.9-3.8-19.4-16.3-19.4c-7.5,0-15.5,3.9-23.8,11.7h-0.3v-11.4l-0.5-0.4l-19.1,4.6v0.8l9.6,4.2v50.9l-10,3.4v1
			h29.5v-1l-9.5-3.4v-46.4c5.6-3.2,10.6-5.9,16.5-5.9c10,0,13.9,6.7,13.9,17.3v35l-9.6,3.4v1h29.7v-1l-10-3.4L522.2,154.9
			L522.2,154.9z M442.3,116.7v51.6c0,14.8-7.7,27.4-24.4,27.4c-18.1,0-28-7.7-28-27.3v-52.9l14.6-2.5v-1.5h-41.8v1.5l14.6,2.5v55.9
			c0,20.6,12.4,31.2,34.6,31.2c19.6,0,33.7-13.4,33.7-31.2v-54.6l11.3-3.8v-1.5H431v1.5L442.3,116.7z"/>
		<path class="st1" d="M789.2,23.5c0-4-2.9-7.4-8.5-7.4c-6.4,0-13.8,6.1-18.3,14.8h-0.3V16.3l-0.6-0.4l-19.1,4.6v0.8l9.6,4.2v50.9
			l-10,3.3v1h30.5v-1l-10.5-3.3V34.7c2-5.1,8.1-10.3,13.2-10.7c1,4.2,3.3,6.5,7.1,6.5C786.5,30.6,789.2,27.6,789.2,23.5 M687.8,40.2
			c1-12.4,10.3-21.9,19.2-21.9c9.1,0,14.2,9.2,14.8,21.5L687.8,40.2z M733.5,42.3c0-15.5-8.6-26.2-25.9-26.2s-30.8,14.8-30.8,34.4
			c0,19.4,12.7,32.5,30.5,32.5c9.1,0,16.9-4.3,25.5-12.5l-0.6-1.1c-7.7,4.3-13.9,5.8-20.8,5.8c-16,0-24.5-13.1-23.8-32.9
			C687.7,42.3,733.5,42.3,733.5,42.3z M661,35.4c0-9.9-3.8-19.4-16.3-19.4c-7.5,0-15.5,3.9-23.8,11.7h-0.3V16.3l-0.6-0.4l-19.1,4.6
			v0.8l9.6,4.2v50.9l-10,3.3v1H630v-1l-9.5-3.3V30c5.6-3.2,10.6-5.8,16.4-5.8c10,0,13.9,6.7,13.9,17.3v35l-9.6,3.3v1H671v-1l-10-3.3
			L661,35.4L661,35.4z M596.7,75.4l-0.3-1c-2.7,0.4-6,0.8-8.2,0.8c-4.5,0-8.2-0.5-10-1.8c-2.9-1.9-3.9-4.9-3.9-10.3V23.7h22v-5.1
			h-22V2h-1l-8.9,13.6l-10.7,7.2v0.8h10.6v43.5c0,9.9,2.8,14.6,12.8,14.6C583.6,81.8,590.6,79.2,596.7,75.4 M550.3,23.5
			c0-4-2.9-7.4-8.5-7.4c-6.4,0-13.8,6.1-18.3,14.8h-0.3V16.3l-0.6-0.4l-19.1,4.6v0.8l9.6,4.2v50.9l-10,3.3v1h30.5v-1l-10.4-3.3V34.7
			c1.9-5.1,8.1-10.3,13.2-10.7c1,4.2,3.3,6.5,7.1,6.5C547.7,30.6,550.3,27.6,550.3,23.5 M477.8,70.4c-4.7,3.5-10,5.4-14.5,5.4
			c-7.2,0-11.6-3.3-11.6-9.8c0-7.5,8.1-16.2,26.1-16.2V70.4z M487.9,36c0-12.8-6-19.8-18.5-19.8c-11.7,0-25.9,7.1-25.9,15
			c0,3.6,2.1,6.4,6.3,6.4c3.9,0,6.1-2.8,6.1-6.3c0-2.6-1.5-5.4-4-7.5c3.2-1.3,7.2-1.9,11-1.9c9.1,0,15,5.6,15,15.3v9.5
			C456.1,49.2,441,55.5,441,68C441,77,446.9,83,456,83c7.5,0,15.5-4.3,21.9-10.7h0.3c0,7.4,2.6,10.7,7.9,10.7c4.6,0,9.6-1.9,13.6-4
			l-0.1-1c-8.5,1-11.7-0.7-11.7-5.2L487.9,36L487.9,36z M422.7,15.9c0,14.5-8,22.3-21.5,22.3c-4.2,0-7.7-0.3-10.2-0.7V-4.6
			c2.9-0.3,6.1-0.6,9.6-0.6C413.8-5.1,422.7,2.7,422.7,15.9 M436.3,16.3C436.3,2.7,425.7-8,404.4-8h-40.3v1.5L378.8-4v80.7
			l-14.6,2.5v1.5h41.5v-1.5L391,76.7V40.3c4.5,0.7,9.5,1.1,14.1,1.1C425.3,41.4,436.3,28.7,436.3,16.3"/>
	</g>
</g>
<g id="Layer_2_1_">
	<g>
		<path class="st2" d="M366,164.3c0-3.5-0.1-9.9-1.1-11.6c-0.4-0.7-1.4-1.1-2.8-1.2l-1.4-0.1c-0.3-0.4-0.2-1.1,0.1-1.4
			c2.1,0.1,4.2,0.2,6.4,0.2c2.4,0,3.9-0.1,5.9-0.2c0.4,0.3,0.4,1,0.1,1.4l-1.3,0.1c-1.4,0.1-2.5,0.6-2.8,1.4
			c-0.8,1.8-0.8,8.3-0.8,11.4v6.3c0,4.9-0.8,10-3.9,13.4c-2.4,2.6-6.5,4.1-10.7,4.1c-3.9,0-7.7-0.7-10.5-3.1
			c-3-2.5-4.4-6.5-4.4-13.2v-13.2c0-5.8-0.1-6.8-3.4-7.1l-1.4-0.1c-0.3-0.2-0.2-1.2,0.1-1.4c2.8,0.1,4.7,0.2,6.9,0.2
			c2.3,0,4.1-0.1,6.9-0.2c0.3,0.2,0.5,1.1,0.1,1.4l-1.4,0.1c-3.2,0.3-3.4,1.2-3.4,7.1v12.1c0,9,2.8,14.9,11.4,14.9
			c8.1,0,11.2-6.4,11.2-14.9L366,164.3L366,164.3z"/>
		<path class="st2" d="M439.1,177.7c0,1.7,0,8.3,0.2,9.8c-0.1,0.3-0.5,0.6-1.1,0.6c-0.7-0.9-2.3-2.9-7.1-8.4l-13-14.8
			c-1.5-1.7-5.3-6.3-6.5-7.6h-0.1c-0.2,0.7-0.3,2-0.3,3.6v12.2c0,2.6,0.1,9.9,1,11.6c0.3,0.6,1.5,0.9,2.9,1.1l1.7,0.2
			c0.3,0.4,0.3,1.1-0.1,1.4c-2.5-0.1-4.5-0.2-6.5-0.2c-2.3,0-3.9,0.1-5.8,0.2c-0.4-0.3-0.4-1.1-0.1-1.4l1.5-0.2
			c1.3-0.2,2.2-0.5,2.5-1.1c0.8-2,0.7-8.8,0.7-11.5V157c0-1.6-0.1-2.7-1.2-4c-0.8-0.8-2.1-1.2-3.5-1.3l-1-0.1
			c-0.3-0.3-0.3-1.2,0.1-1.4c2.4,0.2,5.3,0.2,6.3,0.2c0.9,0,1.9-0.1,2.6-0.2c1.1,2.9,7.7,10.2,9.6,12.3l5.4,6.1
			c3.9,4.3,6.6,7.4,9.2,10.1h0.1c0.2-0.3,0.2-1.2,0.2-2.4v-12c0-2.6-0.1-9.9-1.1-11.6c-0.3-0.5-1.2-0.9-3.5-1.1l-0.9-0.1
			c-0.4-0.3-0.3-1.2,0.1-1.4c2.6,0.1,4.5,0.2,6.6,0.2c2.4,0,3.9-0.1,5.8-0.2c0.5,0.3,0.5,1.1,0.1,1.4l-0.8,0.1
			c-1.8,0.3-2.9,0.7-3.1,1.2c-1,2-0.8,8.9-0.8,11.5L439.1,177.7L439.1,177.7z"/>
		<path class="st2" d="M480.8,158.8c0-5.9-0.1-6.9-3.4-7.2l-1.4-0.1c-0.3-0.2-0.2-1.2,0.1-1.4c2.8,0.1,4.7,0.2,7,0.2
			c2.2,0,4.1-0.1,6.9-0.2c0.3,0.2,0.4,1.2,0.1,1.4l-1.4,0.1c-3.3,0.3-3.4,1.2-3.4,7.2v19.9c0,5.9,0.1,6.7,3.4,7.1l1.4,0.2
			c0.3,0.2,0.2,1.2-0.1,1.4c-2.8-0.1-4.7-0.2-6.9-0.2c-2.4,0-4.2,0.1-7,0.2c-0.3-0.2-0.5-1.1-0.1-1.4l1.4-0.2
			c3.3-0.4,3.4-1.2,3.4-7.1V158.8z"/>
		<path class="st2" d="M526.1,156.2c-1.3-3.1-2.1-4.3-4.5-4.6l-1-0.1c-0.4-0.3-0.3-1.1,0.1-1.4c1.6,0.1,3.4,0.2,5.8,0.2
			c2.5,0,4.4-0.1,6.8-0.2c0.4,0.2,0.5,1.1,0.1,1.4l-0.8,0.1c-2.1,0.3-2.6,0.6-2.6,1.1c0.1,0.6,1.1,3.6,2.8,7.8
			c2.6,6.5,5.2,12.9,7.9,19.3c1.7-3.7,4.1-9.4,5.4-12.4c1.6-3.8,4.2-10.1,5.2-12.5c0.5-1.2,0.5-1.8,0.5-2.2c0-0.4-0.6-0.8-2.5-1.1
			l-1-0.1c-0.4-0.3-0.3-1.2,0.1-1.4c1.6,0.1,3.7,0.2,5.8,0.2c1.8,0,3.6-0.1,5.4-0.2c0.4,0.2,0.4,1.1,0.1,1.4l-1.7,0.1
			c-1.3,0.1-2.2,0.8-2.9,2c-1.6,2.6-3.8,7.2-6.3,12.9l-3,6.9c-2.2,5.2-4.9,11.6-5.8,14.6c-0.2,0.1-0.4,0.2-0.6,0.2
			c-0.3,0-0.6-0.1-0.8-0.2c-0.6-2.4-1.6-5.1-2.6-7.4L526.1,156.2z"/>
		<path class="st2" d="M593.4,158.7c0-5.8-0.1-6.7-3.4-7.1l-0.9-0.1c-0.3-0.2-0.2-1.2,0.1-1.4c2.4,0.1,4.3,0.2,6.6,0.2h10.5
			c3.6,0,6.9,0,7.6-0.2c0.3,1,0.7,5,0.9,7.4c-0.2,0.3-1.1,0.4-1.4,0.1c-0.8-2.6-1.3-4.6-4.3-5.3c-1.2-0.3-3-0.3-5.4-0.3h-4
			c-1.7,0-1.7,0.1-1.7,2.2v11.2c0,1.6,0.2,1.6,1.8,1.6h3.2c2.3,0,4.1-0.1,4.7-0.3c0.7-0.2,1.1-0.6,1.3-2l0.5-2.3
			c0.3-0.3,1.2-0.3,1.5,0.1c0,1.4-0.2,3.5-0.2,5.7c0,2,0.2,4.1,0.2,5.4c-0.2,0.4-1.2,0.4-1.5,0.1l-0.5-2.2c-0.2-1-0.6-1.9-1.7-2.1
			c-0.8-0.2-2.1-0.3-4.3-0.3h-3.2c-1.7,0-1.8,0.1-1.8,1.5v7.9c0,3,0.2,4.9,1.1,5.8c0.7,0.7,1.8,1.3,6.8,1.3c4.3,0,5.9-0.2,7.2-0.8
			c1-0.6,2.5-2.5,4-5.4c0.4-0.3,1.2-0.1,1.4,0.4c-0.4,2-1.8,6.3-2.5,7.8c-5-0.1-10-0.2-15-0.2h-5c-2.4,0-4.3,0.1-7.6,0.2
			c-0.3-0.2-0.4-1.1-0.1-1.4l1.8-0.2c3.2-0.3,3.5-1.1,3.5-7L593.4,158.7L593.4,158.7z"/>
		<path class="st2" d="M654.1,158.7c0-5.3-0.2-6.3-2.5-6.6l-1.8-0.2c-0.4-0.3-0.4-1.2,0.1-1.4c3.1-0.3,7-0.4,12.5-0.4
			c3.5,0,6.8,0.3,9.3,1.7c2.7,1.4,4.7,3.9,4.7,7.8c0,5.3-4.2,8.2-7,9.3c-0.3,0.3,0,0.9,0.3,1.4c4.5,7.2,7.5,11.7,11.2,14.9
			c1,0.8,2.3,1.4,3.9,1.6c0.3,0.1,0.3,0.6,0,0.8c-0.5,0.2-1.4,0.3-2.5,0.3c-4.8,0-7.6-1.4-11.6-7c-1.5-2.1-3.8-5.9-5.5-8.4
			c-0.8-1.2-1.7-1.8-4-1.8c-2.5,0-2.6,0.1-2.6,1.2v7c0,5.9,0.1,6.5,3.3,7l1.2,0.2c0.3,0.3,0.2,1.2-0.1,1.4c-2.5-0.1-4.4-0.2-6.7-0.2
			c-2.3,0-4.4,0.1-7,0.2c-0.3-0.2-0.5-1-0.1-1.4l1.4-0.2c3.2-0.4,3.4-1.1,3.4-7L654.1,158.7L654.1,158.7z M658.7,166.7
			c0,1,0,1.6,0.2,1.9c0.2,0.2,1,0.3,3.9,0.3c2,0,4.1-0.2,5.8-1.4c1.5-1.2,2.8-3.1,2.8-6.9c0-4.4-2.7-8.6-9-8.6
			c-3.5,0-3.6,0.2-3.6,1.8L658.7,166.7L658.7,166.7z"/>
		<path class="st2" d="M721.7,188.1c-4.7,0-7.7-1.4-8.7-2.1c-0.7-1.2-1.4-5.2-1.5-7.8c0.3-0.4,1.1-0.5,1.3-0.2
			c0.8,2.9,3.1,8.3,9.6,8.3c4.7,0,7-3.1,7-6.4c0-2.5-0.5-5.2-4.6-7.8l-5.3-3.5c-2.8-1.9-6-5-6-9.6c0-5.3,4.1-9.6,11.4-9.6
			c1.7,0,3.7,0.3,5.2,0.7c0.7,0.2,1.5,0.3,2,0.3c0.5,1.4,1,4.5,1,6.8c-0.2,0.3-1.1,0.5-1.4,0.2c-0.7-2.7-2.2-6.3-7.6-6.3
			c-5.5,0-6.7,3.6-6.7,6.2c0,3.2,2.7,5.6,4.8,6.9l4.5,2.8c3.5,2.2,7,5.4,7,10.7C733.6,183.9,729,188.1,721.7,188.1"/>
		<path class="st2" d="M771.6,158.8c0-5.9-0.1-6.9-3.4-7.2l-1.4-0.1c-0.3-0.2-0.2-1.2,0.1-1.4c2.8,0.1,4.7,0.2,7,0.2
			c2.2,0,4.1-0.1,7-0.2c0.3,0.2,0.5,1.2,0.1,1.4l-1.4,0.1c-3.3,0.3-3.4,1.2-3.4,7.2v19.9c0,5.9,0.1,6.7,3.4,7.1l1.4,0.2
			c0.3,0.2,0.2,1.2-0.1,1.4c-2.8-0.1-4.7-0.2-7-0.2c-2.3,0-4.2,0.1-7,0.2c-0.3-0.2-0.5-1.1-0.1-1.4l1.4-0.2c3.3-0.4,3.4-1.2,3.4-7.1
			V158.8z"/>
		<path class="st2" d="M833.7,178.8c0,5.9,0.1,6.7,3.3,7l1.8,0.2c0.3,0.2,0.2,1.2-0.1,1.4c-3.2-0.1-5.1-0.2-7.3-0.2
			c-2.2,0-4.2,0.1-7.8,0.2c-0.3-0.2-0.4-1.1,0-1.4l2-0.2c3.2-0.3,3.5-1.1,3.5-7v-25c0-1.7,0-1.8-1.7-1.8h-3.1
			c-2.4,0-5.5,0.1-6.9,1.4c-1.3,1.2-1.9,2.5-2.5,3.9c-0.4,0.3-1.2,0.1-1.5-0.4c0.9-2.5,1.7-6.1,2.1-8.3c0.2-0.1,0.9-0.2,1.1,0
			c0.3,1.8,2.2,1.7,4.8,1.7h22.7c3,0,3.5-0.1,4.4-1.6c0.3-0.1,0.9-0.1,1,0.2c-0.6,2.3-1,6.8-0.8,8.5c-0.2,0.4-1.2,0.4-1.5,0.1
			c-0.2-1.4-0.6-3.5-1.4-4.1c-1.3-0.9-3.4-1.4-6.5-1.4h-4c-1.7,0-1.6,0.1-1.6,1.9L833.7,178.8L833.7,178.8z"/>
		<path class="st2" d="M897.5,178.7c0,6,0.3,6.9,3.4,7.1l2.1,0.2c0.3,0.3,0.2,1.2-0.1,1.4c-3.5-0.1-5.4-0.2-7.6-0.2
			c-2.3,0-4.4,0.1-7.3,0.2c-0.3-0.2-0.5-1.1-0.1-1.4l1.8-0.2c3.2-0.3,3.3-1.1,3.3-7.1v-2.9c0-3.1-0.2-3.8-1.8-6.9l-6.6-12.9
			c-1.9-3.7-2.7-4-4.4-4.2l-1.6-0.3c-0.3-0.4-0.3-1.2,0.1-1.4c1.8,0.1,3.8,0.2,6.5,0.2c2.6,0,4.6-0.1,6-0.2c0.5,0.2,0.5,1.1,0.2,1.4
			l-0.7,0.1c-2,0.3-2.3,0.6-2.3,1c0,0.6,1.5,3.8,1.7,4.3c2.1,4.1,4.1,8.6,6.3,12.4c1.7-3,3.6-6.2,5.2-9.5c1.6-2.9,3.6-6.7,3.6-7.4
			c0-0.3-1-0.7-2.3-0.9l-1-0.1c-0.4-0.4-0.3-1.2,0.1-1.4c2,0.1,3.6,0.2,5.4,0.2s3.3-0.1,5.2-0.2c0.5,0.3,0.5,1.1,0.1,1.4l-1.6,0.3
			c-2.9,0.5-4.6,4-7.4,8.8l-3.5,6.1c-2.5,4.3-2.6,4.8-2.6,9.1L897.5,178.7L897.5,178.7z"/>
		<g>
			<g>
				<defs>
					<rect id="SVGID_1_" x="23" y="23.2" width="158" height="170.2"/>
				</defs>
				<clipPath id="SVGID_2_">
					<use xlink:href="#SVGID_1_"  style="overflow:visible;"/>
				</clipPath>
				<path class="st3" d="M98.6,73.2c-24.6,0.2-49.1,2.9-73.1,7.9C36,148,77.8,180.6,98.6,192V73.2z M67.3,86.7
					c-14.7,0-26.7,12-26.7,26.7c0,14.7,12,26.7,26.7,26.7c14.7,0,26.7-12,26.7-26.7C93.9,98.6,82,86.7,67.3,86.7 M68.4,112.2h10.4
					c-0.1-2-0.3-4-0.8-5.9c-3.1,0.6-6.3,0.9-9.6,0.9L68.4,112.2L68.4,112.2z M77.3,104.1c-0.7-2-1.5-4-2.6-5.9
					c-2.1,0.3-4.2,0.5-6.3,0.6v6.2C71.4,104.9,74.4,104.6,77.3,104.1 M73.4,96.1c-1.4-2.1-3.1-4.1-5-5.9v6.3
					C70.1,96.4,71.8,96.3,73.4,96.1 M75.9,95.7c2.1-0.4,4.2-0.9,6.2-1.6c-3.2-2.5-7.1-4.2-11.3-4.8C72.8,91.2,74.5,93.4,75.9,95.7
					 M61.1,96.1c1.7,0.2,3.4,0.4,5,0.4v-6.3C64.2,92,62.5,93.9,61.1,96.1 M63.7,89.3c-4.2,0.6-8.1,2.3-11.3,4.8c2,0.7,4,1.2,6.1,1.6
					C60,93.4,61.8,91.2,63.7,89.3 M59.7,98.2c-1.1,1.9-1.9,3.9-2.6,5.9c3,0.5,5.9,0.8,9,0.9v-6.2C64,98.7,61.8,98.5,59.7,98.2
					 M56.5,106.3c-0.5,1.9-0.7,3.9-0.8,5.9h10.4v-5C62.9,107.2,59.7,106.9,56.5,106.3 M54.3,105.9c-3.1-0.7-6.1-1.6-9.1-2.8
					c-1.3,2.8-2.1,5.9-2.2,9.1h10.5C53.5,110.1,53.8,107.9,54.3,105.9 M42.9,114.5c0.1,3.2,0.9,6.3,2.2,9.1c3-1.2,6-2.1,9.1-2.8
					c-0.5-2.1-0.8-4.2-0.9-6.3L42.9,114.5L42.9,114.5z M56.5,120.4c3.2-0.6,6.3-0.9,9.6-0.9v-5H55.7
					C55.8,116.5,56.1,118.5,56.5,120.4 M57.2,122.6c0.7,2.1,1.5,4,2.6,5.9c2.1-0.3,4.2-0.5,6.4-0.6v-6.2
					C63.1,121.8,60.1,122.1,57.2,122.6 M61.1,130.7c1.4,2.1,3.1,4.1,5,5.9v-6.3C64.4,130.3,62.7,130.5,61.1,130.7 M58.6,131.1
					c-2.1,0.4-4.1,0.9-6.1,1.6c3.2,2.5,7.1,4.2,11.3,4.8C61.8,135.5,60,133.4,58.6,131.1 M73.4,130.7c-1.7-0.2-3.3-0.3-5-0.4v6.3
					C70.3,134.7,72,132.8,73.4,130.7 M70.8,137.5c4.2-0.6,8.1-2.3,11.3-4.8c-2-0.7-4.1-1.2-6.2-1.6
					C74.5,133.4,72.8,135.5,70.8,137.5 M74.8,128.5c1.1-1.9,1.9-3.9,2.6-5.9c-2.9-0.5-5.9-0.8-8.9-0.8v6.2
					C70.5,128,72.7,128.2,74.8,128.5 M78,120.4c0.5-1.9,0.7-3.9,0.8-5.9H68.4v5C71.7,119.5,74.8,119.8,78,120.4 M80.2,120.9
					c3.1,0.7,6.2,1.6,9.1,2.8c1.3-2.8,2.1-5.9,2.2-9.1H81.1C81,116.7,80.7,118.8,80.2,120.9 M91.6,112.2c-0.2-3.2-0.9-6.3-2.2-9.1
					c-3,1.2-6,2.1-9.1,2.8c0.5,2.1,0.8,4.2,0.8,6.3C81.1,112.2,91.6,112.2,91.6,112.2z M84.1,95.8c-2.3,0.8-4.6,1.5-7,2
					c1,1.9,1.8,3.9,2.5,5.9c2.9-0.6,5.8-1.5,8.7-2.6C87.2,99.1,85.7,97.3,84.1,95.8 M46.2,101.1c2.8,1.1,5.7,1.9,8.7,2.6
					c0.6-2,1.5-4,2.5-5.9c-2.3-0.5-4.7-1.2-6.9-2C48.8,97.3,47.4,99.1,46.2,101.1 M50.4,131c2.3-0.8,4.6-1.5,6.9-2
					c-1-1.9-1.9-3.9-2.5-5.9c-2.9,0.6-5.8,1.5-8.6,2.6C47.4,127.6,48.8,129.4,50.4,131 M88.3,125.7c-2.8-1.1-5.7-2-8.7-2.6
					c-0.6,2-1.5,4-2.5,5.9c2.4,0.5,4.7,1.2,7,2C85.7,129.4,87.2,127.6,88.3,125.7"/>
			</g>
			<g>
				<defs>
					<rect id="SVGID_3_" x="23" y="23.2" width="158" height="170.2"/>
				</defs>
				<clipPath id="SVGID_4_">
					<use xlink:href="#SVGID_3_"  style="overflow:visible;"/>
				</clipPath>
				<path class="st4" d="M23,48.8L23,35c0-1.9,1.3-3.4,3-3.8l0.1,0c24.5-5.2,49.9-8,75.9-8c26,0,51.4,2.8,75.8,8l0.1,0
					c1.8,0.4,3.1,2,3.1,3.9v13.7c0,9-0.6,17.5-1.5,25.6c-50.7-10.7-104.1-10.7-154.9,0C23.6,66.3,23,57.8,23,48.8 M102,34.7
					c-11.9-4.4-29-5.3-39.4-3.2l-4.5,3.5l-1.2,0.2c-0.4,0-0.7,0.3-0.9,0.6L43.4,63.8c-0.4,0.8,0.2,1.4,1,1.3
					c19.2-3.6,39.6-4.8,57.7-4.8h0c18.1,0,38.5,1.1,57.7,4.8c0.7,0.1,1.4-0.5,1-1.3L148,35.9c-0.1-0.3-0.5-0.5-0.9-0.6l-1.2-0.2
					l-4.5-3.5C131,29.4,113.9,30.3,102,34.7L102,34.7L102,34.7z"/>
			</g>
			<g>
				<defs>
					<rect id="SVGID_5_" x="23" y="23.2" width="158" height="170.2"/>
				</defs>
				<clipPath id="SVGID_6_">
					<use xlink:href="#SVGID_5_"  style="overflow:visible;"/>
				</clipPath>
				<path class="st5" d="M101,56.5C85.5,51.4,67.6,50.6,55,53l6.3-17.8l-4.2,3.2l-8.7,22.5C60,59,86,56.9,98.9,57
					C99.5,56.8,100.1,56.5,101,56.5"/>
			</g>
			<g>
				<defs>
					<rect id="SVGID_7_" x="23" y="23.2" width="158" height="170.2"/>
				</defs>
				<clipPath id="SVGID_8_">
					<use xlink:href="#SVGID_7_"  style="overflow:visible;"/>
				</clipPath>
				<path class="st6" d="M102.8,56.5c15.6-5.1,33.4-5.9,46.1-3.5l-6.3-17.8l4.2,3.2l8.6,22.5c-11.5-1.9-37.6-4-50.5-3.8
					C104.3,56.8,103.7,56.5,102.8,56.5"/>
			</g>
			<g>
				<defs>
					<rect id="SVGID_9_" x="23" y="23.2" width="158" height="170.2"/>
				</defs>
				<clipPath id="SVGID_10_">
					<use xlink:href="#SVGID_9_"  style="overflow:visible;"/>
				</clipPath>
				<path class="st7" d="M105.4,123.5V192c4.2-2.3,9.2-5.5,14.6-9.6v-49.2L105.4,123.5z"/>
			</g>
			<g>
				<defs>
					<rect id="SVGID_11_" x="23" y="23.2" width="158" height="170.2"/>
				</defs>
				<clipPath id="SVGID_12_">
					<use xlink:href="#SVGID_11_"  style="overflow:visible;"/>
				</clipPath>
				<path class="st8" d="M120.1,73.7c-4.9-0.2-9.8-0.4-14.6-0.4v16.3l14.6,9.7V73.7z"/>
			</g>
			<g>
				<defs>
					<rect id="SVGID_13_" x="23" y="23.2" width="158" height="170.2"/>
				</defs>
				<clipPath id="SVGID_14_">
					<use xlink:href="#SVGID_13_"  style="overflow:visible;"/>
				</clipPath>
				<path class="st9" d="M149.3,118.7V76.3c-4.9-0.6-9.7-1.2-14.6-1.6v34.3L149.3,118.7z"/>
			</g>
			<g>
				<defs>
					<rect id="SVGID_15_" x="23" y="23.2" width="158" height="170.2"/>
				</defs>
				<clipPath id="SVGID_16_">
					<use xlink:href="#SVGID_15_"  style="overflow:visible;"/>
				</clipPath>
				<path class="st10" d="M134.7,143v26.8c4.9-4.9,9.9-10.5,14.6-17v0L134.7,143z"/>
			</g>
			<g>
				<defs>
					<rect id="SVGID_17_" x="23" y="23.2" width="158" height="170.2"/>
				</defs>
				<clipPath id="SVGID_18_">
					<use xlink:href="#SVGID_17_"  style="overflow:visible;"/>
				</clipPath>
				<path class="st11" d="M149.3,152.8C149.3,152.8,149.3,152.8,149.3,152.8L149.3,152.8L149.3,152.8z"/>
			</g>
			<g>
				<defs>
					<rect id="SVGID_19_" x="23" y="23.2" width="158" height="170.2"/>
				</defs>
				<clipPath id="SVGID_20_">
					<use xlink:href="#SVGID_19_"  style="overflow:visible;"/>
				</clipPath>
				<path class="st12" d="M164,128.4c6.5-13.4,11.7-29.1,14.6-47.3c-4.8-1-9.7-1.9-14.6-2.8L164,128.4L164,128.4z"/>
			</g>
			<g>
				<defs>
					<rect id="SVGID_21_" x="23" y="23.2" width="158" height="170.2"/>
				</defs>
				<clipPath id="SVGID_22_">
					<use xlink:href="#SVGID_21_"  style="overflow:visible;"/>
				</clipPath>
				<polygon class="st13" points="120.1,99.2 120.1,133.3 134.7,143 134.7,108.9 				"/>
			</g>
			<g>
				<defs>
					<rect id="SVGID_23_" x="23" y="23.2" width="158" height="170.2"/>
				</defs>
				<clipPath id="SVGID_24_">
					<use xlink:href="#SVGID_23_"  style="overflow:visible;"/>
				</clipPath>
				<path class="st14" d="M163.9,128.4l-14.6-9.7v34.1l0,0c5.2-7.1,10.2-15.2,14.6-24.2V128.4z"/>
			</g>
			<g>
				<defs>
					<rect id="SVGID_25_" x="23" y="23.2" width="158" height="170.2"/>
				</defs>
				<clipPath id="SVGID_26_">
					<use xlink:href="#SVGID_25_"  style="overflow:visible;"/>
				</clipPath>
				<path class="st15" d="M163.9,128.5C163.9,128.5,164,128.4,163.9,128.5v-0.1V128.5z"/>
			</g>
		</g>
		<g>
			<g>
				<defs>
					<rect id="SVGID_27_" x="217.1" y="29.9" width="812.6" height="111"/>
				</defs>
				<clipPath id="SVGID_28_">
					<use xlink:href="#SVGID_27_"  style="overflow:visible;"/>
				</clipPath>
				<path class="st16" d="M240.4,49.8c0-14.3-1.3-15.8-8.9-16.5l-3.2-0.2c-0.8-0.5-0.5-2.8,0.3-3.2c7.4,0.2,11.8,0.4,17.2,0.4
					c5.1,0,9.5-0.1,14.6-0.4c0.8,0.4,1,2.7,0.3,3.2l-1.9,0.2c-7.6,1-7.8,2.8-7.8,16.5v47.7c0,10.1-0.5,19-2.9,24.9
					c-4.2,10.3-13.4,18.5-25.3,18.5c-1.5,0-5.5-0.1-5.5-2.7c0-2.2,1.9-5.9,4.6-5.9c1.5,0,3.1,0.3,4.8,0.8c1.8,0.5,3.6,0.9,5.4,0.9
					c2.7,0,4.2-1.5,5.1-3.3c2.9-6,3.3-25.3,3.3-32.2L240.4,49.8L240.4,49.8z"/>
			</g>
			<g>
				<defs>
					<rect id="SVGID_29_" x="217.1" y="29.9" width="812.6" height="111"/>
				</defs>
				<clipPath id="SVGID_30_">
					<use xlink:href="#SVGID_29_"  style="overflow:visible;"/>
				</clipPath>
				<path class="st17" d="M260.4,80.1c0-21.7,16.3-38.2,38.6-38.2c25,0,37.6,18.1,37.6,37.2c0,21.9-16.7,37.8-37.6,37.8
					C274.9,116.8,260.4,99.6,260.4,80.1 M325.7,82.4c0-17.9-7.9-37.2-28.6-37.2c-11.3,0-25.9,7.7-25.9,31.4c0,16,7.8,36.8,29.1,36.8
					C313.4,113.4,325.7,103.7,325.7,82.4"/>
			</g>
			<g>
				<defs>
					<rect id="SVGID_31_" x="217.1" y="29.9" width="812.6" height="111"/>
				</defs>
				<clipPath id="SVGID_32_">
					<use xlink:href="#SVGID_31_"  style="overflow:visible;"/>
				</clipPath>
				<path class="st18" d="M361.1,80.1c-5.2,0-5.4,0.2-5.4,3.5v15.3c0,11.4,0.5,12.9,6.6,13.6l3.1,0.3c0.6,0.4,0.4,2.4-0.2,2.7
					c-5.9-0.2-9.5-0.3-13.8-0.3c-4.6,0-8.3,0.2-12.6,0.3c-0.6-0.3-0.9-2.1-0.2-2.7l1.8-0.3c6.1-1.1,6.3-2.2,6.3-13.6v-39
					c0-11.4-0.8-13.2-6.4-13.7l-2.8-0.2c-0.6-0.4-0.4-2.4,0.2-2.7c5.3,0.1,9,0.3,13.6,0.3c4.2,0,7.9-0.1,12.6-0.3
					c0.6,0.3,0.9,2.3,0.2,2.7l-2,0.2c-6.3,0.7-6.5,2.3-6.5,13.7v12.5c0,3.4,0.2,3.5,5.4,3.5h31c5.2,0,5.4-0.1,5.4-3.5V59.8
					c0-11.4-0.2-13-6.6-13.6l-2.1-0.2c-0.6-0.4-0.4-2.4,0.2-2.7c5,0.2,8.7,0.3,13.1,0.3c4.2,0,7.9-0.1,12.8-0.3
					c0.6,0.3,0.9,2.3,0.2,2.7l-2.3,0.2c-6.3,0.6-6.5,2.3-6.5,13.6v39c0,11.4,0.2,12.8,6.5,13.6l2.6,0.3c0.6,0.4,0.4,2.4-0.2,2.7
					c-5.2-0.2-8.9-0.3-13.1-0.3c-4.5,0-8.4,0.1-13.1,0.3c-0.6-0.3-0.9-2.1-0.2-2.7l2.1-0.3c6.6-1.1,6.6-2.2,6.6-13.6V83.5
					c0-3.2-0.2-3.5-5.4-3.5H361.1z"/>
			</g>
			<g>
				<defs>
					<rect id="SVGID_33_" x="217.1" y="29.9" width="812.6" height="111"/>
				</defs>
				<clipPath id="SVGID_34_">
					<use xlink:href="#SVGID_33_"  style="overflow:visible;"/>
				</clipPath>
				<path class="st19" d="M489.5,96.7c0,3.3,0,16.2,0.3,19c-0.2,0.6-0.9,1.2-2,1.2c-1.3-1.8-4.5-5.6-13.9-16.3l-25.1-28.6
					c-2.9-3.3-10.3-12.2-12.6-14.6H436c-0.4,1.3-0.5,3.8-0.5,7v23.6c0,5.1,0.1,19.2,2,22.4c0.6,1.2,2.8,1.8,5.5,2.1l3.4,0.3
					c0.7,0.9,0.5,2.2-0.2,2.7c-4.9-0.2-8.7-0.3-12.7-0.3c-4.5,0-7.5,0.1-11.3,0.3c-0.8-0.5-0.9-2.1-0.2-2.7l2.9-0.3
					c2.5-0.3,4.2-1,4.8-2.2c1.5-3.9,1.4-17.1,1.4-22.3V56.6c0-3-0.1-5.3-2.4-7.8c-1.5-1.5-4.1-2.3-6.7-2.6l-1.8-0.2
					c-0.6-0.7-0.6-2.3,0.2-2.7c4.5,0.3,10.3,0.3,12.2,0.3c1.7,0,3.6-0.1,5-0.3c2.2,5.5,15,19.8,18.5,23.8l10.5,11.8
					c7.5,8.3,12.8,14.4,17.9,19.6h0.2c0.4-0.5,0.4-2.3,0.4-4.6V70.8c0-5.1-0.1-19.2-2.2-22.4c-0.6-1-2.4-1.6-6.7-2.2l-1.8-0.2
					c-0.8-0.6-0.6-2.4,0.2-2.7c5,0.2,8.7,0.3,12.8,0.3c4.7,0,7.5-0.1,11.2-0.3c0.9,0.5,0.9,2.1,0.2,2.7l-1.5,0.2
					c-3.5,0.5-5.6,1.4-6.1,2.3c-1.8,3.9-1.6,17.3-1.6,22.3L489.5,96.7L489.5,96.7z"/>
			</g>
			<g>
				<defs>
					<rect id="SVGID_35_" x="217.1" y="29.9" width="812.6" height="111"/>
				</defs>
				<clipPath id="SVGID_36_">
					<use xlink:href="#SVGID_35_"  style="overflow:visible;"/>
				</clipPath>
				<path class="st20" d="M518.2,116.8c-9.1,0-14.9-2.8-16.9-4c-1.3-2.4-2.7-10.1-2.9-15.2c0.5-0.8,2.2-1,2.6-0.3
					c1.6,5.5,6.1,16.1,18.6,16.1c9.1,0,13.6-6,13.6-12.5c0-4.8-1-10.1-8.9-15.2L514,79.1c-5.4-3.6-11.7-9.8-11.7-18.6
					c0-10.3,8-18.6,22.1-18.6c3.4,0,7.3,0.6,10.1,1.4c1.4,0.4,2.9,0.6,3.8,0.6c1,2.6,2,8.7,2,13.2c-0.4,0.7-2.2,1-2.7,0.3
					c-1.4-5.2-4.3-12.2-14.7-12.2c-10.6,0-12.9,7-12.9,12c0,6.3,5.2,10.8,9.2,13.3l8.7,5.4c6.8,4.2,13.5,10.5,13.5,20.8
					C541.3,108.7,532.3,116.8,518.2,116.8"/>
			</g>
			<g>
				<defs>
					<rect id="SVGID_37_" x="217.1" y="29.9" width="812.6" height="111"/>
				</defs>
				<clipPath id="SVGID_38_">
					<use xlink:href="#SVGID_37_"  style="overflow:visible;"/>
				</clipPath>
				<path class="st21" d="M605.6,73.6c-6.2,0-6.4,0.3-6.4,4.1v18.1c0,13.5,0.7,15.3,7.8,16.1l3.7,0.4c0.8,0.5,0.5,2.8-0.3,3.2
					c-6.9-0.3-11.3-0.4-16.3-0.4c-5.5,0-9.9,0.3-14.9,0.4c-0.8-0.4-1-2.4-0.3-3.2l2.2-0.4c7.2-1.3,7.5-2.6,7.5-16.1V49.6
					c0-13.5-0.9-15.7-7.6-16.2l-3.3-0.3c-0.8-0.5-0.5-2.8,0.3-3.2c6.3,0.1,10.7,0.4,16.2,0.4c5,0,9.4-0.1,14.9-0.4
					c0.8,0.4,1,2.7,0.2,3.2l-2.4,0.3c-7.4,0.8-7.7,2.7-7.7,16.2v14.8c0,4,0.3,4.1,6.4,4.1h36.7c6.2,0,6.4-0.1,6.4-4.1V49.6
					c0-13.5-0.2-15.4-7.8-16.2l-2.4-0.3c-0.8-0.5-0.5-2.8,0.3-3.2c5.9,0.3,10.3,0.4,15.5,0.4c5,0,9.4-0.1,15.2-0.4
					c0.8,0.4,1,2.7,0.2,3.2l-2.7,0.3c-7.5,0.8-7.7,2.7-7.7,16.2v46.2c0,13.5,0.3,15.2,7.7,16.1l3.1,0.4c0.8,0.5,0.5,2.8-0.3,3.2
					c-6.2-0.3-10.5-0.4-15.5-0.4c-5.3,0-9.9,0.1-15.5,0.4c-0.8-0.4-1-2.4-0.3-3.2l2.4-0.4c7.8-1.3,7.8-2.6,7.8-16.1V77.7
					c0-3.8-0.2-4.1-6.4-4.1L605.6,73.6L605.6,73.6z"/>
			</g>
			<g>
				<defs>
					<rect id="SVGID_39_" x="217.1" y="29.9" width="812.6" height="111"/>
				</defs>
				<clipPath id="SVGID_40_">
					<use xlink:href="#SVGID_39_"  style="overflow:visible;"/>
				</clipPath>
				<path class="st22" d="M669.2,80.1c0-21.7,16.3-38.2,38.6-38.2c25,0,37.6,18.1,37.6,37.2c0,21.9-16.7,37.8-37.6,37.8
					C683.7,116.8,669.2,99.6,669.2,80.1 M734.5,82.4c0-17.9-7.9-37.2-28.6-37.2c-11.3,0-25.9,7.7-25.9,31.4c0,16,7.8,36.8,29.1,36.8
					C722.2,113.4,734.5,103.7,734.5,82.4"/>
			</g>
			<g>
				<defs>
					<rect id="SVGID_41_" x="217.1" y="29.9" width="812.6" height="111"/>
				</defs>
				<clipPath id="SVGID_42_">
					<use xlink:href="#SVGID_41_"  style="overflow:visible;"/>
				</clipPath>
				<path class="st23" d="M765,98.8c0,11.4,0.2,12.8,7.1,13.5l2.9,0.3c0.7,0.5,0.4,2.4-0.2,2.7c-6.2-0.2-9.8-0.3-14.1-0.3
					c-4.5,0-8.5,0.1-13.2,0.3c-0.7-0.3-0.9-2.1-0.2-2.7l2.3-0.3c6.3-0.9,6.5-2.2,6.5-13.5v-40c0-9.2-0.2-11.1-5.1-11.6l-3.9-0.4
					c-0.8-0.6-0.7-2.3,0.2-2.7c5.7-0.8,12.5-0.9,21.5-0.9c9,0,15.7,1.2,20.8,4.3c5,3.1,8.7,8.8,8.7,16.2c0,10-6.2,15-10.8,17.2
					c-4.8,2.3-10.5,3.2-15,3.2c-0.8-0.3-0.8-2-0.1-2.2c11.7-2.2,15.9-8.8,15.9-18.2c0-10.5-6.2-17.3-17.4-17.3
					c-5.7,0-5.8,0.4-5.8,3.9L765,98.8L765,98.8z"/>
			</g>
			<g>
				<defs>
					<rect id="SVGID_43_" x="217.1" y="29.9" width="812.6" height="111"/>
				</defs>
				<clipPath id="SVGID_44_">
					<use xlink:href="#SVGID_43_"  style="overflow:visible;"/>
				</clipPath>
				<path class="st24" d="M810.1,59.8c0-11.4-0.2-13.1-6.5-13.6l-2.7-0.2c-0.7-0.4-0.4-2.4,0.2-2.7c5.3,0.2,8.8,0.3,13.7,0.3
					c4.2,0,7.9-0.1,12.6-0.3c0.7,0.3,0.9,2.3,0.2,2.7l-2,0.2c-6.3,0.6-6.5,2.3-6.5,13.6v12.5c0,2.1,0.2,4.1,1.4,4.1
					c1,0,2.3-0.7,3-1.2c1.5-1.3,4.3-4.1,5.5-5.2l11.7-11.6c2.1-2,7.4-7.5,8.5-9c0.5-0.8,0.8-1.3,0.8-1.7s-0.4-0.8-1.8-1.1l-2.9-0.6
					c-0.8-0.8-0.7-2.2,0.2-2.7c3.8,0.2,8.1,0.3,11.9,0.3s7.5-0.1,10.7-0.3c0.8,0.5,0.9,2.1,0.2,2.7c-2.8,0.2-7,1.3-10.1,3
					c-3,1.7-9.1,6.8-15.2,12.6l-9.8,9.2c-1.5,1.5-2.5,2.5-2.5,3.4c0,0.8,0.6,1.6,2.1,3.3c10.3,11.8,18.6,21.6,27.1,30.4
					c2.6,2.6,5,4,8.7,4.4l2.9,0.3c0.8,0.5,0.5,2.4-0.2,2.7c-2.8-0.2-7-0.3-12.1-0.3c-4.4,0-8.2,0.1-13.2,0.3
					c-0.8-0.2-1.1-2.1-0.4-2.7l2.5-0.4c1.5-0.2,2.6-0.5,2.6-1.1c0-0.7-0.8-1.5-1.5-2.5c-2.1-2.6-4.9-5.5-9-10.2l-8.7-9.8
					c-6.2-6.9-7.9-9.1-10.5-9.1c-1.6,0-1.8,1.4-1.8,5.2v14c0,11.4,0.2,12.9,6.3,13.5l2.9,0.3c0.6,0.4,0.4,2.4-0.2,2.7
					c-5.3-0.2-9-0.3-13.2-0.3c-4.4,0-8.1,0.1-12.6,0.3c-0.7-0.3-0.9-1.9-0.2-2.7l2.2-0.3c5.7-0.9,6-2.2,6-13.5L810.1,59.8
					L810.1,59.8z"/>
			</g>
			<g>
				<defs>
					<rect id="SVGID_45_" x="217.1" y="29.9" width="812.6" height="111"/>
				</defs>
				<clipPath id="SVGID_46_">
					<use xlink:href="#SVGID_45_"  style="overflow:visible;"/>
				</clipPath>
				<path class="st25" d="M884.4,60c0-11.5-0.2-13.3-6.6-13.9l-2.7-0.2c-0.7-0.4-0.4-2.4,0.2-2.7c5.4,0.2,9.1,0.3,13.7,0.3
					c4.3,0,8-0.1,13.4-0.3c0.7,0.3,0.9,2.3,0.2,2.7l-2.7,0.2c-6.4,0.5-6.6,2.4-6.6,13.9v38.6c0,11.5,0.2,13,6.6,13.8l2.7,0.3
					c0.7,0.4,0.4,2.4-0.2,2.7c-5.4-0.2-9.1-0.3-13.4-0.3c-4.5,0-8.2,0.1-13.7,0.3c-0.6-0.3-0.9-2.1-0.2-2.7l2.7-0.3
					c6.4-0.8,6.6-2.3,6.6-13.8V60z"/>
			</g>
			<g>
				<defs>
					<rect id="SVGID_47_" x="217.1" y="29.9" width="812.6" height="111"/>
				</defs>
				<clipPath id="SVGID_48_">
					<use xlink:href="#SVGID_47_"  style="overflow:visible;"/>
				</clipPath>
				<path class="st26" d="M978.2,96.7c0,3.3,0,16.2,0.3,19c-0.2,0.6-0.9,1.2-2.1,1.2c-1.3-1.8-4.4-5.6-13.9-16.3l-25.1-28.6
					c-2.9-3.3-10.3-12.2-12.6-14.6h-0.2c-0.4,1.3-0.5,3.8-0.5,7v23.6c0,5.1,0.1,19.2,2,22.4c0.7,1.2,2.8,1.8,5.5,2.1l3.4,0.3
					c0.7,0.9,0.5,2.2-0.2,2.7c-4.9-0.2-8.7-0.3-12.7-0.3c-4.5,0-7.5,0.1-11.3,0.3c-0.8-0.5-0.9-2.1-0.2-2.7l2.9-0.3
					c2.5-0.3,4.2-1,4.8-2.2c1.5-3.9,1.4-17.1,1.4-22.3V56.6c0-3-0.1-5.3-2.4-7.8c-1.5-1.5-4.1-2.3-6.7-2.6l-1.8-0.2
					c-0.7-0.7-0.7-2.3,0.2-2.7c4.5,0.3,10.3,0.3,12.2,0.3c1.7,0,3.6-0.1,5-0.3c2.2,5.5,15,19.8,18.5,23.8l10.5,11.8
					c7.5,8.3,12.8,14.4,17.9,19.6h0.2c0.4-0.5,0.4-2.3,0.4-4.6V70.8c0-5.1-0.1-19.2-2.2-22.4c-0.6-1-2.4-1.6-6.7-2.2L963,46
					c-0.8-0.6-0.7-2.4,0.2-2.7c5,0.2,8.7,0.3,12.8,0.3c4.7,0,7.5-0.1,11.2-0.3c0.9,0.5,0.9,2.1,0.2,2.7l-1.5,0.2
					c-3.5,0.5-5.6,1.4-6.1,2.3c-1.8,3.9-1.6,17.3-1.6,22.3L978.2,96.7L978.2,96.7z"/>
			</g>
			<g>
				<defs>
					<rect id="SVGID_49_" x="217.1" y="29.9" width="812.6" height="111"/>
				</defs>
				<clipPath id="SVGID_50_">
					<use xlink:href="#SVGID_49_"  style="overflow:visible;"/>
				</clipPath>
				<path class="st27" d="M1006.6,116.8c-9.1,0-14.8-2.8-16.9-4c-1.3-2.4-2.7-10.1-2.9-15.2c0.5-0.8,2.2-1,2.6-0.3
					c1.6,5.5,6.1,16.1,18.6,16.1c9.1,0,13.5-6,13.5-12.5c0-4.8-1-10.1-8.9-15.2l-10.3-6.7c-5.4-3.6-11.7-9.8-11.7-18.6
					c0-10.3,8-18.6,22.1-18.6c3.4,0,7.3,0.6,10.1,1.4c1.4,0.4,2.9,0.6,3.8,0.6c1,2.6,1.9,8.7,1.9,13.2c-0.4,0.7-2.2,1-2.7,0.3
					c-1.4-5.2-4.3-12.2-14.7-12.2c-10.6,0-12.9,7-12.9,12c0,6.3,5.2,10.8,9.2,13.3l8.7,5.4c6.8,4.2,13.6,10.5,13.6,20.8
					C1029.7,108.7,1020.7,116.8,1006.6,116.8"/>
			</g>
		</g>
	</g>
</g>
</svg>
