<?xml version="1.0" encoding="utf-8"?>
<!-- Generator: Adobe Illustrator 24.3.0, SVG Export Plug-In . SVG Version: 6.00 Build 0)  -->
<svg version="1.1" id="Layer_1" xmlns="http://www.w3.org/2000/svg" xmlns:xlink="http://www.w3.org/1999/xlink" x="0px" y="0px"
	 viewBox="0 0 1009.1 289.3" style="enable-background:new 0 0 1009.1 289.3;" xml:space="preserve">
<style type="text/css">
	.st0{fill:#230871;}
</style>
<g>
	<g>
		<g>
			<g>
				<path class="st0" d="M345.2,133.4V11.2h44.9c9.6,0,15.9,1.5,21.1,3.9c12.4,5.9,18,17.2,18,27.6c0,11.7-4.8,19.6-14.7,25.6v0.4
					c14.1,3.1,22.6,13,22.6,27.8c0,16.5-10,29.1-27.1,34.3c-6.1,1.8-12.8,2.6-23.4,2.6H345.2 M400.1,32.1c-2.8-1.3-6.1-2-11.5-2
					h-22.4V62h21.1c6.7,0,10.8-1.1,13.7-2.8c4.8-2.8,7.2-7.4,7.2-13.3C408.3,39.7,405.5,34.7,400.1,32.1 M406.6,82.7
					c-3-1.3-6.7-2-13.9-2h-26.5v33.7h25c7.6,0,12.1-0.9,15.6-2.6c5.9-3,8.9-8.2,8.9-15.2C415.7,90.3,412.3,85.3,406.6,82.7z"/>
				<rect x="559.5" y="11.2" class="st0" width="21" height="122.2"/>
				<rect x="711.6" y="11.2" class="st0" width="20.9" height="122.2"/>
				<path class="st0" d="M800.2,10.1c13.2,0,26.5,3.2,33.9,6.9l-0.3,20c-10.6-5.2-21.3-8.5-34.1-8.5c-11.5,0-21.3,3.5-21.3,13.2
					c0,25,62.9,15,62.9,56.4c0,22.8-19.3,37.3-47.3,37.3c-19.1,0-32.2-5.4-41.3-10.9l8.7-17.1c7.4,4.6,19.3,9.6,33.4,9.6
					c12.6,0,24.3-4.8,24.3-15.9c0-26.2-62.3-14.7-62.3-56.4C756.6,22.3,774.4,10.1,800.2,10.1z"/>
				<polygon class="st0" points="940.4,133.4 940.4,80.7 881,80.7 881,133.4 860.1,133.4 860.1,11.2 881,11.2 881,61.2 940.4,61.2 
					940.4,11.2 961.3,11.2 961.3,133.4 				"/>
				<path class="st0" d="M391.5,154.8c13.3,0,23.5,2.6,33.9,7.2l-6.3,17.8c-5.9-2.8-13.7-6.1-25.4-6.1c-23.2,0-37.6,19.6-37.6,43.6
					c0,24.1,13.5,43.8,37.6,43.8c11.7,0,19.5-3.3,25.4-6.1l6.3,17.8c-10.4,4.6-20.6,7.2-33.9,7.2c-36.5,0-57.5-25.6-57.5-62.3
					C334,183.4,354.9,154.8,391.5,154.8z"/>
				<path class="st0" d="M849.9,154.8c13.4,0,23.5,2.6,33.9,7.2l-6.3,17.8c-5.9-2.8-13.7-6.1-25.4-6.1c-23.2,0-37.6,19.6-37.6,43.6
					c0,24.1,13.5,43.8,37.6,43.8c11.7,0,19.5-3.3,25.4-6.1l6.3,17.8c-10.4,4.6-20.6,7.2-33.9,7.2c-36.5,0-57.5-25.6-57.5-62.3
					C792.4,183.4,813.4,154.8,849.9,154.8z"/>
				<path class="st0" d="M545.2,216.9c0,36.7-23.4,63.1-57.9,63.1c-34.8,0-57.8-25.4-57.8-62.1c0-36.7,23.4-63.1,57.8-63.1
					C522.2,154.8,545.2,180.2,545.2,216.9 M523.1,217.3c0-26.7-15.2-43.8-35.8-43.8c-20.6,0-35.8,17.1-35.8,43.9
					c0,26.7,15.2,43.8,35.8,43.8C507.9,261.3,523.1,244.2,523.1,217.3z"/>
				<path class="st0" d="M559.3,232.1v-76.2h21v76.9c0,20.4,10.9,28,28.4,28c17.8,0,28.4-7.6,28.4-28v-76.9h21v76.2
					c0,33.2-18.9,47.8-49.7,47.8C578.1,280,559.3,265.3,559.3,232.1z"/>
				<path class="st0" d="M697.4,189.1H697c0.4,4.1,0.6,10.6,0.6,16.3v72.7h-21V156h22.6l56.7,83.2h0.4c-0.4-4.1-0.6-10.6-0.6-16.3
					V156h20.9v122.2h-18.5L697.4,189.1z"/>
				<rect x="900.3" y="155.9" class="st0" width="20.9" height="122.2"/>
				<polygon class="st0" points="940.4,278.1 940.4,155.9 961.3,155.9 961.3,259.2 1009.1,259.2 1009.1,278.1 				"/>
			</g>
			<polygon class="st0" points="695.5,11.2 596.4,11.2 596.4,30.3 635.5,30.3 635.5,133.4 656.4,133.4 656.4,30.3 695.5,30.3 			"/>
			<path class="st0" d="M521.7,133.4c-17.8-36.9-22.4-47.3-29.8-47.3h-19.5v47.3h-20.9V11.2h41.3c31.5,0,43.6,16.7,43.6,35.2
				c0,16.3-9.5,27.3-22.6,31.3v0.2c5.6,3.2,11.5,14.7,31.9,55.4H521.7z M494.1,30.1h-21.7v37.1h20.8c15,0,22.1-7.8,22.1-18.9
				C515.3,38.3,508.8,30.1,494.1,30.1z"/>
		</g>
	</g>
	<circle class="st0" cx="69.9" cy="219.4" r="69.9"/>
	<circle class="st0" cx="219.4" cy="219.4" r="69.9"/>
	<circle class="st0" cx="69.9" cy="69.9" r="69.9"/>
	<circle class="st0" cx="219.4" cy="69.9" r="69.9"/>
</g>
</svg>
