<?xml version="1.0" encoding="utf-8"?>
<!-- Generator: Adobe Illustrator 25.2.1, SVG Export Plug-In . SVG Version: 6.00 Build 0)  -->
<svg version="1.1" id="Layer_1" xmlns="http://www.w3.org/2000/svg" xmlns:xlink="http://www.w3.org/1999/xlink" x="0px" y="0px"
	 viewBox="0 0 656.1 499.6" style="enable-background:new 0 0 656.1 499.6;" xml:space="preserve">
<style type="text/css">
	.st0{fill:#E1251B;}
	.st1{fill:#FFFFFF;}
</style>
<rect class="st0" width="656.1" height="499.6"/>
<g>
	<g>
		<path class="st1" d="M320.4,206.3c0.9,0,1.4-0.4,1.8-1.2l6-19.5c0.5-1.6,0-2.5-1.1-2.5c-0.5,0-0.9,0.2-1.6,1.2
			c-1.1,1.4-2.5,3.5-3.5,3.5c-0.7,0-1.1-0.2-1.6-0.7c-4.9-5.6-11.2-7.2-16.8-7.2c-26,0-48.6,27.5-48.6,53.2
			c0,14.7,8.9,23.2,21.9,23.2c5.4,0,10.4-1.1,17.9-4.2c1.8-0.7,3.5-1.4,4.9-1.4c1.8,0,1.9,2.3,2.1,5.3c0,1.1,0.7,1.6,1.4,1.6
			c0.7,0,1.4-0.2,1.8-0.9l7.4-21.4c0.7-1.8-0.2-2.6-1.2-2.6c-1.1,0-1.8,0.5-2.6,1.9c-5.6,9.5-19.3,16.8-30.4,16.8
			c-8.6,0-12.5-6.5-12.5-15.8c0-22.3,20.2-50.9,37.4-50.9c8.9,0,15.8,5.4,15.8,16.8c0,0.9-0.2,2.1-0.2,3
			C318.6,205.6,319.3,206.3,320.4,206.3L320.4,206.3z"/>
		<path class="st1" d="M355.5,199.2c-16.7,0-30.7,20-30.7,40.2c0,8.9,4.6,16.3,13.2,16.3c16.8,0,30.9-21.8,30.9-40.2
			C368.8,206.5,364.3,199.2,355.5,199.2L355.5,199.2z M356,203.5c4,0,5.8,3.2,5.8,7.7c0,13.7-14,39.7-24.2,39.7
			c-4,0-5.8-2.8-5.8-7.4C331.8,228.6,345.8,203.5,356,203.5L356,203.5z"/>
		<path class="st1" d="M398.3,185.6c0,0.3-0.2,1.1-0.5,1.8c-8.9,20.7-17.5,40.2-26.1,60.9c-0.5,1.2-1.2,3.2-1.2,4.6
			c0,1.6,1.4,3.2,3.3,3.2c1.2,0,2.8-0.2,4.2-0.7c5.4-1.9,9.8-4.9,13.5-9.3c0.4-0.3,0.7-0.9,0.7-1.6c0-0.9-0.4-1.4-1.1-1.4
			c-0.4,0-0.7,0.2-1.2,0.5c-1.8,1.2-4,3.5-7.9,5.6c-0.4,0.2-1.1,0.5-1.4,0.5c-0.4,0-0.5-0.2-0.5-0.5c0-0.5,0.2-0.9,0.3-1.4l27.7-64
			c0.5-1.2,0.7-1.9,0.7-2.6c0-0.7-0.5-1.1-1.4-1.1c-1.4,0-4,0.2-6.1,0.4c-1.8,0.2-5.8,0.3-8.4,0.7c-1.1,0.2-1.8,0.9-1.8,1.6
			c0,0.9,0.7,1.4,1.6,1.4c1.4,0.2,3.7,0.3,4.9,0.7C398.1,184.9,398.3,185.3,398.3,185.6L398.3,185.6z"/>
		<path class="st1" d="M427.1,185.6c0,0.3-0.2,1.1-0.5,1.8c-9,20.7-17.5,40.2-26.1,60.9c-0.5,1.2-1.2,3.2-1.2,4.6
			c0,1.6,1.4,3.2,3.3,3.2c1.2,0,2.8-0.2,4.2-0.7c5.4-1.9,9.8-4.9,13.5-9.3c0.4-0.3,0.7-0.9,0.7-1.6c0-0.9-0.3-1.4-1.1-1.4
			c-0.3,0-0.7,0.2-1.2,0.5c-1.8,1.2-4,3.5-7.9,5.6c-0.4,0.2-1.1,0.5-1.4,0.5c-0.4,0-0.5-0.2-0.5-0.5c0-0.5,0.2-0.9,0.4-1.4l27.7-64
			c0.5-1.2,0.7-1.9,0.7-2.6c0-0.7-0.5-1.1-1.4-1.1c-1.4,0-4,0.2-6.1,0.4c-1.8,0.2-5.8,0.3-8.4,0.7c-1,0.2-1.8,0.9-1.8,1.6
			c0,0.9,0.7,1.4,1.6,1.4c1.4,0.2,3.7,0.3,4.9,0.7C426.9,184.9,427.1,185.3,427.1,185.6L427.1,185.6z"/>
		<path class="st1" d="M464.6,243.9c0.4-0.5,0.7-1,0.7-1.8c0-0.9-0.7-1.6-1.6-1.6c-0.5,0-1.1,0.4-1.4,0.7c-3.5,3.7-8.6,8.4-14.7,8.4
			c-4.6,0-7.2-3.3-7.2-8.8c0-3.9,1.4-7.5,2.6-10.4c3.9-0.7,11.4-2.3,15.3-3.5c12.8-4,19.5-10.5,19.5-18.6c0-5.4-3.9-7.9-9.3-7.9
			c-15.8,0-37.4,21.8-37.4,42.8c0,7.2,4.7,12.3,11.9,12.3C452.9,255.7,459.2,250.7,464.6,243.9L464.6,243.9z M457.6,223
			c-4.9,1.6-9.5,2.8-12.5,3.2c3.3-6.7,7-11.6,11.1-15.6c2.3-2.5,6.1-5.6,9.8-5.6c2.6,0,4,1.6,4,4.6
			C470.1,215.6,464.8,220.7,457.6,223L457.6,223z"/>
		<path class="st1" d="M559,243.9c0.3-0.5,0.7-1,0.7-1.8c0-0.9-0.7-1.6-1.6-1.6c-0.5,0-1.1,0.4-1.4,0.7c-3.5,3.7-8.6,8.4-14.7,8.4
			c-4.6,0-7.2-3.3-7.2-8.8c0-3.9,1.4-7.5,2.6-10.4c3.9-0.7,11.4-2.3,15.3-3.5c12.8-4,19.5-10.5,19.5-18.6c0-5.4-3.9-7.9-9.3-7.9
			c-15.8,0-37.4,21.8-37.4,42.8c0,7.2,4.6,12.3,11.9,12.3C547.3,255.7,553.6,250.7,559,243.9L559,243.9z M552,223
			c-4.9,1.6-9.5,2.8-12.5,3.2c3.3-6.7,7-11.6,11.1-15.6c2.3-2.5,6.1-5.6,9.8-5.6c2.6,0,4,1.6,4,4.6C564.5,215.6,559.2,220.7,552,223
			L552,223z"/>
		<path class="st1" d="M521.8,212.1c0-3.2-0.5-4.4-0.5-5.6c0-1.2,1.4-2.1,3.5-2.1c2.3,0,4,1.8,6.1,1.8c1.8,0,3.2-1.4,3.2-3.5
			c0-2.1-1.6-3.2-4-3.2c-2.3,0-4.9,0.7-7.7,2.5c-0.7,0.3-1.4,0.9-2.3,0.9c-0.4,0-1.1-0.2-1.6-0.5c-2.1-1.2-4.4-2.1-8.8-2.1
			c-5.8,0-13.3,3-18.3,9.7c-3.5,4.9-4.2,8.1-4.2,11.6c0,3.2,1.1,5.8,1.9,7.4c0.2,0.3,0.7,0.9,0.7,1.2c0,0.7-1.1,1.1-3.2,1.6
			c-3.7,0.9-8.4,3.3-8.4,7.9c0,3.5,1.9,5.6,5.6,8.2c-6.7,1.8-17.7,6.1-17.7,13.7c0,7.4,9.3,13,23.2,13c13.3,0,22.6-5.6,22.6-14.4
			c0-4.7-4.4-8.9-12.1-12.8c-7.9-3.9-13.3-6.5-13.3-9.5c0-2.6,2.1-3.9,6-3.9c2.1,0,4.9,0.7,7,0.7c6.3,0,14.9-1.9,20.2-13.2
			C521.1,218.3,521.8,215.1,521.8,212.1L521.8,212.1z M498.7,230.6c-2.8,0-4.2-2.5-4.2-6.1c0-3,1.1-6.7,3.5-11.1
			c3.5-6.3,8.1-10,12.5-10c2.8,0,4.6,1.8,4.6,4.9c0,3.3-1.1,7.5-3.7,12.3C506.4,228.8,502.3,230.6,498.7,230.6L498.7,230.6z
			 M490.1,270.4c-9.5,0-14.9-4.2-14.9-8.8c0-5.4,6.1-9.3,12.3-11.4c2.6,1.4,6.5,3.2,9.5,4.9c4.9,3,5.8,4.6,5.8,7.2
			C502.7,267.1,497.8,270.4,490.1,270.4L490.1,270.4z"/>
	</g>
	<g>
		<rect x="87.4" y="390.2" class="st1" width="483.1" height="6.4"/>
		<rect x="87.4" y="412.8" class="st1" width="483.1" height="12.4"/>
	</g>
	<g>
		<path class="st1" d="M481.8,139c0-7.2,5.3-7.9,9.9-8.3c0.9,0,1.4-0.9,1.4-1.9c0-0.9-0.5-1.6-1.8-1.6h-35.7c-1.2,0-2.1,0.7-2.1,1.8
			c0,1.2,0.9,2.1,2.1,2.1c7.1,0.5,12.7,1.8,12.7,8.7v10.8c0,3-1.1,4.6-2.8,6c-6.5,4.8-13.2,5.5-18.7,5.5
			c-22.3,0-32.3-18.5-32.3-37.4c0-25.4,16.1-39,33.7-39c16.2,0,26.8,7.1,32.8,19.2c0.7,1.4,1.4,1.9,2.5,1.9c0.9,0,1.6-0.9,1.6-1.9
			V85.7c0-1.1-0.7-1.8-1.6-1.8c-1.1,0-1.6,0.7-1.9,1.8c-0.5,2.1-1.6,3.5-3.2,3.5c-1.1,0-2.6-0.9-3.7-1.6c-7.2-4.2-13.4-7.4-26.5-7.4
			c-21.5,0-48.4,11.8-48.4,43.8c0,33.2,25.1,43.4,47,43.4c19.6,0,31.8-9.7,35-12.4V139z"/>
		<path class="st1" d="M503.6,93.5c1.4,0,3.2-0.7,3.7-2.1c0.2,0.4,0.4,0.9,0.4,1.4c0,3.5-2.8,6.9-7.6,8.8c-0.7,0.4-1.2,0.9-1.2,1.8
			c0,0.9,0.9,1.4,1.9,1.2c7.8-1.4,12-8.5,12-15.2c0-6-3.3-9.2-8.1-9.2c-3.2,0-7.4,1.6-7.4,6.9C497.2,91.3,500.4,93.5,503.6,93.5
			L503.6,93.5z"/>
		<path class="st1" d="M569.4,101.2c0.9,0,1.6-0.7,1.4-1.8l-2.6-18.5c-0.2-1.2-0.7-1.6-1.6-1.6c-0.5,0-1.1,0.4-1.4,1.2
			c-0.5,1.4-1.4,2.8-3.2,2.8c-3,0-6.9-3.2-15.4-3.2c-11,0-25.4,5.7-25.4,20.8c0,15.9,12.7,21.5,23.7,25.4c12,4.2,20.8,7.1,20.8,19.1
			c0,11.8-9.2,16.2-18.4,16.2c-9.7,0-20.7-4.6-24.9-18.9c-0.4-1.2-0.9-1.9-2.1-1.9c-1.2,0-1.9,0.7-1.9,2.3v20.5
			c0,1.2,0.7,1.9,1.8,1.9c0.7,0,1.2-0.4,1.8-1.2c0.5-1.2,1.6-3.2,3.4-3.2c3.5,0,10.4,6.2,23,6.2c11.8,0,29.8-4.4,29.8-25.8
			c0-8.8-3.5-20.3-25.1-26.5c-15.2-4.4-20-9.9-20-17.5c0-6.7,4.6-12.2,14.5-12.2c7.2,0,14.8,3.4,20.1,14.3
			C568.2,100.9,568.7,101.2,569.4,101.2L569.4,101.2z"/>
		<path class="st1" d="M272.8,94.9c0-6.7,1.9-10.1,8.7-10.9c1.2-0.2,1.9-0.7,1.9-1.8c0-0.9-0.7-1.4-1.9-1.4h-31.1
			c-1.2,0-1.9,0.5-1.9,1.4c0,1.1,0.7,1.6,1.9,1.8c6.7,0.9,8.7,4.2,8.7,10.9v57.9c0,6.7-1.9,10.1-8.7,10.9c-1.2,0.2-1.9,0.7-1.9,1.8
			c0,0.9,0.7,1.4,1.9,1.4h31.1c1.2,0,1.9-0.5,1.9-1.4c0-1.1-0.7-1.6-1.9-1.8c-6.7-0.9-8.7-4.2-8.7-10.9V94.9z"/>
		<path class="st1" d="M381.7,96.5c0.3-8.7,1.9-11.7,8.7-12.5c1.2-0.2,1.9-0.7,1.9-1.8c0-0.9-0.7-1.4-1.9-1.4h-26.7
			c-0.7,0-1.2,0.7-1.2,1.6c0,0.7,0.5,1.4,1.4,1.6c5.6,0.9,9.7,2.1,10.4,12.5c0.9,12.2,1.1,46.6,1.1,46.6l-55.6-62.3h-22.1
			c-1.2,0-1.9,0.5-1.9,1.4c0,1.1,0.7,1.6,1.9,1.8c3.7,0.5,8.6,2.3,8.6,8.1c0,17.5,0,40.4-0.7,59.2c-0.4,8.7-1.9,11.7-8.7,12.5
			c-1.2,0.2-1.9,0.7-1.9,1.8c0,0.9,0.7,1.4,1.9,1.4h26.7c0.7,0,1.2-0.7,1.2-1.6c0-0.7-0.5-1.4-1.4-1.6c-5.7-0.9-9.7-2.1-10.4-12.5
			c-0.7-12.2-1.1-56.7-1.1-56.7l65,72.4h4.1C381,166.9,381,115.2,381.7,96.5L381.7,96.5z"/>
		<path class="st1" d="M127.1,107.1c0.2-9.9,1.8-18.2,21-20.8c1.9-0.4,3-1.2,3-3c0-1.4-1.1-2.5-2.7-2.5c-12,0.5-17.3,0.5-32.1,0.5
			c-12.7,0-29-0.5-31.4-0.5c-2.1,0-3.4,0.9-3.4,2.5c0,1.4,1.1,2.5,3,2.6c6.9,1.1,17.5,2.6,18.2,22.6c0.2,6.2,0.4,36.7,0.4,69.9
			c0,21.4-0.2,40.1-0.5,48.7c-0.7,20-11.3,21.5-18.2,22.6c-1.9,0.2-3,1.2-3,2.6c0,1.6,1.2,2.5,3.4,2.5c2.5,0,18.7-0.5,31.4-0.5
			c14.8,0,22.2,0,34.3,0.5c1.6,0,2.6-1.1,2.6-2.5c0-1.8-1.1-2.6-3-3c-19.2-2.6-22.2-10.9-23.1-20.8c-0.4-4.2-0.7-15-0.7-26.3
			c0-11.3,0.2-22.3,0.4-24.5c0.2-2.6,1.6-3.5,3-3.5c1.2,0,2.5,0.5,3.4,1.2c12,10.1,48.9,54,69.9,79.5h44.9c1.8,0,2.5-0.9,2.5-2.3
			c0-1.6-1.1-2.8-2.5-2.8c-8.5-0.9-13.8-2.5-24.4-10.9c-10.9-8.7-72.4-82.1-72.4-82.1c4.8-5.5,33-34.3,49.3-48.9
			c19.1-17.3,26.5-19.6,34.6-21.5c1.2-0.4,2.1-1.1,2.1-2.6c0-1.6-1.1-2.8-3.5-2.8c-4.2,0-17,0.5-25.1,0.5c-14.1,0-25.8-0.5-28.3-0.5
			c-2.1,0-3.7,1.1-3.7,2.8c0,1.6,1.4,2.6,3.4,3c2.8,0.5,5.3,0.9,8.1,1.9c2.8,1.1,4.4,2.3,4.4,5.3c0,2.8-1.2,5.3-2.8,7.8
			c-3.9,6-8.3,11.5-15.4,18.9c-16.8,17.3-37.4,37.8-44.3,43.4c-0.7,0.5-1.2,0.7-1.8,0.7c-1.1,0-1.4-1.2-1.4-2.5
			C126.6,160.7,126.7,128.6,127.1,107.1L127.1,107.1z"/>
	</g>
	<g>
		<path class="st1" d="M87.5,289c-0.7,0-1.2,0.5-1.2,1.4c0,0.7,0.7,1.4,1.6,1.4c5.8,0.4,7.9,4.2,7.9,9.9v49.1c0,5.6-2.1,9.4-7.9,9.9
			c-0.9,0-1.6,0.7-1.6,1.4c0,0.9,0.5,1.4,1.2,1.4h62.3l3.9-20.8c0.4-1.4-0.4-2.3-1.4-2.3c-0.9,0-1.6,0.5-1.9,1.4
			c-5.5,15.2-14.1,16.9-27,16.9c-13.1,0-15.9-2.1-15.9-8.1v-50.9c0-6,5.1-7.6,8.8-7.8c1.1-0.2,1.6-0.7,1.6-1.4
			c0-0.9-0.7-1.6-1.8-1.6H87.5z"/>
		<path class="st1" d="M196.3,364c21.9,0,37.4-15.2,37.4-38.5c0-20.5-15.2-37.1-37.4-37.1c-21.5,0-37.1,16.9-37.1,37.1
			C159.2,347.4,173.9,364,196.3,364L196.3,364z M171.8,325.5c0-18.4,8.8-32.3,24.5-32.3c13.9,0,24.9,13.2,24.9,32.3
			c0,23.5-9.9,33.7-24.9,33.7C181.7,359.3,171.8,345.1,171.8,325.5L171.8,325.5z"/>
		<path class="st1" d="M312.9,363.5l0.4-61.8c0-5.6,2.1-9,7.9-9.9c1.1-0.2,1.6-0.7,1.6-1.4c0-0.9-0.5-1.4-1.2-1.4h-23.3
			c-0.9,0-1.4,0.5-1.4,1.4c0,0.7,0.5,1.2,1.6,1.4c5.8,1.1,8.7,2.8,8.8,9.9l0.9,42.4l-47-55.1h-20c-0.9,0-1.4,0.5-1.4,1.4
			c0,0.9,0.5,1.4,1.6,1.6c4.9,0.7,7.2,2.3,7.2,7.1l-0.4,51.7c0,5.6-2.1,9-7.9,9.9c-1.1,0.2-1.6,0.7-1.6,1.4c0,0.9,0.4,1.4,1.2,1.4
			h23.3c0.9,0,1.4-0.5,1.4-1.4c0-0.7-0.5-1.2-1.6-1.4c-4.1-0.7-8.7-1.8-8.8-9.9l-0.5-52.1l55.1,64.8H312.9z"/>
		<path class="st1" d="M330,289c-0.7,0-1.2,0.5-1.2,1.4c0,0.9,0.7,1.4,1.6,1.4c5.8,0.5,7.9,4.2,7.9,9.9v49.1c0,5.6-2.1,9.4-7.9,9.9
			c-1.1,0.2-1.6,0.7-1.6,1.4c0,0.9,0.5,1.4,1.2,1.4h35.8c15.5,0,41.3-7.9,41.3-38c0-26.7-20.5-36.6-41.7-36.6H330z M350.1,301
			c0-6.7,3.5-7.2,12.9-7.2c15.7,0,31.6,7.6,31.6,31.4c0,23.5-13.4,33.5-30.9,33.5h-3.9c-4.9,0-9.7-1.4-9.7-10.4V301z"/>
		<path class="st1" d="M454.1,364c21.9,0,37.4-15.2,37.4-38.5c0-20.5-15.2-37.1-37.4-37.1c-21.5,0-37.1,16.9-37.1,37.1
			C417,347.4,431.7,364,454.1,364L454.1,364z M429.6,325.5c0-18.4,8.8-32.3,24.5-32.3c14,0,24.9,13.2,24.9,32.3
			c0,23.5-9.9,33.7-24.9,33.7C439.5,359.3,429.6,345.1,429.6,325.5L429.6,325.5z"/>
		<path class="st1" d="M570.5,363.5l0.4-61.8c0-5.6,2.1-9,7.9-9.9c1.1-0.2,1.6-0.7,1.6-1.4c0-0.9-0.5-1.4-1.2-1.4h-23.3
			c-0.9,0-1.4,0.5-1.4,1.4c0,0.7,0.5,1.2,1.6,1.4c5.8,1.1,8.7,2.8,8.8,9.9l0.9,42.4l-47-55.1h-20c-0.9,0-1.4,0.5-1.4,1.4
			c0,0.9,0.5,1.4,1.6,1.6c4.9,0.7,7.2,2.3,7.2,7.1l-0.4,51.7c0,5.6-2.1,9-7.9,9.9c-1.1,0.2-1.6,0.7-1.6,1.4c0,0.9,0.4,1.4,1.2,1.4
			h23.3c0.9,0,1.4-0.5,1.4-1.4c0-0.7-0.5-1.2-1.6-1.4c-4.1-0.7-8.7-1.8-8.8-9.9l-0.5-52.1l55.1,64.8H570.5z"/>
	</g>
</g>
</svg>
