<?xml version="1.0" encoding="utf-8"?>
<!-- Generator: Adobe Illustrator 23.0.6, SVG Export Plug-In . SVG Version: 6.00 Build 0)  -->
<svg version="1.1" id="Layer_1" xmlns="http://www.w3.org/2000/svg" xmlns:xlink="http://www.w3.org/1999/xlink" x="0px" y="0px"
	 viewBox="0 0 469.18 498.42" style="enable-background:new 0 0 469.18 498.42;" xml:space="preserve">
<style type="text/css">
	.st0{fill:#011E41;}
	.st1{fill:#F3C300;}
	.st2{fill:#FFFFFF;}
</style>
<g>
	<rect class="st0" width="469.18" height="498.42"/>
	<path class="st1" d="M234.19,264.84l-68.13-93.67v68.12h27.25v67.27H67.28V239.3h25.55V134.55H67.28V67.28h99l68.24,94.52
		l68.39-94.52h98.99v67.28h-25.55V239.3h25.55v67.27H275.88V239.3h27.25v-68.12L234.19,264.84z"/>
	<path class="st2" d="M334.66,429.93v-2.41c3.06-0.19,5.41-0.45,5.41-2.93c0-0.89-0.26-1.85-0.51-2.67l-1.35-4.59h-15.85l-1.39,3.89
		c-0.32,0.96-0.57,1.85-0.57,2.8c0,3.18,3.37,3.38,6.11,3.5v2.41h-18.52v-2.41c4.71-0.19,6.24-1.15,7.96-5.86l12.16-33.35l-0.7-1.08
		c5.22-1.72,6.68-2.48,8.91-4.14c0.89,3.06,1.02,3.44,2.04,6.62l9.93,30.55c1.78,5.42,2.61,6.75,7.38,7.26v2.41H334.66z
		 M330.64,393.86l-6.61,18.63h12.91L330.64,393.86z M191.13,419.94c-1.99,3.24-6.77,11.2-19.17,11.2c-13.54,0-22.31-9.99-22.31-23.1
		c0-12.16,7.44-24.13,22.62-24.13c7.98,0,12.22,3.38,14.82,5.41l3.08-2.8l0.24,13.62l-2,0.39c-0.78-2.61-1.93-4.71-4.84-7.9
		c-1.39-1.46-4.72-4.39-9.43-4.39c-8.1,0-14.51,6.61-14.51,18.26c0,9.87,5.26,19.16,15.66,19.16c7.86,0,10.81-4.39,13.17-7.76
		L191.13,419.94z M194.45,429.93v-2.41c5.09-0.45,5.16-1.53,5.16-5.86c0.06-1.59,0.06-3.18,0.06-4.77v-18.84
		c0-2.92,0-5.85-0.19-7.26c-0.25-2.67-1.53-3.06-5.03-3.37V385h19.24v2.42c-3.76,0.38-5.16,0.51-5.6,2.99
		c-0.32,1.46-0.38,4.77-0.38,7.45v6.21c3.88,0.19,6.59,0.31,10.34,0.31c3.82,0,6.84-0.13,10.66-0.31v-7.55
		c-0.06-8.21-0.13-8.53-6.24-9.1V385h19.49v2.42c-5.23,0.64-5.23,0.7-5.23,9.23v18.97c0,1.78,0.06,7.45,0.25,8.78
		c0.32,2.36,1.66,2.8,4.97,3.12v2.41h-19.49v-2.41c4.52-0.51,5.73-0.64,6.11-3.76c0.13-1.27,0.13-2.99,0.13-6.24v-8.24
		c-3.56-0.13-6.53-0.31-10.22-0.31c-3.88,0-6.91,0.12-10.79,0.31v8.24c0.06,9.36,0.19,9.36,5.98,10v2.41H194.45z M245.69,429.93
		v-2.41c4.4-0.57,5.29-1.08,5.35-5.8V416v-18.21c-0.06-9.36-0.06-9.61-5.35-10.37V385h18.68v2.42c-5.28,0.51-5.28,0.76-5.28,10.37
		v18.14c0,1.59,0.06,6.62,0.19,7.96c0.32,2.74,1.59,3.38,5.09,3.63v2.41H245.69z M130.37,429.93v-2.41c4.39-0.57,5.28-1.08,5.35-5.8
		V416v-18.21c-0.06-9.36-0.06-9.61-5.35-10.37V385h18.66v2.42c-5.28,0.51-5.28,0.76-5.28,10.37v18.14c0,1.59,0.06,6.62,0.19,7.96
		c0.32,2.74,1.59,3.38,5.09,3.63v2.41H130.37z M106.3,429.93v-2.41c5.67-0.38,5.67-0.64,5.73-8.97v-22.6l-15.72,34.56h-3.95
		l-14.43-35.02l-0.34,26.43c0,4.39,0.51,5.22,5.29,5.6v2.41h-15.6v-2.41c3.63-0.19,5.03-0.7,5.28-3.76
		c0.13-1.21,0.32-4.97,0.38-7.45l0.64-18.84c0.06-1.46,0.06-3.63,0.06-5.22c0-4.45-0.89-4.77-4.9-4.84V385h14.13l14.01,34.12
		l15.4-34.12h13.68v2.67c-5.35,0.31-5.41,0.89-5.35,7.89v18.52c0,3.06,0.06,6.87,0.25,9.17c0.25,3.31,1.53,3.95,5.09,4.27v2.41
		H106.3z M354.35,429.93v-2.41c3.69-0.19,5.09-0.25,5.6-2.8c0.64-3,0.83-29.66,0.89-34.31c-2.48-2.29-3.5-2.74-6.49-2.99V385h13.49
		c3.76,5.35,4.58,6.55,11.2,14.76l12.54,15.53v-20.11c-0.06-7.13-0.25-7.51-7.38-7.76V385h17.7v2.42c-4.9,0.06-5.35,1.08-5.41,8.4
		l-0.64,34.69h-2.67l-4.01-5.03c-2.04-2.55-4.07-5.09-6.11-7.58L365.3,396v23.31c0,7.26,0.51,7.51,7.38,8.21v2.41H354.35z
		 M309.99,410.07v2.41c-4.07,0.25-4.07,1.4-4.18,9.93v3.38c-3.49,2.16-8.48,5.28-17.3,5.28c-15.47,0-22.86-11.71-22.86-23.49
		c0-14.38,9.74-23.74,21.94-23.74c7.68,0,12.09,2.86,15.76,5.09l2.35-2.67l0.34,14.07l-1.83,0.32c-0.91-2.67-2.29-5.76-5.67-9.14
		c-1.49-1.46-4.36-3.34-8.88-3.34c-7.85,0-14.38,6.62-14.38,19.55c0,10.31,5.1,19.16,13.86,19.16c4.98,0,7.56-3.5,7.79-3.76
		c0.8-1.21,0.99-2.29,0.92-4.27c-0.2-5.72-0.97-5.85-5.96-6.37v-2.41H309.99z"/>
	<path class="st2" d="M377.93,355.98c0,10.27-7,15.65-14.87,15.65c-8.64,0-15.39-6.23-15.39-15.7c0-8.12,5.44-15.44,14.99-15.4
		C371.65,340.58,377.93,346.98,377.93,355.98z M363.09,368.9c1.68-0.05,4.05-0.88,5.88-3.67c2.1-3.23,2.53-6.18,2.41-10.05
		c-0.12-3.83-1.19-7.12-3.37-9.45c-0.96-1.02-2.84-2.52-5.32-2.45c-2.48,0-4.31,1.56-5.24,2.61c-2.11,2.4-3.08,5.72-3.08,9.55
		c0,3.87,0.52,6.81,2.72,9.97C359.02,368.14,361.41,368.9,363.09,368.9z M379.37,369.24v1.64h12.3v-1.64
		c-3.07-0.3-3.45-0.59-3.53-3.83l0.02-8.48h3.28c3.32,0,5.09,0.31,5.3,3.64h1.43v-9.8h-1.43c-0.17,3.2-1.05,3.52-4.67,3.52h-3.91
		l0-10.29c1.05-0.13,1.64-0.17,3.54-0.17c5.81,0,7.68-0.02,8.46,4.63h1.47l-0.46-7.28h-21.79v1.6c2.15,0.21,3.07,0.34,3.36,1.72
		c0.21,0.93,0.25,4.21,0.25,5.39l-0.01,10.44c0,0.8-0.04,4.38-0.08,5.09C382.82,368.65,382.44,368.94,379.37,369.24z M136.18,370.67
		v-1.6c2.9-0.38,3.49-0.71,3.53-3.83v-3.79v-12.03c-0.04-6.19-0.04-6.35-3.53-6.86v-1.6h12.34v1.6c-3.49,0.34-3.49,0.51-3.49,6.86
		v11.99c0,1.05,0.04,4.38,0.13,5.26c0.21,1.81,1.05,2.23,3.36,2.4v1.6H136.18z M259.4,370.67v-1.6c2.9-0.38,3.49-0.71,3.54-3.83
		v-3.79v-12.03c-0.04-6.19-0.04-6.35-3.54-6.86v-1.6h12.33v1.6c-3.49,0.34-3.49,0.51-3.49,6.86v11.99c0,1.05,0.04,4.38,0.13,5.26
		c0.21,1.81,1.05,2.23,3.36,2.4v1.6H259.4z M101.55,370.67v-1.6c2.44-0.13,3.37-0.17,3.7-1.85c0.42-1.98,0.55-19.61,0.59-22.68
		c-1.64-1.51-2.31-1.81-4.29-1.98v-1.6h8.92c2.48,3.53,3.03,4.33,7.41,9.76l8.29,10.27V347.7c-0.04-4.71-0.17-4.97-4.88-5.14v-1.6
		h11.7v1.6c-3.24,0.04-3.53,0.71-3.58,5.56l-0.42,22.93h-1.77l-2.65-3.32c-1.35-1.69-2.69-3.37-4.04-5.01l-11.74-14.48v15.41
		c0,4.8,0.34,4.97,4.88,5.43v1.6H101.55z M236.35,361.41l1.52-0.16c1.64,4.83,4.38,7.44,8.85,7.44c3.16,0,5.94-1.34,5.94-4.54
		c0-3.36-3.24-4.71-4.67-5.3c-1.18-0.46-2.44-0.84-3.62-1.3c-2.44-0.88-7.04-2.78-7.04-8.54c0-5.56,4.38-8.67,9.48-8.67
		c1.98,0,4.3,0.42,6.83,2.02l1.81-1.3l0.97,8.83l-1.47,0.3c-0.51-1.94-0.89-2.84-2.06-4.4c-1.43-1.85-3.45-2.71-5.81-2.71
		c-3.16,0-5.01,1.51-5.01,3.87c0,3.53,3.5,4.71,6.83,5.81c1.69,0.54,3.07,1.01,4.29,1.72c2.36,1.39,4.29,4,4.29,7.58
		c0,5.13-4.21,9.38-10.48,9.38c-4.05,0-6.53-1.6-7.71-2.35l-2.48-1.81L236.35,361.41z M282.18,370.67v-1.26
		c2.74-0.04,3.49-1.05,3.49-3.41v-21.88h-3.7c-3.37,0-5.6-0.13-5.85,5.17h-1.56l0.25-8.33h27.01l0.25,8.33h-1.56
		c-0.25-5.3-2.48-5.17-5.85-5.17h-3.7V366c0,2.36,0.76,3.37,3.49,3.41l0,1.26H282.18z M80.37,340.96v1.6c-3.95,0.3-3.95,0.42-4,6.74
		v6.98c0,3.62,0.07,6.72,1.98,9.51c1.52,2.21,4.1,2.5,5.41,2.5c4.25,0,6.58-2.21,7.59-5.7c0.84-2.78,0.88-7.99,0.88-11.44
		c0-1.1,0-4.63-0.04-5.6c-0.17-2.69-1.56-2.78-4.21-2.99v-1.6h11.32v1.6c-2.78-0.04-3.37,0.59-3.54,3.53
		c-0.04,0.72-0.38,8.97-0.42,10.23c-0.08,2.27-0.21,4.5-0.71,6.65c-2.02,7.99-9.81,8.41-11.87,8.41c-1.64,0-5.01-0.25-7.78-2.1
		c-4.42-2.99-4.46-7.45-4.46-12.25v-6.73c-0.04-3.2-0.04-4.63-0.13-5.39c-0.25-1.85-1.18-2.23-3.41-2.36v-1.6H80.37z M181.05,340.96
		v1.6c-2.86,0.42-3.24,1.22-5.68,7.11l-9.05,21.59h-1.6l-8.12-21.92c-2.02-5.64-2.27-6.31-5.26-6.78v-1.6h14.1v1.6
		c-2.4,0.08-3.96,0.17-3.96,1.89c0,0.84,0.21,1.56,1.01,4.04l5.18,15.1l6.06-15.61c0.38-1.05,0.88-2.4,0.88-3.15
		c0-2.15-2.1-2.23-3.95-2.28v-1.6H181.05z M312.78,370.67v-1.6c2.31-0.25,3.2-0.34,3.79-0.93c0.67-0.67,0.67-1.43,0.71-4.67v-5.22
		l-7.91-12.25c-2.15-3.19-2.19-3.28-5.05-3.45v-1.64h15.49v1.64c-3.11,0.08-4.5,0.17-4.5,1.6c0,0.8,0.55,1.72,1.3,2.99l4.55,7.44
		l4.2-7.4c0.76-1.47,1.18-2.35,1.18-3.03c0-1.43-1.22-1.47-3.28-1.6v-1.64h11.62v1.64c-2.99,0.08-3.87,0.97-7.28,6.52l-4.63,7.74
		v6.19c0,5.39,0.04,5.8,4.46,6.06v1.6H312.78z M204.96,370.67c0-2.14,0.38-5.68,0.63-7.7h-1.43c-1.01,5.3-4,5.05-8.29,5.05
		c-3.95,0-4.75-1.05-4.75-2.99v-8.31h3.2c3.66,0,4.71,0.31,4.71,3.64h1.43v-9.81h-1.43c-0.29,2.65-0.84,3.52-4.67,3.52h-3.24v-10.46
		h3.66c5.05,0,6.86,0.38,7.53,4.42h1.35l-0.17-7.07h-21.16v1.6c2.15,0.21,3.07,0.34,3.37,1.72c0.21,0.93,0.25,4.21,0.25,5.39v10.44
		c0,0.8-0.04,4.38-0.08,5.09c-0.08,3.24-0.46,3.53-3.53,3.83v1.64H204.96z M217.23,354.74c0.8,0.16,1.94,0.29,2.78,0.29
		c3.38,0.01,5.93-2.64,6.06-5.02c0.18-3.45-1.56-6.43-7.03-6.43c-0.76,0-1.22,0.04-1.81,0.17V354.74z M217.23,361.21
		c0.04,6.81,0.04,7.73,3.62,7.81v1.65h-12.4v-1.65c3.2-0.25,3.53-0.76,3.58-3.95c0.04-1.22,0.04-2.6,0.04-3.82V350.5
		c0-3.58-0.04-4.83-0.17-5.8c-0.21-1.64-1.01-1.94-3.45-2.14v-1.6L221.9,341c7.32,0,9.63,3.49,9.63,7.61c0,2.86-1.77,6.58-5.85,7.85
		l5.26,9.15c1.89,3.49,2.9,4.3,5.3,4.63v1.01c-0.63,0.04-1.26,0.08-1.94,0.08c-5.59,0-7.91-1.94-10.27-6.94l-1.64-3.5
		c-1.76-3.74-2.35-3.51-5.17-3.55L217.23,361.21z"/>
</g>
</svg>
