<?xml version="1.0" encoding="utf-8"?>
<!-- Generator: Adobe Illustrator 22.0.1, SVG Export Plug-In . SVG Version: 6.00 Build 0)  -->
<svg version="1.1" id="Layer_1" xmlns="http://www.w3.org/2000/svg" xmlns:xlink="http://www.w3.org/1999/xlink" x="0px" y="0px"
	 viewBox="0 0 1005.1 261.7" enable-background="new 0 0 1005.1 261.7" xml:space="preserve">
<path fill="#0C2638" d="M20.1,22.1c-0.8,0-1.5-0.7-1.5-1.5v-3.4c0-0.8,0.7-1.5,1.5-1.5h15.4c0.8,0,1.5,0.7,1.5,1.5v29.1
	c0,0.5,0.3,0.8,0.8,0.8h9.6c0.8,0,1.5,0.7,1.5,1.5V52c0,0.8-0.7,1.5-1.5,1.5h-28c-0.8,0-1.5-0.7-1.5-1.5v-3.4c0-0.8,0.7-1.5,1.5-1.5
	h9.9c0.5,0,0.8-0.3,0.8-0.8V22.9c0-0.5-0.3-0.8-0.8-0.8H20.1z M37.2,6.4c0,0.7-0.5,1.2-1.2,1.2h-5.1c-0.7,0-1.2-0.5-1.2-1.2V1.2
	c0-0.6,0.5-1.2,1.2-1.2H36c0.7,0,1.2,0.6,1.2,1.2V6.4z"/>
<path fill="#0C2638" d="M73.1,14.9c7.9,0,14.4,6.1,14.4,14.4V52c0,0.8-0.7,1.5-1.5,1.5h-3.8c-0.8,0-1.5-0.7-1.5-1.5V29.3
	c0-4.4-3.6-7.6-8.3-7.6S64,24.5,64,28.9V52c0,0.8-0.7,1.5-1.5,1.5h-3.8c-0.8,0-1.5-0.7-1.5-1.5V17.2c0-0.8,0.7-1.5,1.5-1.5H62
	c0.5,0,0.8,0.2,1.1,0.5c0.5,0.5,1.1,1.2,1.9,1.2C67.2,17.4,67.8,14.9,73.1,14.9z"/>
<path fill="#0C2638" d="M98.6,39.7h3.8c0.8,0,1.5,0.7,1.5,1.5c0,5.5,4.7,6.6,8.2,6.6c4.1,0,8.1-1.1,8.1-5.6c0-3.3-3.7-4.3-8.1-5.2
	c-6.2-1.3-13.7-2.8-13.7-11c0-6.8,6.8-11,13.7-11c6.8,0,13.5,4.2,13.5,11.4c0,0.8-0.7,1.5-1.5,1.5h-3.8c-0.8,0-1.5-0.7-1.5-1.5
	c0-2.6-2-4.9-6.7-4.9c-4.7,0-6.7,2.3-6.7,4.5c0,2.7,3,3.6,6.7,4.2c6.4,1.1,14.9,2.5,14.9,12c0,8.1-7,12.1-14.9,12.1
	c-7.6,0-15-3.8-15-13.1C97.1,40.3,97.7,39.7,98.6,39.7z"/>
<path fill="#0C2638" d="M151.8,42.1c0,2.7,2.2,5.3,5.3,5.3c3.1,0,5.3-2.6,5.3-5.3c0-0.8,0.7-1.5,1.5-1.5h3.8c0.8,0,1.5,0.7,1.5,1.5
	c0,6.7-5.4,12.1-12.1,12.1c-6.7,0-12.1-5.4-12.1-12.1V23.6c0-0.5-0.3-0.8-0.8-0.8h-7.6c-0.8,0-1.5-0.7-1.5-1.5v-3.8
	c0-0.8,0.7-1.5,1.5-1.5h7.6c0.5,0,0.8-0.3,0.8-0.8V3.6c0-0.8,0.7-1.5,1.5-1.5h3.8c0.8,0,1.5,0.7,1.5,1.5v11.7c0,0.5,0.3,0.8,0.8,0.8
	h12.1c0.8,0,1.5,0.7,1.5,1.5v3.8c0,0.8-0.7,1.5-1.5,1.5h-12.1c-0.5,0-0.8,0.3-0.8,0.8V42.1z"/>
<path fill="#0C2638" d="M180.5,22.1c-0.8,0-1.5-0.7-1.5-1.5v-3.4c0-0.8,0.7-1.5,1.5-1.5h15.4c0.8,0,1.5,0.7,1.5,1.5v29.1
	c0,0.5,0.3,0.8,0.8,0.8h9.6c0.8,0,1.5,0.7,1.5,1.5V52c0,0.8-0.7,1.5-1.5,1.5h-28c-0.8,0-1.5-0.7-1.5-1.5v-3.4c0-0.8,0.7-1.5,1.5-1.5
	h9.9c0.5,0,0.8-0.3,0.8-0.8V22.9c0-0.5-0.3-0.8-0.8-0.8H180.5z M197.6,6.4c0,0.7-0.5,1.2-1.2,1.2h-5.1c-0.7,0-1.2-0.5-1.2-1.2V1.2
	c0-0.6,0.5-1.2,1.2-1.2h5.1c0.7,0,1.2,0.6,1.2,1.2V6.4z"/>
<path fill="#0C2638" d="M232,42.1c0,2.7,2.2,5.3,5.3,5.3c3.1,0,5.3-2.6,5.3-5.3c0-0.8,0.7-1.5,1.5-1.5h3.8c0.8,0,1.5,0.7,1.5,1.5
	c0,6.7-5.4,12.1-12.1,12.1c-6.7,0-12.1-5.4-12.1-12.1V23.6c0-0.5-0.3-0.8-0.8-0.8h-7.6c-0.8,0-1.5-0.7-1.5-1.5v-3.8
	c0-0.8,0.7-1.5,1.5-1.5h7.6c0.5,0,0.8-0.3,0.8-0.8V3.6c0-0.8,0.7-1.5,1.5-1.5h3.8c0.8,0,1.5,0.7,1.5,1.5v11.7c0,0.5,0.3,0.8,0.8,0.8
	h12.1c0.8,0,1.5,0.7,1.5,1.5v3.8c0,0.8-0.7,1.5-1.5,1.5h-12.1c-0.5,0-0.8,0.3-0.8,0.8V42.1z"/>
<path fill="#0C2638" d="M271.7,54.3c-8.5,0-14.4-6.1-14.4-14.4V17.2c0-0.8,0.7-1.5,1.5-1.5h3.8c0.8,0,1.5,0.7,1.5,1.5v22.7
	c0,4.4,3.1,7.6,8.3,7.6c4.7,0,8.3-2.8,8.3-7.2V17.2c0-0.8,0.7-1.5,1.5-1.5h3.8c0.8,0,1.5,0.7,1.5,1.5V52c0,0.8-0.7,1.5-1.5,1.5h-3.3
	c-0.5,0-0.8-0.2-1.1-0.5c-0.5-0.5-1.1-1.2-1.9-1.2C277.6,51.8,277.3,54.3,271.7,54.3z"/>
<path fill="#0C2638" d="M312.2,42.1c0,2.7,2.2,5.3,5.3,5.3c3.1,0,5.3-2.6,5.3-5.3c0-0.8,0.7-1.5,1.5-1.5h3.8c0.8,0,1.5,0.7,1.5,1.5
	c0,6.7-5.4,12.1-12.1,12.1c-6.7,0-12.1-5.4-12.1-12.1V23.6c0-0.5-0.3-0.8-0.8-0.8H297c-0.8,0-1.5-0.7-1.5-1.5v-3.8
	c0-0.8,0.7-1.5,1.5-1.5h7.6c0.5,0,0.8-0.3,0.8-0.8V3.6c0-0.8,0.7-1.5,1.5-1.5h3.8c0.8,0,1.5,0.7,1.5,1.5v11.7c0,0.5,0.3,0.8,0.8,0.8
	H325c0.8,0,1.5,0.7,1.5,1.5v3.8c0,0.8-0.7,1.5-1.5,1.5h-12.1c-0.5,0-0.8,0.3-0.8,0.8V42.1z"/>
<path fill="#0C2638" d="M353,47.4c3.9,0,6.9-2,7.8-4.8c0.3-1,1.1-1.3,1.7-1.3h3.9c0.8,0,1.4,0.5,1.3,1.5
	c-0.9,6.6-6.8,11.3-14.7,11.3c-9.1,0-14.9-6.4-15.5-14.4c-0.2-3-0.2-7.6,0-10.6c0.6-7.9,6.4-14.4,15.5-14.4
	c9.2,0,15.1,5.7,15.1,15.1v5.2c0,0.8-0.7,1.5-1.5,1.5h-21.6c-0.5,0-0.8,0.3-0.8,0.8C344.2,44.4,347.7,47.4,353,47.4z M345.1,30.7
	h15.7c0.5,0,0.8-0.3,0.8-0.8c0-5.2-3.9-8.2-8.6-8.2c-5.2,0-8.7,3.6-8.7,8.2C344.3,30.4,344.6,30.7,345.1,30.7z"/>
<path fill="#0C2638" d="M431.7,29.3c0.2,3,0.2,7.6,0,10.6c-0.6,7.9-6.4,14.4-15.5,14.4s-14.9-6.4-15.5-14.4c-0.2-3-0.2-7.6,0-10.6
	c0.6-7.9,6.4-14.4,15.5-14.4S431.1,21.3,431.7,29.3z M424.9,39.9c0.2-3.1,0.2-7.5,0-10.6c-0.3-4-3.5-7.6-8.7-7.6s-8.4,3.6-8.7,7.6
	c-0.2,3.1-0.2,7.5,0,10.6c0.3,4,3.5,7.6,8.7,7.6S424.6,43.9,424.9,39.9z"/>
<path fill="#0C2638" d="M441.3,22.9c-0.8,0-1.5-0.7-1.5-1.5v-3.8c0-0.8,0.7-1.5,1.5-1.5h9.5c0.5,0,0.8-0.3,0.8-0.8v-1.1
	c0-7.9,6.1-14.2,14-14.2h4.5c0.8,0,1.5,0.7,1.5,1.5v3.6c0,0.8-0.7,1.5-1.5,1.5h-4.5c-4,0-7.2,3.8-7.2,7.6v1.1c0,0.5,0.3,0.8,0.8,0.8
	h12.3c0.8,0,1.5,0.7,1.5,1.5v3.8c0,0.8-0.7,1.5-1.5,1.5h-12.3c-0.5,0-0.8,0.3-0.8,0.8V52c0,0.8-0.7,1.5-1.5,1.5H453
	c-0.8,0-1.5-0.7-1.5-1.5V23.6c0-0.5-0.3-0.8-0.8-0.8H441.3z"/>
<path fill="#846CAB" d="M86.2,251.3l0,7.8C41.8,259,4.9,224.9,0.4,181.7c-0.1-0.7-0.1-1.4-0.2-2.1c0-0.1,0-0.1,0-0.2
	c-0.1-0.7-0.1-1.4-0.1-2.1v0l0-4.4v-3.2c5.5,0,11,0.6,16.2,1.6c7.8,1.5,15.3,4.1,22.3,7.7c2.6,21.2,19,38.1,39.9,41.6
	C82.9,230,85.6,240.4,86.2,251.3z"/>
<path fill="#3680C3" d="M127.9,197.3l33,19.4c-15,25.5-42.8,42.7-74.5,42.7c-45.5,0-82.8-35.1-86.2-79.8
	c3.5,44.2,40.9,79.4,85.9,79.5l0-7.8c-0.6-10.9-3.2-21.3-7.6-30.8c2.6,0.4,5.2,0.6,7.8,0.6C104.1,221.1,119.6,211.6,127.9,197.3z"/>
<path fill="#FBDFE2" d="M78.6,220.5c-20.9-3.4-37.3-20.4-39.9-41.6C56.2,187.8,70.4,202.5,78.6,220.5z"/>
<path fill="#25B5E8" d="M457,89.8h-74.2v36.8H457c25.6,0,46.3,20.7,46.3,46.3c0,25.6-20.7,46.3-46.3,46.3V256
	c45.9,0,83.1-37.2,83.1-83.1C540.2,127,502.9,89.8,457,89.8z"/>
<path fill="#FCC013" d="M1005.1,161.3v98.1h-41.7v-6.1c17.2-7.2,31.9-19.8,41.6-36.3l-1.2-0.7c-9.5,16.1-23.8,28.4-40.5,35.5v-5
	c15.8-6.7,29.3-18.2,38.2-33.1l-1.2-0.7c-8.7,14.5-21.8,25.7-37.1,32.3v-4.6c13.6-6.4,25.2-16.6,33.1-29.7l-1.2-0.7
	c-7.6,12.7-18.8,22.6-31.9,28.9v-4.1c11.6-6,21.6-15.1,28.4-26.6l-1.2-0.7c-6.6,11.1-16.1,19.9-27.2,25.8v-4.5
	c9.6-5.5,17.7-13.4,23.5-23.2l-1.2-0.7c-5.5,9.3-13.3,16.9-22.4,22.3v-5.4c7.3-4.9,13.5-11.4,18.1-19.1l-1.2-0.7
	c-4.3,7.3-10.2,13.4-17,18.1v-5.3c5.1-4.1,9.6-9.1,13-14.9l-1.2-0.7c-3.1,5.3-7.2,10-11.8,13.9v-5c3.3-3.1,6.3-6.8,8.7-10.8
	l-1.2-0.7c-2.1,3.6-4.6,6.8-7.5,9.6v-8.2h-37.3v-37.1H1005.1z"/>
<g>
	<path fill="#FCC013" d="M972.1,197.7c-2.4,4.1-5.3,7.7-8.7,10.8v-1.9c2.9-2.8,5.4-6.1,7.5-9.6L972.1,197.7z"/>
</g>
<g>
	<path fill="#FCC013" d="M1005.1,217.1c-9.7,16.5-24.5,29.1-41.6,36.3v-1.5c16.7-7.1,31-19.4,40.5-35.5L1005.1,217.1z"/>
</g>
<g>
	<path fill="#FCC013" d="M976.4,200.3c-3.4,5.8-7.9,10.8-13,14.9v-1.7c4.7-3.8,8.7-8.5,11.8-13.9L976.4,200.3z"/>
</g>
<g>
	<path fill="#FCC013" d="M981.6,203.1c-4.6,7.7-10.8,14.2-18.1,19.1v-1.6c6.8-4.7,12.7-10.9,17-18.1L981.6,203.1z"/>
</g>
<g>
	<path fill="#FCC013" d="M987,205.9c-5.8,9.7-13.9,17.6-23.5,23.2v-1.6c9.1-5.4,16.8-13,22.4-22.3L987,205.9z"/>
</g>
<g>
	<path fill="#FCC013" d="M991.8,208.5c-6.8,11.5-16.8,20.6-28.4,26.6v-1.5c11.1-5.9,20.6-14.7,27.2-25.8L991.8,208.5z"/>
</g>
<g>
	<path fill="#FCC013" d="M996.6,211c-7.9,13.1-19.5,23.3-33.1,29.7v-1.5c13.1-6.3,24.3-16.2,31.9-28.9L996.6,211z"/>
</g>
<g>
	<path fill="#FCC013" d="M1001.7,213.8c-9,14.9-22.5,26.4-38.2,33.1v-1.5c15.3-6.6,28.4-17.8,37.1-32.3L1001.7,213.8z"/>
</g>
<polygon fill="#FCC013" points="573.1,173 573.1,214.3 614.4,214.3 614.4,214.3 573.1,173 "/>
<polygon fill="#7BBA47" points="573.1,173 614.4,214.3 614.4,173 "/>
<path fill="#7BBA47" d="M573.1,90.2L573.1,90.2c0,22.8,18.5,41.3,41.3,41.3l0,0v0L573.1,90.2L573.1,90.2z"/>
<polygon fill="#FCC013" points="573.1,90.2 614.4,131.5 614.4,90.2 "/>
<polygon fill="#3680C3" points="573.1,131.6 573.1,172.9 614.4,131.6 "/>
<polygon fill="#FCC013" points="614.4,131.6 573.1,172.9 614.4,172.9 "/>
<polygon fill="#3680C3" points="614.4,255.7 614.4,214.4 573.1,255.7 "/>
<polygon fill="#7BBA47" points="573.1,214.4 573.1,255.7 573.1,255.7 614.4,214.4 614.4,214.4 "/>
<rect x="769.3" y="89.9" fill="#CB6FAA" width="41.3" height="166.2"/>
<g>
	<path fill="#FCC013" d="M351.6,171.5c-0.9-46.8-39.1-84.5-86.1-84.5c-47.6,0-86.1,38.6-86.1,86.1c0,47.6,38.6,86.1,86.1,86.1
		c47.2,0,85.6-38,86.1-85.1c0-0.4,0-0.9,0-1.4C351.6,172.4,351.6,171.9,351.6,171.5z M217.1,173.1c0-26.7,21.7-48.4,48.4-48.4
		c26.7,0,48.4,21.7,48.4,48.4c0,2.2-0.1,4.4-0.4,6.6c-2.9,21.4-19.8,38.4-41.2,41.3c-2.2,0.3-4.5,0.5-6.8,0.5
		C238.8,221.5,217.1,199.8,217.1,173.1z"/>
</g>
<g>
	<path fill="#DC3B20" d="M313.4,179.7c-2.9,21.4-19.8,38.4-41.2,41.3C280.7,202.9,295.4,188.3,313.4,179.7z"/>
</g>
<g>
	<path fill="#F18724" d="M351.6,172.8c0,0.4,0,0.9,0,1.4c-0.7,46.5-38.3,84.1-84.8,84.8c-0.4,0-0.9,0-1.4,0s-0.9,0-1.4,0
		c0-0.4,0-0.9,0-1.4c0-5.2,0.5-10.3,1.4-15.3c1.3-7.5,3.6-14.6,6.8-21.2c21.4-3,38.3-19.9,41.2-41.3c6.7-3.2,13.9-5.5,21.5-6.9
		c5-0.9,10.1-1.4,15.3-1.4c0.4,0,0.9,0,1.4,0C351.6,171.9,351.6,172.4,351.6,172.8z"/>
</g>
<g>
	<circle fill="#FCC013" cx="702.8" cy="99.1" r="4"/>
	<circle fill="#FCC013" cx="710.8" cy="110.8" r="4"/>
	<circle fill="#FCC013" cx="718.8" cy="122.6" r="4"/>
	<circle fill="#FCC013" cx="726.8" cy="134.4" r="4"/>
	<circle fill="#FCC013" cx="734.8" cy="146.1" r="4"/>
	<circle fill="#FCC013" cx="742.8" cy="157.9" r="4"/>
	<circle fill="#FCC013" cx="750.8" cy="169.7" r="4"/>
	<circle fill="#FCC013" cx="758.8" cy="181.4" r="4"/>
	<circle fill="#FCC013" cx="766.8" cy="193.2" r="4"/>
	<circle fill="#FCC013" cx="774.8" cy="205" r="4"/>
	<circle fill="#FCC013" cx="782.8" cy="216.7" r="4"/>
	<circle fill="#FCC013" cx="790.8" cy="228.5" r="4"/>
	<circle fill="#FCC013" cx="798.7" cy="240.3" r="4"/>
	<circle fill="#FCC013" cx="806.7" cy="252" r="4"/>
</g>
<circle fill="#FCC013" cx="702.8" cy="122.7" r="4"/>
<circle fill="#FCC013" cx="710.8" cy="134.4" r="4"/>
<circle fill="#FCC013" cx="718.8" cy="146.2" r="4"/>
<circle fill="#FCC013" cx="726.8" cy="158" r="4"/>
<circle fill="#FCC013" cx="734.8" cy="169.7" r="4"/>
<circle fill="#FCC013" cx="742.8" cy="181.5" r="4"/>
<circle fill="#FCC013" cx="750.8" cy="193.3" r="4"/>
<circle fill="#FCC013" cx="758.8" cy="205" r="4"/>
<circle fill="#FCC013" cx="766.8" cy="216.8" r="4"/>
<circle fill="#FCC013" cx="774.8" cy="228.6" r="4"/>
<circle fill="#FCC013" cx="782.8" cy="240.3" r="4"/>
<circle fill="#FCC013" cx="790.8" cy="252.1" r="4"/>
<circle fill="#FCC013" cx="702.8" cy="146.2" r="4"/>
<circle fill="#FCC013" cx="710.8" cy="158" r="4"/>
<circle fill="#FCC013" cx="718.8" cy="169.8" r="4"/>
<circle fill="#FCC013" cx="726.8" cy="181.5" r="4"/>
<circle fill="#FCC013" cx="734.8" cy="193.3" r="4"/>
<circle fill="#FCC013" cx="742.8" cy="205.1" r="4"/>
<circle fill="#FCC013" cx="750.8" cy="216.8" r="4"/>
<circle fill="#FCC013" cx="758.8" cy="228.6" r="4"/>
<circle fill="#FCC013" cx="766.8" cy="240.4" r="4"/>
<circle fill="#FCC013" cx="774.8" cy="252.1" r="4"/>
<circle fill="#FCC013" cx="702.8" cy="169.8" r="4"/>
<circle fill="#FCC013" cx="710.8" cy="181.6" r="4"/>
<circle fill="#FCC013" cx="718.8" cy="193.4" r="4"/>
<circle fill="#FCC013" cx="726.8" cy="205.1" r="4"/>
<circle fill="#FCC013" cx="734.8" cy="216.9" r="4"/>
<circle fill="#FCC013" cx="742.8" cy="228.7" r="4"/>
<circle fill="#FCC013" cx="750.8" cy="240.4" r="4"/>
<circle fill="#FCC013" cx="758.8" cy="252.2" r="4"/>
<path fill="#0C2638" d="M929.9,261.7c-48.9,0-88.7-39.8-88.7-88.7c0-48.9,39.8-88.7,88.7-88.7c30.6,0,58.6,15.4,75,41.3l-2.8,1.8
	c-15.8-24.9-42.8-39.8-72.2-39.8c-47.1,0-85.4,38.3-85.4,85.4s38.3,85.4,85.4,85.4c29.6,0,56.7-15,72.4-40.1l2.8,1.7
	C988.7,246.1,960.6,261.7,929.9,261.7z"/>
<path fill="none" stroke="#FFFFFF" stroke-width="3.285" stroke-miterlimit="10" d="M1005.1,173"/>
<path fill="#0C2638" d="M929.9,249.8c-42.4,0-76.8-34.5-76.8-76.8s34.5-76.8,76.8-76.8c19.3,0,37.7,7.2,51.9,20.2
	c5,4.6,9.3,9.8,13,15.5l-2.8,1.8c-3.5-5.5-7.6-10.4-12.4-14.8c-13.6-12.5-31.3-19.4-49.7-19.4c-40.6,0-73.6,33-73.6,73.6
	s33,73.6,73.6,73.6c25.6,0,49-13,62.6-34.9l2.8,1.7C981.1,236.2,956.7,249.8,929.9,249.8z"/>
<path fill="none" stroke="#FFFFFF" stroke-width="3.285" stroke-miterlimit="10" d="M991.8,173"/>
<path fill="#0C2638" d="M929.9,236.5c-35,0-63.6-28.5-63.6-63.6s28.5-63.6,63.6-63.6c16.2,0,31.6,6.1,43.4,17.1
	c3.8,3.5,7.1,7.5,9.9,11.8l-2.8,1.8c-2.7-4.1-5.8-7.8-9.4-11.2c-11.2-10.5-25.8-16.3-41.2-16.3c-33.2,0-60.3,27-60.3,60.3
	s27,60.3,60.3,60.3c20.9,0,39.9-10.5,51.1-28.2l2.8,1.8C972,225.4,951.9,236.5,929.9,236.5z"/>
<path fill="none" stroke="#FFFFFF" stroke-width="3.285" stroke-miterlimit="10" d="M979.9,173"/>
<path fill="#0C2638" d="M929.9,224.6c-28.5,0-51.7-23.2-51.7-51.7s23.2-51.7,51.7-51.7c13,0,25.4,4.9,35,13.7c3,2.8,5.7,6,8,9.4
	l-2.7,1.8c-2.1-3.2-4.7-6.2-7.5-8.8c-9-8.3-20.6-12.8-32.8-12.8c-26.7,0-48.4,21.7-48.4,48.4s21.7,48.4,48.4,48.4
	c16.7,0,32-8.5,41-22.6l2.8,1.8C964.1,215.6,947.7,224.6,929.9,224.6z"/>
<g>
	<polygon fill="#0C2638" points="646.8,98.3 646.8,114.9 661.4,106.6 	"/>
	<polygon fill="#0C2638" points="646.8,89.9 646.8,98.1 661.4,89.9 	"/>
	<polygon fill="#0C2638" points="676,89.9 676,98.1 690.6,89.9 	"/>
	<polygon fill="#0C2638" points="646.8,114.9 646.8,131.5 661.4,123.2 	"/>
	<polygon fill="#0C2638" points="661.4,139.7 646.8,131.5 646.8,148 646.8,148 	"/>
	<polygon fill="#0C2638" points="646.8,148 646.8,148 646.8,148 646.8,148 646.8,156.2 661.3,156.2 	"/>
	<polygon fill="#0C2638" points="646.8,148 646.8,148 646.8,148 	"/>
	<polygon fill="#0C2638" points="661.3,156.2 646.8,156.2 646.8,164.6 661.4,156.3 	"/>
	<polygon fill="#0C2638" points="646.8,164.6 646.8,181.2 661.4,172.9 	"/>
	<polygon fill="#0C2638" points="646.8,181.2 646.8,197.7 661.4,189.5 	"/>
	<polygon fill="#0C2638" points="646.8,197.7 646.8,214.3 661.4,206 	"/>
	<polygon fill="#0C2638" points="646.8,214.3 646.8,230.9 661.4,222.6 	"/>
	<polygon fill="#0C2638" points="646.8,230.9 646.8,247.5 661.4,239.2 	"/>
	<polygon fill="#0C2638" points="661.4,255.7 646.8,247.5 646.8,256 660.9,256 	"/>
	<polygon fill="#0C2638" points="661.4,106.6 661.4,123.2 676,114.9 	"/>
	<polygon fill="#0C2638" points="661.4,90 661.4,106.6 676,98.3 	"/>
	<polygon fill="#0C2638" points="661.4,123.2 661.4,139.7 676,131.5 	"/>
	<polygon fill="#0C2638" points="676,148 661.4,139.7 661.4,156.3 661.4,156.3 	"/>
	<polygon fill="#0C2638" points="661.4,156.3 661.4,156.3 661.4,156.3 661.4,156.3 661.4,164.5 675.9,164.5 	"/>
	<polygon fill="#0C2638" points="661.4,156.3 661.4,156.3 661.4,156.3 	"/>
	<polygon fill="#0C2638" points="676,164.6 675.9,164.5 661.4,164.5 661.4,172.9 661.4,172.9 	"/>
	<polygon fill="#0C2638" points="661.4,172.9 661.4,189.5 676,181.2 	"/>
	<polygon fill="#0C2638" points="661.4,189.5 661.4,206 676,197.7 	"/>
	<polygon fill="#0C2638" points="661.4,206 661.4,222.6 676,214.3 	"/>
	<polygon fill="#0C2638" points="661.4,222.6 661.4,239.2 676,230.9 	"/>
	<polygon fill="#0C2638" points="661.4,239.2 661.4,255.7 676,247.5 	"/>
	<polygon fill="#0C2638" points="661.4,255.7 661.4,256 661.9,256 	"/>
	<polygon fill="#0C2638" points="676,114.9 676,131.5 690.6,123.2 	"/>
	<polygon fill="#0C2638" points="676,98.3 676,114.9 690.6,106.6 	"/>
	<polygon fill="#0C2638" points="676,131.5 676,148 690.6,139.7 	"/>
	<polygon fill="#0C2638" points="690.6,156.3 676,148 676,164.6 676,164.6 	"/>
	<polygon fill="#0C2638" points="676,164.6 676,164.6 676,164.6 676,164.6 676,172.8 690.4,172.8 	"/>
	<polygon fill="#0C2638" points="676,164.6 676,164.6 676,164.6 	"/>
	<polygon fill="#0C2638" points="690.6,172.9 690.4,172.8 676,172.8 676,181.2 676,181.2 	"/>
	<polygon fill="#0C2638" points="676,181.2 676,197.7 690.6,189.5 	"/>
	<polygon fill="#0C2638" points="676,197.7 676,214.3 690.6,206 	"/>
	<polygon fill="#0C2638" points="676,214.3 676,230.9 690.6,222.6 	"/>
	<polygon fill="#0C2638" points="676,230.9 676,247.5 690.6,239.2 	"/>
	<polygon fill="#0C2638" points="690.6,255.7 676,247.5 676,256 690.1,256 	"/>
</g>
<rect x="382.7" y="89.7" fill="#93BC4F" width="9.2" height="9.2"/>
<rect x="400.9" y="89.7" fill="#93BC4F" width="9.2" height="9.2"/>
<rect x="391.9" y="98.9" fill="#93BC4F" width="9.2" height="9.2"/>
<rect x="410.1" y="98.9" fill="#93BC4F" width="9.2" height="9.2"/>
<rect x="382.7" y="108.1" fill="#93BC4F" width="9.2" height="9.2"/>
<rect x="400.9" y="108.1" fill="#93BC4F" width="9.2" height="9.2"/>
<rect x="391.9" y="117.3" fill="#93BC4F" width="9.2" height="9.2"/>
<rect x="410.1" y="117.3" fill="#93BC4F" width="9.2" height="9.2"/>
<rect x="382.7" y="126.4" fill="#FBE33F" width="9.2" height="9.3"/>
<rect x="400.9" y="126.4" fill="#FBE33F" width="9.2" height="9.3"/>
<rect x="391.9" y="135.7" fill="#FBE33F" width="9.2" height="9.3"/>
<rect x="410.1" y="135.7" fill="#FBE33F" width="9.2" height="9.3"/>
<rect x="382.7" y="144.9" fill="#FBE33F" width="9.2" height="9.3"/>
<rect x="400.9" y="144.9" fill="#FBE33F" width="9.2" height="9.3"/>
<rect x="391.9" y="154.2" fill="#FBE33F" width="9.2" height="9.3"/>
<rect x="410.1" y="154.2" fill="#FBE33F" width="9.2" height="9.3"/>
<rect x="382.7" y="163.5" fill="#FBE33F" width="9.2" height="9.3"/>
<rect x="400.9" y="163.5" fill="#FBE33F" width="9.2" height="9.3"/>
<rect x="391.9" y="172.7" fill="#FBE33F" width="9.2" height="9.3"/>
<rect x="410.1" y="172.7" fill="#FBE33F" width="9.2" height="9.3"/>
<rect x="382.7" y="182" fill="#FBE33F" width="9.2" height="9.3"/>
<rect x="400.9" y="182" fill="#FBE33F" width="9.2" height="9.3"/>
<rect x="391.9" y="191.2" fill="#FBE33F" width="9.2" height="9.3"/>
<rect x="410.1" y="191.2" fill="#FBE33F" width="9.2" height="9.3"/>
<rect x="382.7" y="200.5" fill="#FBE33F" width="9.2" height="9.3"/>
<rect x="400.9" y="200.5" fill="#FBE33F" width="9.2" height="9.3"/>
<rect x="391.9" y="209.7" fill="#FBE33F" width="9.2" height="9.3"/>
<rect x="410.1" y="209.7" fill="#FBE33F" width="9.2" height="9.3"/>
<rect x="382.7" y="219.2" fill="#FBE33F" width="9.2" height="9"/>
<rect x="400.9" y="219.2" fill="#FBE33F" width="9.2" height="9"/>
<rect x="391.9" y="228.2" fill="#FBE33F" width="9.2" height="9"/>
<rect x="410.1" y="228.2" fill="#FBE33F" width="9.2" height="9"/>
<rect x="391.9" y="246" fill="#FBE33F" width="9.2" height="9"/>
<rect x="410.1" y="246" fill="#FBE33F" width="9.2" height="9"/>
<rect x="382.7" y="237.1" fill="#FBE33F" width="9.2" height="9"/>
<rect x="400.9" y="237.1" fill="#FBE33F" width="9.2" height="9"/>
<rect x="419.3" y="89.7" fill="#93BC4F" width="9.2" height="9.2"/>
<rect x="419.3" y="108.1" fill="#93BC4F" width="9.2" height="9.2"/>
<rect x="419.3" y="126.4" fill="#FBE33F" width="9.2" height="9.3"/>
<rect x="419.3" y="144.9" fill="#FBE33F" width="9.2" height="9.3"/>
<rect x="419.3" y="163.5" fill="#FBE33F" width="9.2" height="9.3"/>
<rect x="419.3" y="182" fill="#FBE33F" width="9.2" height="9.3"/>
<rect x="419.3" y="200.5" fill="#FBE33F" width="9.2" height="9.3"/>
<rect x="419.3" y="219.2" fill="#FBE33F" width="9.2" height="9"/>
<rect x="419.3" y="237.1" fill="#FBE33F" width="9.2" height="9"/>
<rect x="390.6" y="219.3" fill="#DC3B20" width="1.3" height="35.6"/>
<rect x="399.9" y="219.3" fill="#DC3B20" width="1.3" height="35.6"/>
<rect x="409.2" y="219.3" fill="#DC3B20" width="1.3" height="35.6"/>
<rect x="418.5" y="219.3" fill="#DC3B20" width="1.3" height="35.6"/>
<rect x="427.8" y="219.3" fill="#DC3B20" width="1.3" height="35.6"/>
<rect x="437.1" y="219.3" fill="#DC3B20" width="1.3" height="35.6"/>
<rect x="446.4" y="219.3" fill="#DC3B20" width="1.3" height="35.6"/>
<rect x="382.2" y="245.5" fill="#DC3B20" width="74.2" height="1.4"/>
<rect x="382.2" y="236.7" fill="#DC3B20" width="74.2" height="1.4"/>
<rect x="382.2" y="227.9" fill="#DC3B20" width="74.2" height="1.4"/>
<rect x="381.3" y="219.1" fill="#DC3B20" width="1.3" height="36.8"/>
<rect x="455.7" y="219.1" fill="#DC3B20" width="1.3" height="36.8"/>
<rect x="382" y="219" fill="#DC3B20" width="74.4" height="1.4"/>
<rect x="382" y="254.6" fill="#DC3B20" width="74.4" height="1.4"/>
<g>
	<defs>
		<path id="SVGID_1_" d="M265.5,87c-47.6,0-86.1,38.6-86.1,86.1c0,0.4,0,0.8,0,1.3c2.4,0.2,4.8,0.3,7.2,0.3
			c10.8,0,21.1-1.9,30.7-5.4c21.6-7.9,39.3-24,49.3-44.5c5.5-11.3,8.7-23.9,8.9-37.2C272.2,87.2,268.9,87,265.5,87z"/>
	</defs>
	<clipPath id="SVGID_2_">
		<use xlink:href="#SVGID_1_"  overflow="visible"/>
	</clipPath>
	<g clip-path="url(#SVGID_2_)">
		<g>
			<rect x="156.1" y="81.1" fill="#63C5F1" width="1.3" height="35.6"/>
			<rect x="165.4" y="81.1" fill="#63C5F1" width="1.3" height="35.6"/>
			<rect x="174.7" y="81.1" fill="#63C5F1" width="1.3" height="35.6"/>
			<rect x="184" y="81.1" fill="#63C5F1" width="1.3" height="35.6"/>
			<rect x="193.3" y="81.1" fill="#63C5F1" width="1.3" height="35.6"/>
			<rect x="202.6" y="81.1" fill="#63C5F1" width="1.3" height="35.6"/>
			<rect x="211.9" y="81.1" fill="#63C5F1" width="1.3" height="35.6"/>
			<rect x="147.7" y="107.3" fill="#63C5F1" width="74.2" height="1.4"/>
			<rect x="147.7" y="98.4" fill="#63C5F1" width="74.2" height="1.4"/>
			<rect x="147.7" y="89.6" fill="#63C5F1" width="74.2" height="1.4"/>
			<rect x="146.8" y="80.8" fill="#63C5F1" width="1.3" height="36.8"/>
			<rect x="221.2" y="80.8" fill="#63C5F1" width="1.3" height="36.8"/>
			<rect x="147.4" y="80.8" fill="#63C5F1" width="74.4" height="1.4"/>
			<rect x="147.4" y="116.3" fill="#63C5F1" width="74.4" height="1.4"/>
		</g>
		<g>
			<rect x="156.1" y="116.4" fill="#63C5F1" width="1.3" height="35.6"/>
			<rect x="165.4" y="116.4" fill="#63C5F1" width="1.3" height="35.6"/>
			<rect x="174.7" y="116.4" fill="#63C5F1" width="1.3" height="35.6"/>
			<rect x="184" y="116.4" fill="#63C5F1" width="1.3" height="35.6"/>
			<rect x="193.3" y="116.4" fill="#63C5F1" width="1.3" height="35.6"/>
			<rect x="202.6" y="116.4" fill="#63C5F1" width="1.3" height="35.6"/>
			<rect x="211.9" y="116.4" fill="#63C5F1" width="1.3" height="35.6"/>
			<rect x="147.7" y="142.6" fill="#63C5F1" width="74.2" height="1.4"/>
			<rect x="147.7" y="133.8" fill="#63C5F1" width="74.2" height="1.4"/>
			<rect x="147.7" y="124.9" fill="#63C5F1" width="74.2" height="1.4"/>
			<rect x="146.8" y="116.2" fill="#63C5F1" width="1.3" height="36.8"/>
			<rect x="221.2" y="116.2" fill="#63C5F1" width="1.3" height="36.8"/>
			<rect x="147.4" y="116.1" fill="#63C5F1" width="74.4" height="1.4"/>
			<rect x="147.4" y="151.7" fill="#63C5F1" width="74.4" height="1.4"/>
		</g>
		<g>
			<rect x="156.1" y="151.7" fill="#63C5F1" width="1.3" height="35.6"/>
			<rect x="165.4" y="151.7" fill="#63C5F1" width="1.3" height="35.6"/>
			<rect x="174.7" y="151.7" fill="#63C5F1" width="1.3" height="35.6"/>
			<rect x="184" y="151.7" fill="#63C5F1" width="1.3" height="35.6"/>
			<rect x="193.3" y="151.7" fill="#63C5F1" width="1.3" height="35.6"/>
			<rect x="202.6" y="151.7" fill="#63C5F1" width="1.3" height="35.6"/>
			<rect x="211.9" y="151.7" fill="#63C5F1" width="1.3" height="35.6"/>
			<rect x="147.7" y="177.9" fill="#63C5F1" width="74.2" height="1.4"/>
			<rect x="147.7" y="169.1" fill="#63C5F1" width="74.2" height="1.4"/>
			<rect x="147.7" y="160.2" fill="#63C5F1" width="74.2" height="1.4"/>
			<rect x="146.8" y="151.5" fill="#63C5F1" width="1.3" height="36.8"/>
			<rect x="221.2" y="151.5" fill="#63C5F1" width="1.3" height="36.8"/>
			<rect x="147.4" y="151.4" fill="#63C5F1" width="74.4" height="1.4"/>
			<rect x="147.4" y="187" fill="#63C5F1" width="74.4" height="1.4"/>
		</g>
		<g>
			<rect x="230.4" y="81.1" fill="#63C5F1" width="1.3" height="35.6"/>
			<rect x="239.7" y="81.1" fill="#63C5F1" width="1.3" height="35.6"/>
			<rect x="249" y="81.1" fill="#63C5F1" width="1.3" height="35.6"/>
			<rect x="258.3" y="81.1" fill="#63C5F1" width="1.3" height="35.6"/>
			<rect x="267.6" y="81.1" fill="#63C5F1" width="1.3" height="35.6"/>
			<rect x="276.9" y="81.1" fill="#63C5F1" width="1.3" height="35.6"/>
			<rect x="286.2" y="81.1" fill="#63C5F1" width="1.3" height="35.6"/>
			<rect x="222" y="107.3" fill="#63C5F1" width="74.2" height="1.4"/>
			<rect x="222" y="98.4" fill="#63C5F1" width="74.2" height="1.4"/>
			<rect x="222" y="89.6" fill="#63C5F1" width="74.2" height="1.4"/>
			<rect x="221.1" y="80.8" fill="#63C5F1" width="1.3" height="36.8"/>
			<rect x="295.5" y="80.8" fill="#63C5F1" width="1.3" height="36.8"/>
			<rect x="221.8" y="80.8" fill="#63C5F1" width="74.4" height="1.4"/>
			<rect x="221.8" y="116.3" fill="#63C5F1" width="74.4" height="1.4"/>
		</g>
		<g>
			<rect x="230.4" y="116.4" fill="#63C5F1" width="1.3" height="35.6"/>
			<rect x="239.7" y="116.4" fill="#63C5F1" width="1.3" height="35.6"/>
			<rect x="249" y="116.4" fill="#63C5F1" width="1.3" height="35.6"/>
			<rect x="258.3" y="116.4" fill="#63C5F1" width="1.3" height="35.6"/>
			<rect x="267.6" y="116.4" fill="#63C5F1" width="1.3" height="35.6"/>
			<rect x="276.9" y="116.4" fill="#63C5F1" width="1.3" height="35.6"/>
			<rect x="286.2" y="116.4" fill="#63C5F1" width="1.3" height="35.6"/>
			<rect x="222" y="142.6" fill="#63C5F1" width="74.2" height="1.4"/>
			<rect x="222" y="133.8" fill="#63C5F1" width="74.2" height="1.4"/>
			<rect x="222" y="124.9" fill="#63C5F1" width="74.2" height="1.4"/>
			<rect x="221.1" y="116.2" fill="#63C5F1" width="1.3" height="36.8"/>
			<rect x="295.5" y="116.2" fill="#63C5F1" width="1.3" height="36.8"/>
			<rect x="221.8" y="116.1" fill="#63C5F1" width="74.4" height="1.4"/>
			<rect x="221.8" y="151.7" fill="#63C5F1" width="74.4" height="1.4"/>
		</g>
		<g>
			<rect x="230.4" y="151.7" fill="#63C5F1" width="1.3" height="35.6"/>
			<rect x="239.7" y="151.7" fill="#63C5F1" width="1.3" height="35.6"/>
			<rect x="249" y="151.7" fill="#63C5F1" width="1.3" height="35.6"/>
			<rect x="258.3" y="151.7" fill="#63C5F1" width="1.3" height="35.6"/>
			<rect x="267.6" y="151.7" fill="#63C5F1" width="1.3" height="35.6"/>
			<rect x="276.9" y="151.7" fill="#63C5F1" width="1.3" height="35.6"/>
			<rect x="286.2" y="151.7" fill="#63C5F1" width="1.3" height="35.6"/>
			<rect x="222" y="177.9" fill="#63C5F1" width="74.2" height="1.4"/>
			<rect x="222" y="169.1" fill="#63C5F1" width="74.2" height="1.4"/>
			<rect x="222" y="160.2" fill="#63C5F1" width="74.2" height="1.4"/>
			<rect x="221.1" y="151.5" fill="#63C5F1" width="1.3" height="36.8"/>
			<rect x="295.5" y="151.5" fill="#63C5F1" width="1.3" height="36.8"/>
			<rect x="221.8" y="151.4" fill="#63C5F1" width="74.4" height="1.4"/>
			<rect x="221.8" y="187" fill="#63C5F1" width="74.4" height="1.4"/>
		</g>
	</g>
</g>
<g>
	<path fill="#3680C3" d="M7.6,137.6v26.7H4.3v-18.2C1.5,154.6,0,163.6,0,173c0,1.4,0,2.9,0.1,4.3l0-4.4v-3.2c5.5,0,11,0.6,16.2,1.6
		c0.6,0.1,1.3,0.3,1.9,0.4v-51.8C14,125.3,10.4,131.2,7.6,137.6z"/>
	<path fill="#3680C3" d="M49.6,94.8v47.1c3.1-3.7,6.7-6.8,10.7-9.4V90.5C56.7,91.7,53.1,93.1,49.6,94.8z"/>
	<path fill="#3680C3" d="M35.6,103.1v67.4h-3.3v-64.9c-3.9,3.1-7.5,6.5-10.7,10.3v56.6c6,1.6,11.7,3.7,17,6.5
		c-0.2-1.9-0.4-3.9-0.4-6c0-9.9,3-19.1,8.1-26.7V96.4C42.6,98.4,39,100.6,35.6,103.1z"/>
	<path fill="#3680C3" d="M63.7,89.6v40.9c3.4-1.8,7-3.2,10.7-4.2V87.4C70.8,87.9,67.2,88.6,63.7,89.6z"/>
	<path fill="#3680C3" d="M91.7,86.7v26.7h-3.3V86.6c-0.7,0-1.4,0-2,0c-2.9,0-5.8,0.1-8.7,0.4v38.6c2.8-0.5,5.7-0.8,8.7-0.8
		c17.7,0,33.2,9.6,41.5,23.8l33-19.4C146.8,105.1,121.2,88.5,91.7,86.7z"/>
	<path fill="#0C2638" d="M7.6,164.3v-26.7c-1.2,2.8-2.3,5.6-3.3,8.5v18.2H7.6z"/>
	<path fill="#0C2638" d="M18.3,176.5h3.3v-4c-1.1-0.3-2.2-0.5-3.3-0.8V176.5z"/>
	<path fill="#0C2638" d="M18.3,119.8v51.8c1.1,0.2,2.2,0.5,3.3,0.8v-56.6C20.5,117.1,19.4,118.5,18.3,119.8z"/>
	<path fill="#0C2638" d="M35.6,170.5v-67.4c-1.1,0.8-2.2,1.7-3.3,2.5v64.9H35.6z"/>
	<path fill="#0C2638" d="M46.4,158.8h3.3v-16.9c-1.2,1.4-2.3,2.8-3.3,4.4V158.8z"/>
	<path fill="#0C2638" d="M46.4,96.4v49.8c1-1.5,2.1-3,3.3-4.4V94.8C48.5,95.3,47.4,95.8,46.4,96.4z"/>
	<path fill="#0C2638" d="M60.4,144.8h3.3v-14.3c-1.1,0.6-2.2,1.3-3.3,1.9V144.8z"/>
	<path fill="#0C2638" d="M60.4,90.5v41.9c1.1-0.7,2.2-1.3,3.3-1.9V89.6C62.6,89.9,61.5,90.2,60.4,90.5z"/>
	<path fill="#0C2638" d="M74.4,135h3.3v-9.4c-1.1,0.2-2.2,0.4-3.3,0.7V135z"/>
	<path fill="#0C2638" d="M74.4,87.4v38.9c1.1-0.3,2.2-0.5,3.3-0.7V87C76.6,87.1,75.5,87.2,74.4,87.4z"/>
	<path fill="#0C2638" d="M91.7,113.4V86.7c-1.1-0.1-2.2-0.1-3.3-0.1v26.8H91.7z"/>
</g>
</svg>
