<?xml version="1.0" encoding="utf-8"?>
<!-- Generator: Adobe Illustrator 22.0.1, SVG Export Plug-In . SVG Version: 6.00 Build 0)  -->
<svg version="1.1" id="Layer_1" xmlns="http://www.w3.org/2000/svg" xmlns:xlink="http://www.w3.org/1999/xlink" x="0px" y="0px"
	 viewBox="0 0 993.7 261.9" enable-background="new 0 0 993.7 261.9" xml:space="preserve">
<polygon fill="#010202" points="579.2,73.2 636.4,51.9 579.2,29.6 579.2,0 677.1,39.5 677.1,64 579.2,103.7 "/>
<path fill="#010202" d="M53,142.5c-27.2,0-47.3,12.5-49.5,37.9h30.7c0.9-8.8,6.6-14.9,17.3-14.9c11.8,0,16.9,7,16.9,18.4v5.5H54.1
	c-29.6,0-54.1,9.2-54.1,37.5v1.3c0,23.2,17.1,33.8,37.7,33.8c15.3,0,25.9-7.2,31.3-15.6v13.2h31.3v-76.7
	C100.4,154.3,80.7,142.5,53,142.5z M68.4,221.4c0,12.1-10.1,18.2-21,18.2c-10.7,0-15.6-5.5-15.6-13.4v-1.1
	c0-10.3,8.1-14.7,23.9-14.7h12.7V221.4z"/>
<path fill="#010202" d="M173,261.9c-31.8,0-54.8-19.7-54.8-58.5v-1.5c0-38.8,24.5-59.4,55-59.4c26.1,0,47.6,13.2,50.2,43.2h-30.7
	c-2-11.2-7.7-18.4-18.9-18.4c-13.6,0-23,10.7-23,33.3v3.5c0,23.2,8.3,33.8,23.2,33.8c11,0,19.1-8.1,20.8-20.6H224
	C221.8,243.3,204.1,261.9,173,261.9z"/>
<path fill="#010202" d="M292.2,261.9c-31.8,0-54.8-19.7-54.8-58.5v-1.5c0-38.8,24.5-59.4,55-59.4c26.1,0,47.6,13.2,50.2,43.2h-30.7
	c-2-11.2-7.7-18.4-18.9-18.4c-13.6,0-23,10.7-23,33.3v3.5c0,23.2,8.3,33.8,23.2,33.8c11,0,19.1-8.1,20.8-20.6h29.2
	C341.1,243.3,323.3,261.9,292.2,261.9z"/>
<path fill="#010202" d="M463.6,196.4c0-37.9-23.9-53.9-52.4-53.9c-30.7,0-54.6,21-54.6,59.4v2.2c0,38.1,22.6,57.9,55.7,57.9
	c30,0,47.8-16.4,51.3-38.1H434c-2.2,8.3-8.8,14.9-21,14.9c-13.8,0-22.6-7.9-23.9-28.5h74.5V196.4z M389.5,188.9
	c2.6-18.6,11.8-24.1,21.9-24.1c12.7,0,20.4,7.2,21,24.1H389.5z"/>
<path fill="#010202" d="M483.4,144.9h32V162c5.7-10.7,17.1-19.5,34.6-19.5c20.8,0,34.6,12.5,34.6,40.3v76.7h-32v-71.9
	c0-13.4-5.5-19.3-17.1-19.3c-11.2,0-20.2,6.8-20.2,21.3v69.9h-32V144.9z"/>
<path fill="#010202" d="M644.5,110.3v34.6h21.9v23.9h-21.9v54.4c0,8.6,3.9,12.5,11.4,12.5c4.6,0,8.1-0.7,11.2-2v25
	c-3.7,1.1-10.1,2.4-18,2.4c-25,0-36.8-11.4-36.8-34.6v-57.6h-13.4v-23.9h13.4v-21.5L644.5,110.3z"/>
<path fill="#010202" d="M787,259.5h-32v-16.9c-5.5,11-16.2,19.3-33.3,19.3c-20.6,0-35.7-12.5-35.7-39.4v-77.6h32.2v72.8
	c0,13.1,5.3,19.3,16.7,19.3c11.2,0,20.2-7,20.2-21.3v-70.8h32V259.5z"/>
<path fill="#010202" d="M810.2,144.9h32v21c6.8-15.3,17.5-22.6,34.4-22.6v31.6c-21.7,0-34.4,6.6-34.4,25.6v59h-32V144.9z"/>
<path fill="#010202" d="M993.7,196.4c0-37.9-23.9-53.9-52.4-53.9c-30.7,0-54.6,21-54.6,59.4v2.2c0,38.1,22.6,57.9,55.7,57.9
	c30,0,47.8-16.4,51.3-38.1h-29.6c-2.2,8.3-8.8,14.9-21,14.9c-13.8,0-22.6-7.9-23.9-28.5h74.5V196.4z M919.6,188.9
	c2.6-18.6,11.8-24.1,21.9-24.1c12.7,0,20.4,7.2,21,24.1H919.6z"/>
</svg>
